<svg width="21" height="20" viewBox="0 0 21 20" fill="none" xmlns="http://www.w3.org/2000/svg">
<g id="ic:round-people-alt">
<path id="Vector" fill-rule="evenodd" clip-rule="evenodd" d="M14.4688 10.9414C15.658 11.7164 16.4913 12.7664 16.4913 14.1664V16.6664H19.0955C19.5729 16.6664 19.9635 16.2914 19.9635 15.8331V14.1664C19.9635 12.3497 16.8646 11.2747 14.4688 10.9414Z" fill="#606060"/>
<path id="Vector_2" d="M7.81206 9.9987C9.72972 9.9987 11.2843 8.50631 11.2843 6.66537C11.2843 4.82442 9.72972 3.33203 7.81206 3.33203C5.89441 3.33203 4.33984 4.82442 4.33984 6.66537C4.33984 8.50631 5.89441 9.9987 7.81206 9.9987Z" fill="#606060"/>
<path id="Vector_3" fill-rule="evenodd" clip-rule="evenodd" d="M13.02 9.9987C14.9384 9.9987 16.4922 8.50703 16.4922 6.66536C16.4922 4.8237 14.9384 3.33203 13.02 3.33203C12.612 3.33203 12.23 3.41536 11.8655 3.53203C12.6124 4.41888 13.0199 5.52487 13.0199 6.66536C13.0199 7.80586 12.6124 8.91185 11.8655 9.7987C12.23 9.91537 12.612 9.9987 13.02 9.9987ZM7.81163 10.832C5.49392 10.832 0.867188 11.9487 0.867188 14.1654V15.832C0.867188 16.2904 1.25781 16.6654 1.73524 16.6654H13.888C14.3655 16.6654 14.7561 16.2904 14.7561 15.832V14.1654C14.7561 11.9487 10.1293 10.832 7.81163 10.832Z" fill="#606060"/>
</g>
</svg>
