<svg viewBox="0 0 108 9" fill="none" xmlns="http://www.w3.org/2000/svg">
<path d="M1.01172 7.8622V1.11719H9.37488L10.6461 2.12519V7.8622H1.01172ZM7.5952 5.428H3.90203V6.04995H7.79592V2.92945H3.88865V3.58357H7.5952V5.428ZM11.531 2.2217V7.8622H14.3946V5.428H18.0877V3.59429H14.3946V2.92945H18.2884V7.8622H21.152V2.2217L19.7737 1.11719H12.9093L11.531 2.2217ZM22.0372 2.16808L23.4288 1.11719H31.6983V2.92945H28.3397V7.8622H25.4761V2.92945H22.0372V2.16808ZM32.5826 2.16808L33.9743 1.11719H42.2436V2.92945H38.885V7.8622H36.0216V2.92945H32.5826V2.16808ZM43.1279 1.11719H46.0048V6.04995H52.4946V7.8622H44.5195L43.1279 6.81131V1.11719ZM53.3729 6.77915L54.7244 7.8622H63.034V6.04995H56.2498V5.39582H59.9296V3.57285H56.2498V2.92945H63.034V1.11719H54.7646L53.3729 2.16808V6.77915ZM63.9183 5.428V2.21098L65.2965 1.11719H73.5794V2.92945H66.7818V3.57285H70.5018V5.428H63.9183ZM73.5794 6.77915L72.2279 7.8622H63.9183V6.04995H70.7025V3.57285H73.5794V6.77915ZM74.4637 2.16808L75.8553 1.11719H84.1248V2.92945H80.7662V7.8622H77.9026V2.92945H74.4637V2.16808ZM85.0091 2.2217V7.8622H87.8726V5.428H91.5658V3.59429H87.8726V2.92945H91.7665V7.8622H94.63V2.2217L93.2518 1.11719H86.3873L85.0091 2.2217ZM95.5154 1.11719V7.8622H98.379V5.428H102.086V3.58357H98.3923V2.92945H102.286V5.31004L103.517 7.8622H106.394L105.15 5.18136V2.12519L103.879 1.11719H95.5154Z" fill="#FAC704"/>
</svg>
