<svg xmlns="http://www.w3.org/2000/svg" fill="none" viewBox="0 0 124 124">
  <path fill="currentColor"
    d="m47.694 57.945-6.677-33.226-6.677 35.005 6.677 32.63 6.676-34.41ZM89.662 59.724l-6.677-35.005-6.676 33.226 6.676 34.41 6.677-32.631ZM103.334 18.79c-6.168 25.512-18.886 78.968-20.666 88.994l10.174 17.205h20.985l10.174-17.205-20.667-88.995Zm7.822 101.629h-15.77l-7.63-12.933c1.334-7.533 10.873-47.64 15.515-66.749l15.515 66.749-7.63 12.933ZM41.332 107.783l10.174 17.205h20.985l10.174-17.205L61.998.988c-6.104 30.616-18.886 94.749-20.666 106.795Zm35.928 0-7.44 12.58H54.05l-7.44-12.58-.19-.297c.19-.893.444-2.48.826-4.688 2.734-15.779 10.62-60.989 14.689-77.779l15.516 82.46-.191.304Z"/>
  <path fill="currentColor"
    d="m0 107.784 10.174 17.205h20.984l10.175-17.205-20.667-88.995C14.562 44.302 1.78 97.76 0 107.784Zm28.488 12.635h-15.77l-7.63-12.933c1.334-7.533 10.873-47.64 15.515-66.749l15.515 66.749-7.63 12.933Z"/>
</svg>
