<svg width="40" height="40" viewBox="0 0 40 40" fill="none" xmlns="http://www.w3.org/2000/svg">
<path d="M33.3888 10.464C32.848 9.64723 32.0824 9.02243 31.1744 8.65923C29.2032 7.86883 27.508 7.34083 25.9912 7.04323C24.9272 6.83523 23.8736 7.35843 23.3672 8.34403L23.2408 8.59043C22.1176 8.46643 20.9248 8.42483 19.5664 8.45923C18.1736 8.42563 16.9768 8.46643 15.852 8.59043L15.7264 8.34403C15.22 7.35843 14.1648 6.83603 13.1032 7.04403C11.5864 7.34083 9.89043 7.86883 7.92003 8.66003C7.01283 9.02323 6.24723 9.64723 5.70563 10.4648C1.92883 16.1696 0.448828 22.3232 1.18163 29.2784C1.20723 29.5224 1.34323 29.7408 1.55043 29.8712C4.45603 31.7032 6.97043 32.9576 9.46323 33.82C10.5056 34.184 11.6616 33.7768 12.2768 32.8368L13.3736 31.156C12.5 30.8264 11.6472 30.436 10.8296 29.9696C10.4464 29.7512 10.3128 29.2624 10.5312 28.8792C10.7496 28.4944 11.2384 28.3592 11.6224 28.5808C14.0552 29.968 16.8056 30.7016 19.576 30.7016C22.3464 30.7016 25.0968 29.968 27.5296 28.5808C27.9128 28.3592 28.4016 28.4944 28.6208 28.8792C28.8392 29.2624 28.7056 29.7512 28.3224 29.9696C27.4776 30.452 26.5944 30.8536 25.6896 31.1888L26.8184 32.8704C27.2832 33.5624 28.0504 33.956 28.8408 33.956C29.0984 33.956 29.3584 33.9136 29.6112 33.8272C32.1112 32.964 34.6304 31.708 37.5424 29.872C37.7496 29.7416 37.8856 29.5224 37.9112 29.2792C38.6456 22.3232 37.1656 16.1688 33.3888 10.464ZM14.4368 24.3304C12.896 24.3304 11.628 22.7072 11.628 20.7344C11.628 18.7616 12.896 17.1384 14.4368 17.1384C15.9776 17.1384 17.2456 18.7616 17.2456 20.7344C17.2456 22.7072 15.9776 24.3304 14.4368 24.3304ZM24.8312 24.3096C23.3048 24.3096 22.0488 22.6768 22.0488 20.692C22.0488 18.7072 23.3048 17.0744 24.8312 17.0744C26.3576 17.0744 27.6136 18.7072 27.6136 20.692C27.6136 22.6768 26.3576 24.3096 24.8312 24.3096Z" fill="#F8F8F8"/>
</svg>
