<svg width="32" height="32" viewBox="0 0 32 32" fill="none" xmlns="http://www.w3.org/2000/svg">
<g id="pajamas:discord">
<rect width="32" height="32" rx="16" fill="#C2C2BE"/>
<path id="Vector" d="M22.9426 9.27002C21.6285 8.66823 20.2413 8.24126 18.8163 8C18.6212 8.34877 18.4447 8.7076 18.2875 9.07501C16.7694 8.84622 15.2256 8.84622 13.7075 9.07501C13.5506 8.70767 13.3745 8.34884 13.18 8C11.754 8.24347 10.3657 8.67123 9.04992 9.27251C6.43863 13.1351 5.73113 16.9039 6.08488 20.6176C7.61392 21.7477 9.3254 22.6073 11.1449 23.1589C11.5547 22.6075 11.9172 22.0225 12.2287 21.4102C11.6371 21.1891 11.0662 20.9164 10.5224 20.5951C10.6662 20.4914 10.8062 20.3851 10.9412 20.2814C12.5238 21.0256 14.2511 21.4115 16 21.4115C17.7489 21.4115 19.4762 21.0256 21.0588 20.2814C21.1963 20.3939 21.3363 20.5001 21.4776 20.5951C20.9326 20.9172 20.3604 21.1907 19.7675 21.4127C20.0788 22.0239 20.4413 22.6077 20.8513 23.1577C22.6724 22.6089 24.3854 21.7505 25.9151 20.6201C26.3301 16.3126 25.2064 12.5788 22.9426 9.27002ZM12.6762 18.3326C11.6899 18.3326 10.8762 17.4389 10.8762 16.3376C10.8762 15.2363 11.6612 14.3338 12.6737 14.3338C13.685 14.3338 14.4937 15.2363 14.4762 16.3376C14.4587 17.4376 13.6812 18.3339 12.6762 18.3339M19.3213 18.3339C18.3338 18.3339 17.5213 17.4401 17.5213 16.3388C17.5213 15.2376 18.3088 14.3351 19.3213 14.3351C20.3338 14.3351 21.1363 15.2376 21.1188 16.3388C21.1013 17.4389 20.3263 18.3339 19.3213 18.3339Z" fill="#2B2A30"/>
</g>
</svg>
