<svg width="24" height="24" viewBox="0 0 24 24" fill="none" xmlns="http://www.w3.org/2000/svg">
<path d="M2 5.27L3.28 4L20 20.72L18.73 22L15.65 18.92C14.5 19.3 13.28 19.5 12 19.5C7 19.5 2.73 16.39 1 12C1.69 10.24 2.79 8.69 4.19 7.46L2 5.27ZM12 9C12.7956 9 13.5587 9.31607 14.1213 9.87868C14.6839 10.4413 15 11.2044 15 12C15.0005 12.3406 14.943 12.6787 14.83 13L11 9.17C11.3213 9.05698 11.6594 8.99949 12 9ZM12 4.5C17 4.5 21.27 7.61 23 12C22.1839 14.0732 20.7969 15.8727 19 17.19L17.58 15.76C18.9629 14.8034 20.0782 13.5091 20.82 12C20.0116 10.3499 18.7564 8.95977 17.1973 7.9875C15.6381 7.01524 13.8375 6.49988 12 6.5C10.91 6.5 9.84 6.68 8.84 7L7.3 5.47C8.74 4.85 10.33 4.5 12 4.5ZM3.18 12C3.98844 13.6501 5.24357 15.0402 6.80273 16.0125C8.36189 16.9848 10.1625 17.5001 12 17.5C12.69 17.5 13.37 17.43 14 17.29L11.72 15C11.0242 14.9254 10.3748 14.6149 9.87997 14.12C9.38512 13.6252 9.07458 12.9758 9 12.28L5.6 8.87C4.61 9.72 3.78 10.78 3.18 12Z" fill="#BFBFBF"/>
</svg>
