<svg xmlns="http://www.w3.org/2000/svg" width="24" height="24" viewBox="0 0 24 24" fill="none">
  <path
    d="M5 21L19 21C20.11 21 21 20.11 21 19V15H19V19L5 19L5 5L19 5V9H21V5C21 4.46957 20.7893 3.96086 20.4142 3.58579C20.0391 3.21071 19.5304 3 19 3L5 3C4.46957 3 3.96086 3.21071 3.58579 3.58579C3.21071 3.96086 3 4.46957 3 5L3 19C3 19.5304 3.21071 20.0391 3.58579 20.4142C3.96086 20.7893 4.46957 21 5 21Z"
    fill="currentColor" />
  <path d="M13.42 8.42L12 7L7 12L12 17L13.42 15.59L10.83 13L21 13V11L10.83 11L13.42 8.42Z"
    fill="currentColor" />
</svg>