<svg viewBox="0 0 300 100" fill="none" xmlns="http://www.w3.org/2000/svg">
    <g clip-path="url(#clip0_1006_85)">
        <mask id="mask0_1006_85" style="mask-type:luminance" maskUnits="userSpaceOnUse" x="33" y="34" width="233"
              height="32">
            <path d="M266 34H33V66H266V34Z" fill="white"/>
        </mask>
        <g mask="url(#mask0_1006_85)">
            <path d="M39.6803 34.353H33V65.669H50.6148V60.0448H39.6803V34.353Z" fill="currentColor"/>
            <path d="M61.1831 52.3244H70.887V46.8481H61.1831V40.0081H72.6249V34.3618H54.5029V65.6778H72.669V60.0536H61.1831V52.3244Z"
                  fill="currentColor"/>
            <path d="M138.901 65.6734H145.554L136.953 34.3618H130.428L121.983 65.3314L121.893 65.6646H128.496L129.598 61.0774H137.798L138.901 65.6734ZM130.961 55.3649L133.678 44.079L136.404 55.3649H130.961Z"
                  fill="currentColor"/>
            <path d="M120.887 34.3618H101.022V40.0699H107.566V65.6822H114.328V40.0699H120.887V34.3618Z" fill="currentColor"/>
            <path d="M97.8711 53.1164C97.5142 52.149 96.9693 51.2618 96.2678 50.5062C95.5406 49.7408 94.6918 49.1011 93.7558 48.6131C92.7364 48.078 91.6714 47.635 90.5733 47.2892L86.866 46.0779C86.3698 45.9058 85.8427 45.7271 85.2979 45.5528C84.903 45.4333 84.5272 45.258 84.182 45.032C83.9004 44.8358 83.6668 44.5787 83.4983 44.2797C83.3134 43.8802 83.2287 43.4417 83.2513 43.0021C83.2512 42.6689 83.3266 42.34 83.4718 42.0401C83.6273 41.7236 83.8537 41.4472 84.1334 41.2325C84.5188 40.9408 84.9558 40.7244 85.4214 40.5949C86.0889 40.4044 86.7807 40.313 87.4747 40.3235C87.9263 40.325 88.3758 40.3866 88.8112 40.5066C89.2349 40.6191 89.6403 40.7914 90.0153 41.0185C90.3727 41.2501 90.6807 41.55 90.9218 41.9011C91.0453 42.071 91.2504 42.5079 91.2504 43.5316V44.9063H97.6991V43.5294C97.7171 42.2572 97.4925 40.9931 97.0375 39.805L97.0044 39.7366C96.5968 38.9224 96.0877 38.1632 95.4892 37.4772C94.875 36.7788 94.1617 36.1744 93.372 35.6833C92.549 35.1772 91.6578 34.7916 90.7255 34.5382C89.7003 34.2621 88.6422 34.127 87.5805 34.1366C86.0613 34.1153 84.5489 34.3434 83.1035 34.8118C81.845 35.222 80.6775 35.8716 79.6652 36.7248C78.7221 37.5286 77.9689 38.5316 77.4598 39.6615C76.9604 40.7858 76.7056 42.0035 76.7121 43.2338C76.6951 44.3391 76.8643 45.4393 77.2128 46.4883C77.5359 47.4269 78.0343 48.2954 78.6816 49.0478C79.3193 49.7789 80.0762 50.3966 80.9201 50.8747C81.7827 51.3619 82.6971 51.7511 83.646 52.0353L87.671 53.1738C88.1782 53.3371 88.7097 53.529 89.2523 53.7453C89.7193 53.9297 90.1598 54.1753 90.5623 54.4756C90.9063 54.7317 91.1969 55.0524 91.418 55.42C91.6166 55.7894 91.7119 56.2056 91.6937 56.6247C91.7027 57.049 91.6184 57.47 91.4467 57.8581C91.2843 58.202 91.0451 58.5039 90.7475 58.7407C90.3737 59.0236 89.9493 59.2325 89.4971 59.3563C88.8869 59.5255 88.2556 59.6065 87.6224 59.5968C86.9451 59.605 86.2696 59.5241 85.6133 59.3563C85.1136 59.2331 84.641 59.0184 84.2195 58.723C83.8856 58.4825 83.6141 58.1655 83.4277 57.7985C83.3615 57.6683 83.1432 57.1189 83.1432 55.5237V54.5197H76.7254V55.5215C76.735 56.7203 76.892 57.9134 77.1929 59.0738L77.204 59.1135C77.4757 59.9705 77.8457 60.7931 78.3067 61.5649C78.8303 62.4312 79.5083 63.194 80.307 63.8155C81.2088 64.507 82.2279 65.0302 83.3152 65.36C84.6492 65.7541 86.0355 65.9416 87.4262 65.916C88.8961 65.9295 90.3576 65.6938 91.7488 65.2188C93.0189 64.7861 94.1976 64.121 95.2246 63.2572C96.2039 62.426 96.998 61.3985 97.5557 60.241C98.1224 59.0513 98.412 57.7484 98.4026 56.4305C98.4206 55.3041 98.2384 54.1835 97.8645 53.1209L97.8711 53.1164Z"
                  fill="currentColor"/>
            <path d="M186.783 34.3311H183.695L173.389 65.6735H177.2L179.673 58.0723H190.856L193.353 65.6757H197.14L186.825 34.459L186.783 34.3311ZM180.828 54.5398L185.239 40.9504L189.701 54.5398H180.828Z"
                  fill="currentColor"/>
            <path d="M210.244 47.146L201.959 34.3311H198.884V65.6691H202.528L202.525 41.8285L209.153 52.0973L209.208 52.1833H211.272L217.888 41.8374V65.6691H221.532V34.3311H218.449L210.244 47.146Z"
                  fill="currentColor"/>
            <path d="M263.468 51.8722C261.955 50.5196 259.538 49.1406 256.285 47.7704C254.188 46.9099 252.642 46.2126 251.691 45.6963C250.943 45.3142 250.289 44.77 249.777 44.1033C249.38 43.5583 249.179 42.8169 249.179 41.8969C249.179 40.4605 249.62 39.419 250.546 38.7174C251.559 37.9495 253.103 37.5612 255.132 37.5612C257.43 37.5612 259.201 38.0422 260.394 38.9932C261.523 39.8912 262.07 41.0584 262.07 42.5588V45.1183H265.711V42.4705C265.711 39.8691 264.75 37.7686 262.844 36.2263C261.027 34.7502 258.471 34 255.255 34C252.262 34 249.898 34.6619 248.229 35.9968C246.464 37.3869 245.582 39.4014 245.582 41.9807C245.582 43.6002 245.959 44.9704 246.702 46.0516C247.458 47.1245 248.447 48.0118 249.596 48.6463C251.212 49.5245 252.872 50.317 254.571 51.0205C256.261 51.7182 257.9 52.5336 259.476 53.4608C260.522 54.1095 261.28 54.7847 261.735 55.462C262.165 56.1388 262.382 56.9288 262.359 57.7303C262.359 59.1998 261.854 60.3096 260.815 61.1238C259.712 62.0063 258.012 62.4476 255.793 62.4476C253.422 62.4476 251.563 61.9644 250.266 61.009C249.696 60.6179 249.234 60.0895 248.922 59.4724C248.611 58.8554 248.459 58.1698 248.482 57.4787V54.4449H244.923V57.5648C244.923 60.1529 245.944 62.2468 247.955 63.7891C249.869 65.2564 252.478 65.9956 255.709 65.9956C258.872 65.9956 261.388 65.2498 263.184 63.7891C265.054 62.2601 266 60.1949 266 57.6486C266 55.3186 265.151 53.377 263.468 51.8722Z"
                  fill="currentColor"/>
            <path d="M224.809 65.6691H243.752V62.1101H228.45V51.7421H240.907V48.2206H228.45V37.8525L243.752 37.8547V34.3311H224.809V65.6691Z"
                  fill="currentColor"/>
            <path d="M173.407 49.2112H162.069V52.7415H169.766V56.4484C169.766 58.2907 169.19 59.7095 168.001 60.7906C166.813 61.8718 165.172 62.4388 163.149 62.4388C161.127 62.4388 159.451 61.8718 158.24 60.7531C157.029 59.6345 156.458 58.2091 156.458 56.3667V43.6334C156.458 41.791 157.04 40.3568 158.24 39.247C159.44 38.1371 161.107 37.5612 163.149 37.5612C165.192 37.5612 166.797 38.1217 168.001 39.2249C169.206 40.3281 169.766 41.7491 169.766 43.5936V45.1381H173.407V43.6334C173.434 41.8828 172.993 40.1567 172.13 38.6336C171.268 37.1498 169.991 35.951 168.456 35.1849C166.791 34.4045 164.976 34 163.137 34C161.299 34 159.483 34.4045 157.819 35.1849C156.284 35.9503 155.002 37.1433 154.129 38.6203C153.245 40.1562 152.795 41.9033 152.826 43.6753V56.3248C152.795 58.0968 153.245 59.8439 154.129 61.3797C155.005 62.8575 156.29 64.0505 157.828 64.8152C159.492 65.5955 161.308 66.0001 163.146 66.0001C164.984 66.0001 166.8 65.5955 168.465 64.8152C169.999 64.0503 171.276 62.853 172.139 61.3709C173.006 59.8186 173.444 58.063 173.407 56.2851V49.2112Z"
                  fill="currentColor"/>
        </g>
    </g>
    <defs>
        <clipPath id="clip0_1006_85">
            <rect width="233" height="32" fill="currentColor" transform="translate(33 34)"/>
        </clipPath>
    </defs>
</svg>
