<svg width="24" height="24" viewBox="0 0 24 24" fill="none" xmlns="http://www.w3.org/2000/svg">
<path d="M15.6643 14.0014H14.866L14.583 13.7314C15.2145 13.0054 15.6761 12.1502 15.9347 11.2271C16.1932 10.3039 16.2424 9.33559 16.0786 8.39144C15.6037 5.61144 13.2592 3.39144 10.4298 3.05144C9.43501 2.92691 8.42466 3.02921 7.47601 3.35053C6.52737 3.67185 5.66557 4.20366 4.95658 4.90527C4.24758 5.60688 3.71017 6.4597 3.38547 7.39846C3.06077 8.33723 2.95739 9.33706 3.08323 10.3214C3.42681 13.1214 5.67018 15.4414 8.47944 15.9114C9.43353 16.0735 10.412 16.0248 11.3449 15.769C12.2778 15.5131 13.142 15.0564 13.8757 14.4314L14.1485 14.7114V15.5014L18.4432 19.7514C18.8575 20.1614 19.5346 20.1614 19.9489 19.7514C20.3632 19.3414 20.3632 18.6714 19.9489 18.2614L15.6643 14.0014ZM9.60113 14.0014C7.08492 14.0014 5.05376 11.9914 5.05376 9.50144C5.05376 7.01144 7.08492 5.00144 9.60113 5.00144C12.1173 5.00144 14.1485 7.01144 14.1485 9.50144C14.1485 11.9914 12.1173 14.0014 9.60113 14.0014Z" fill="#787878"/>
</svg>
