<svg width="910" height="188" fill="none" xmlns="http://www.w3.org/2000/svg"><path d="m910 187.289-5.794-3.346v-6.691l5.794-3.345 5.795 3.345v6.691L910 187.289zm0-92.785-5.794-3.346v-6.69L910 81.121l5.795 3.345v6.691L910 94.504zm0 46.394-5.794-3.345v-6.691l5.794-3.346 5.795 3.346v6.691L910 140.898zm0-92.785-5.794-3.345v-6.691L910 34.73l5.795 3.346v6.69L910 48.114zm0 115.981-5.794-3.346v-6.691l5.794-3.346 5.795 3.346v6.691L910 164.094zm0-92.785-5.794-3.346v-6.691L910 57.926l5.795 3.346v6.691L910 71.309zm0 46.39-5.794-3.345v-6.692l5.794-3.345 5.795 3.345v6.692L910 117.699zm0-92.785-5.794-3.346v-6.69L910 11.531l5.795 3.345v6.691L910 24.915zm-6.691 150.777-5.795-3.345v-6.691l5.795-3.346 5.795 3.346v6.691l-5.795 3.345zm0-92.785-5.795-3.345v-6.692l5.795-3.345 5.795 3.346v6.69l-5.795 3.346zm0 46.391-5.795-3.346v-6.691l5.795-3.345 5.795 3.345v6.691l-5.795 3.346zm0-92.781-5.795-3.346v-6.691l5.795-3.346 5.795 3.346v6.691l-5.795 3.346zm0 115.98-5.795-3.345v-6.692l5.795-3.345 5.795 3.345v6.692l-5.795 3.345zm0-92.786-5.795-3.345v-6.69l5.795-3.346 5.795 3.345v6.691l-5.795 3.346zm0 46.392-5.795-3.346v-6.691l5.795-3.346 5.795 3.346v6.691l-5.795 3.346zm0-92.786-5.795-3.345V3.28l5.795-3.346 5.795 3.346v6.69l-5.795 3.346zM695.883 187.289l-5.795-3.346v-6.691l5.795-3.345 5.795 3.345v6.691l-5.795 3.346zm-428.234 0-5.795-3.346v-6.691l5.795-3.345 5.794 3.345v6.691l-5.794 3.346zm428.234-92.785-5.795-3.346v-6.69l5.795-3.346 5.795 3.345v6.691l-5.795 3.346zm-428.234 0-5.795-3.346v-6.69l5.795-3.346 5.794 3.345v6.691l-5.794 3.346zm428.234 46.394-5.795-3.345v-6.691l5.795-3.346 5.795 3.346v6.691l-5.795 3.345zm-428.234 0-5.795-3.345v-6.691l5.795-3.346 5.794 3.346v6.691l-5.794 3.345zm428.234-92.785-5.795-3.345v-6.691l5.795-3.346 5.795 3.346v6.69l-5.795 3.346zm-428.234 0-5.795-3.345v-6.691l5.795-3.346 5.794 3.346v6.69l-5.794 3.346zm428.234 115.981-5.795-3.346v-6.691l5.795-3.346 5.795 3.346v6.691l-5.795 3.346zm-428.234 0-5.795-3.346v-6.691l5.795-3.346 5.794 3.346v6.691l-5.794 3.346zm428.234-92.785-5.795-3.346v-6.691l5.795-3.346 5.795 3.346v6.691l-5.795 3.346zm-428.234 0-5.795-3.346v-6.691l5.795-3.346 5.794 3.346v6.691l-5.794 3.346zm428.234 46.39-5.795-3.345v-6.692l5.795-3.345 5.795 3.345v6.692l-5.795 3.345zm-428.234 0-5.795-3.345v-6.692l5.795-3.345 5.794 3.345v6.692l-5.794 3.345zm428.234-92.785-5.795-3.346v-6.69l5.795-3.346 5.795 3.345v6.691l-5.795 3.346zm-428.234 0-5.795-3.346v-6.69l5.795-3.346 5.794 3.345v6.691l-5.794 3.346zm421.543 150.777-5.795-3.345v-6.691l5.795-3.346 5.794 3.346v6.691l-5.794 3.345zm-428.235 0-5.794-3.345v-6.691l5.794-3.346 5.795 3.346v6.691l-5.795 3.345zm428.235-92.785-5.795-3.345v-6.692l5.795-3.345 5.794 3.346v6.69l-5.794 3.346zm-428.235 0-5.794-3.345v-6.692l5.794-3.345 5.795 3.346v6.69l-5.795 3.346zm428.235 46.391-5.795-3.346v-6.691l5.795-3.345 5.794 3.345v6.691l-5.794 3.346zm-428.235 0-5.794-3.346v-6.691l5.794-3.345 5.795 3.345v6.691l-5.795 3.346zm428.235-92.781-5.795-3.346v-6.691l5.795-3.346 5.794 3.346v6.691l-5.794 3.346zm-428.235 0-5.794-3.346v-6.691l5.794-3.346 5.795 3.346v6.691l-5.795 3.346zm428.235 115.98-5.795-3.345v-6.692l5.795-3.345 5.794 3.345v6.692l-5.794 3.345zm-428.235 0-5.794-3.345v-6.692l5.794-3.345 5.795 3.345v6.692l-5.795 3.345zM689.192 59.71l-5.795-3.345v-6.69l5.795-3.346 5.794 3.345v6.691l-5.794 3.346zm-428.235 0-5.794-3.345v-6.69l5.794-3.346 5.795 3.345v6.691l-5.795 3.346zm428.235 46.392-5.795-3.346v-6.691l5.795-3.346 5.794 3.346v6.691l-5.794 3.346zm-428.235 0-5.794-3.346v-6.691l5.794-3.346 5.795 3.346v6.691l-5.795 3.346zm428.235-92.786-5.795-3.345V3.28l5.795-3.346 5.794 3.346v6.69l-5.794 3.346zm-428.235 0-5.794-3.345V3.28l5.794-3.346 5.795 3.346v6.69l-5.795 3.346zm541.985 173.973-5.795-3.346v-6.691l5.795-3.345 5.794 3.345v6.691l-5.794 3.346zm-428.235 0-5.794-3.346v-6.691l5.794-3.345 5.795 3.345v6.691l-5.795 3.346zm428.235-92.785-5.795-3.346v-6.69l5.795-3.346 5.794 3.345v6.691l-5.794 3.346zm-428.235 0-5.794-3.346v-6.69l5.794-3.346 5.795 3.345v6.691l-5.795 3.346zm428.235 46.394-5.795-3.345v-6.691l5.795-3.346 5.794 3.346v6.691l-5.794 3.345zm-428.235 0-5.794-3.345v-6.691l5.794-3.346 5.795 3.346v6.691l-5.795 3.345zm428.235-92.785-5.795-3.345v-6.691l5.795-3.346 5.794 3.346v6.69l-5.794 3.346zm-428.235 0-5.794-3.345v-6.691l5.794-3.346 5.795 3.346v6.69l-5.795 3.346zm428.235 115.981-5.795-3.346v-6.691l5.795-3.346 5.794 3.346v6.691l-5.794 3.346zm-428.235 0-5.794-3.346v-6.691l5.794-3.346 5.795 3.346v6.691l-5.795 3.346zm428.235-92.785-5.795-3.346v-6.691l5.795-3.346 5.794 3.346v6.691l-5.794 3.346zm-428.235 0-5.794-3.346v-6.691l5.794-3.346 5.795 3.346v6.691l-5.795 3.346zm428.235 46.39-5.795-3.345v-6.692l5.795-3.345 5.794 3.345v6.692l-5.794 3.345zm-428.235 0-5.794-3.345v-6.692l5.794-3.345 5.795 3.345v6.692l-5.795 3.345zm428.235-92.785-5.795-3.346v-6.69l5.795-3.346 5.794 3.345v6.691l-5.794 3.346zm-428.235 0-5.794-3.346v-6.69l5.794-3.346 5.795 3.345v6.691l-5.795 3.346zM796.25 175.691l-5.794-3.345v-6.691l5.794-3.346 5.795 3.346v6.691l-5.795 3.345zm-428.234 0-5.795-3.345v-6.691l5.795-3.346 5.795 3.346v6.691l-5.795 3.345zM796.25 82.906l-5.794-3.345v-6.692l5.794-3.345 5.795 3.346v6.69l-5.795 3.346zm-428.234 0-5.795-3.345v-6.692l5.795-3.345 5.795 3.346v6.69l-5.795 3.346zm428.234 46.391-5.794-3.346v-6.691l5.794-3.345 5.795 3.345v6.691l-5.795 3.346zm-428.234 0-5.795-3.346v-6.691l5.795-3.345 5.795 3.345v6.691l-5.795 3.346zM796.25 36.516l-5.794-3.346v-6.691l5.794-3.346 5.795 3.346v6.691l-5.795 3.346zm-428.234 0-5.795-3.346v-6.691l5.795-3.346 5.795 3.346v6.691l-5.795 3.346zm428.234 115.98-5.794-3.345v-6.692l5.794-3.345 5.795 3.345v6.692l-5.795 3.345zm-428.234 0-5.795-3.345v-6.692l5.795-3.345 5.795 3.345v6.692l-5.795 3.345zM796.25 59.71l-5.794-3.345v-6.69l5.794-3.346 5.795 3.345v6.691l-5.795 3.346zm-428.234 0-5.795-3.345v-6.69l5.795-3.346 5.795 3.345v6.691l-5.795 3.346zm428.234 46.392-5.794-3.346v-6.691l5.794-3.346 5.795 3.346v6.691l-5.795 3.346zm-428.234 0-5.795-3.346v-6.691l5.795-3.346 5.795 3.346v6.691l-5.795 3.346zM796.25 13.316l-5.794-3.345V3.28l5.794-3.346 5.795 3.346v6.69l-5.795 3.346zm-428.234 0-5.795-3.345V3.28l5.795-3.346 5.795 3.346v6.69l-5.795 3.346zm220.808 173.973-5.794-3.346v-6.691l5.794-3.345 5.795 3.345v6.691l-5.795 3.346zm-428.234 0-5.795-3.346v-6.691l5.795-3.345 5.795 3.345v6.691l-5.795 3.346zm428.234-92.785-5.794-3.346v-6.69l5.794-3.346 5.795 3.345v6.691l-5.795 3.346zm-428.234 0-5.795-3.346v-6.69l5.795-3.346 5.795 3.345v6.691l-5.795 3.346zm428.234 46.394-5.794-3.345v-6.691l5.794-3.346 5.795 3.346v6.691l-5.795 3.345zm-428.234 0-5.795-3.345v-6.691l5.795-3.346 5.795 3.346v6.691l-5.795 3.345zm428.234-92.785-5.794-3.345v-6.691l5.794-3.346 5.795 3.346v6.69l-5.795 3.346zm-428.234 0-5.795-3.345v-6.691l5.795-3.346 5.795 3.346v6.69l-5.795 3.346zm428.234 115.981-5.794-3.346v-6.691l5.794-3.346 5.795 3.346v6.691l-5.795 3.346zm-428.234 0-5.795-3.346v-6.691l5.795-3.346 5.795 3.346v6.691l-5.795 3.346zm428.234-92.785-5.794-3.346v-6.691l5.794-3.346 5.795 3.346v6.691l-5.795 3.346zm-428.234 0-5.795-3.346v-6.691l5.795-3.346 5.795 3.346v6.691l-5.795 3.346zm428.234 46.39-5.794-3.345v-6.692l5.794-3.345 5.795 3.345v6.692l-5.795 3.345zm-428.234 0-5.795-3.345v-6.692l5.795-3.345 5.795 3.345v6.692l-5.795 3.345zm428.234-92.785-5.794-3.346v-6.69l5.794-3.346 5.795 3.345v6.691l-5.795 3.346zm-428.234 0-5.795-3.346v-6.69l5.795-3.346 5.795 3.345v6.691l-5.795 3.346zm421.543 150.777-5.795-3.345v-6.691l5.795-3.346 5.795 3.346v6.691l-5.795 3.345zm-428.234 0-5.795-3.345v-6.691l5.795-3.346 5.794 3.346v6.691l-5.794 3.345zm428.234-92.785-5.795-3.345v-6.692l5.795-3.345 5.795 3.346v6.69l-5.795 3.346zm-428.234 0-5.795-3.345v-6.692l5.795-3.345 5.794 3.346v6.69l-5.794 3.346zm428.234 46.391-5.795-3.346v-6.691l5.795-3.345 5.795 3.345v6.691l-5.795 3.346zm-428.234 0-5.795-3.346v-6.691l5.795-3.345 5.794 3.345v6.691l-5.794 3.346zm428.234-92.781-5.795-3.346v-6.691l5.795-3.346 5.795 3.346v6.691l-5.795 3.346zm-428.234 0-5.795-3.346v-6.691l5.795-3.346 5.794 3.346v6.691l-5.794 3.346zm428.234 115.98-5.795-3.345v-6.692l5.795-3.345 5.795 3.345v6.692l-5.795 3.345zm-428.234 0-5.795-3.345v-6.692l5.795-3.345 5.794 3.345v6.692l-5.794 3.345zM582.133 59.71l-5.795-3.345v-6.69l5.795-3.346 5.795 3.345v6.691l-5.795 3.346zm-428.234 0-5.795-3.345v-6.69l5.795-3.346 5.794 3.345v6.691l-5.794 3.346zm428.234 46.392-5.795-3.346v-6.691l5.795-3.346 5.795 3.346v6.691l-5.795 3.346zm-428.234 0-5.795-3.346v-6.691l5.795-3.346 5.794 3.346v6.691l-5.794 3.346zm428.234-92.786-5.795-3.345V3.28l5.795-3.346 5.795 3.346v6.69l-5.795 3.346zm-428.234 0-5.795-3.345V3.28l5.795-3.346 5.794 3.346v6.69l-5.794 3.346zm702.57 173.973-5.795-3.346v-6.691l5.795-3.345 5.795 3.345v6.691l-5.795 3.346zm0-92.785-5.795-3.346v-6.69l5.795-3.346 5.795 3.345v6.691l-5.795 3.346zm0 46.394-5.795-3.345v-6.691l5.795-3.346 5.795 3.346v6.691l-5.795 3.345zm0-92.785-5.795-3.345v-6.691l5.795-3.346 5.795 3.346v6.69l-5.795 3.346zm0 115.981-5.795-3.346v-6.691l5.795-3.346 5.795 3.346v6.691l-5.795 3.346zm0-92.785-5.795-3.346v-6.691l5.795-3.346 5.795 3.346v6.691l-5.795 3.346zm0 46.39-5.795-3.345v-6.692l5.795-3.345 5.795 3.345v6.692l-5.795 3.345zm0-92.785-5.795-3.346v-6.69l5.795-3.346 5.795 3.345v6.691l-5.795 3.346zm-6.688 150.777-5.794-3.345v-6.691l5.794-3.346 5.795 3.346v6.691l-5.795 3.345zm-428.238 0-5.795-3.345v-6.691l5.795-3.346 5.795 3.346v6.691l-5.795 3.345zm428.238-92.785-5.794-3.345v-6.692l5.794-3.345 5.795 3.346v6.69l-5.795 3.346zm-428.238 0-5.795-3.345v-6.692l5.795-3.345 5.795 3.346v6.69l-5.795 3.346zm428.238 46.391-5.794-3.346v-6.691l5.794-3.345 5.795 3.345v6.691l-5.795 3.346zm-428.238 0-5.795-3.346v-6.691l5.795-3.345 5.795 3.345v6.691l-5.795 3.346zm428.238-92.781-5.794-3.346v-6.691l5.794-3.346 5.795 3.346v6.691l-5.795 3.346zm-428.238 0-5.795-3.346v-6.691l5.795-3.346 5.795 3.346v6.691l-5.795 3.346zm428.238 115.98-5.794-3.345v-6.692l5.794-3.345 5.795 3.345v6.692l-5.795 3.345zm-428.238 0-5.795-3.345v-6.692l5.795-3.345 5.795 3.345v6.692l-5.795 3.345zM849.781 59.71l-5.794-3.345v-6.69l5.794-3.346 5.795 3.345v6.691l-5.795 3.346zm-428.238 0-5.795-3.345v-6.69l5.795-3.346 5.795 3.345v6.691l-5.795 3.346zm428.238 46.392-5.794-3.346v-6.691l5.794-3.346 5.795 3.346v6.691l-5.795 3.346zm-428.238 0-5.795-3.346v-6.691l5.795-3.346 5.795 3.346v6.691l-5.795 3.346zm428.238-92.786-5.794-3.345V3.28l5.794-3.346 5.795 3.346v6.69l-5.795 3.346zm-428.238 0-5.795-3.345V3.28l5.795-3.346 5.795 3.346v6.69l-5.795 3.346zm220.809 173.973-5.795-3.346v-6.691l5.795-3.345 5.795 3.345v6.691l-5.795 3.346zm-428.235 0-5.794-3.346v-6.691l5.794-3.345 5.795 3.345v6.691l-5.795 3.346zm428.235-92.785-5.795-3.346v-6.69l5.795-3.346 5.795 3.345v6.691l-5.795 3.346zm-428.235 0-5.794-3.346v-6.69l5.794-3.346 5.795 3.345v6.691l-5.795 3.346zm428.235 46.394-5.795-3.345v-6.691l5.795-3.346 5.795 3.346v6.691l-5.795 3.345zm-428.235 0-5.794-3.345v-6.691l5.794-3.346 5.795 3.346v6.691l-5.795 3.345zm428.235-92.785-5.795-3.345v-6.691l5.795-3.346 5.795 3.346v6.69l-5.795 3.346zm-428.235 0-5.794-3.345v-6.691l5.794-3.346 5.795 3.346v6.69l-5.795 3.346zm428.235 115.981-5.795-3.346v-6.691l5.795-3.346 5.795 3.346v6.691l-5.795 3.346zm-428.235 0-5.794-3.346v-6.691l5.794-3.346 5.795 3.346v6.691l-5.795 3.346zm428.235-92.785-5.795-3.346v-6.691l5.795-3.346 5.795 3.346v6.691l-5.795 3.346zm-428.235 0-5.794-3.346v-6.691l5.794-3.346 5.795 3.346v6.691l-5.795 3.346zm428.235 46.39-5.795-3.345v-6.692l5.795-3.345 5.795 3.345v6.692l-5.795 3.345zm-428.235 0-5.794-3.345v-6.692l5.794-3.345 5.795 3.345v6.692l-5.795 3.345zm428.235-92.785-5.795-3.346v-6.69l5.795-3.346 5.795 3.345v6.691l-5.795 3.346zm-428.235 0-5.794-3.346v-6.69l5.794-3.346 5.795 3.345v6.691l-5.795 3.346zM635.66 175.691l-5.794-3.345v-6.691l5.794-3.346 5.795 3.346v6.691l-5.795 3.345zm-428.23 0-5.795-3.345v-6.691l5.795-3.346 5.795 3.346v6.691l-5.795 3.345zm428.23-92.785-5.794-3.345v-6.692l5.794-3.345 5.795 3.346v6.69l-5.795 3.346zm-428.234 0-5.795-3.345v-6.692l5.795-3.345 5.795 3.346v6.69l-5.795 3.346zm428.234 46.391-5.794-3.346v-6.691l5.794-3.345 5.795 3.345v6.691l-5.795 3.346zm-428.234 0-5.795-3.346v-6.691l5.795-3.345 5.795 3.345v6.691l-5.795 3.346zM635.66 36.516l-5.794-3.346v-6.691l5.794-3.346 5.795 3.346v6.691l-5.795 3.346zm-428.234 0-5.795-3.346v-6.691l5.795-3.346 5.795 3.346v6.691l-5.795 3.346zm428.234 115.98-5.794-3.345v-6.692l5.794-3.345 5.795 3.345v6.692l-5.795 3.345zm-428.234 0-5.795-3.345v-6.692l5.795-3.345 5.795 3.345v6.692l-5.795 3.345zM635.66 59.71l-5.794-3.345v-6.69l5.794-3.346 5.795 3.345v6.691l-5.795 3.346zm-428.234 0-5.795-3.345v-6.69l5.795-3.346 5.795 3.345v6.691l-5.795 3.346zm428.234 46.392-5.794-3.346v-6.691l5.794-3.346 5.795 3.346v6.691l-5.795 3.346zm-428.234 0-5.795-3.346v-6.691l5.795-3.346 5.795 3.346v6.691l-5.795 3.346zM635.66 13.316l-5.794-3.345V3.28l5.794-3.346 5.795 3.346v6.69l-5.795 3.346zm-428.234 0-5.795-3.345V3.28l5.795-3.346 5.795 3.346v6.69l-5.795 3.346zM749.41 187.289l-5.794-3.346v-6.691l5.794-3.345 5.795 3.345v6.691l-5.795 3.346zm-428.234 0-5.795-3.346v-6.691l5.795-3.345 5.795 3.345v6.691l-5.795 3.346zM749.41 94.504l-5.794-3.346v-6.69l5.794-3.346 5.795 3.345v6.691l-5.795 3.346zm-428.234 0-5.795-3.346v-6.69l5.795-3.346 5.795 3.345v6.691l-5.795 3.346zm428.234 46.394-5.794-3.345v-6.691l5.794-3.346 5.795 3.346v6.691l-5.795 3.345zm-428.234 0-5.795-3.345v-6.691l5.795-3.346 5.795 3.346v6.691l-5.795 3.345zM749.41 48.113l-5.794-3.345v-6.691l5.794-3.346 5.795 3.346v6.69l-5.795 3.346zm-428.234 0-5.795-3.345v-6.691l5.795-3.346 5.795 3.346v6.69l-5.795 3.346zM749.41 164.094l-5.794-3.346v-6.691l5.794-3.346 5.795 3.346v6.691l-5.795 3.346zm-428.234 0-5.795-3.346v-6.691l5.795-3.346 5.795 3.346v6.691l-5.795 3.346zM749.41 71.309l-5.794-3.346v-6.691l5.794-3.346 5.795 3.346v6.691l-5.795 3.346zm-428.234 0-5.795-3.346v-6.691l5.795-3.346 5.795 3.346v6.691l-5.795 3.346zm428.234 46.39-5.794-3.345v-6.692l5.794-3.345 5.795 3.345v6.692l-5.795 3.345zm-428.234 0-5.795-3.345v-6.692l5.795-3.345 5.795 3.345v6.692l-5.795 3.345zM749.41 24.914l-5.794-3.346v-6.69l5.794-3.346 5.795 3.345v6.691l-5.795 3.346zm-428.234 0-5.795-3.346v-6.69l5.795-3.346 5.795 3.345v6.691l-5.795 3.346zm421.543 150.777-5.795-3.345v-6.691l5.795-3.346 5.795 3.346v6.691l-5.795 3.345zm-428.234 0-5.795-3.345v-6.691l5.795-3.346 5.794 3.346v6.691l-5.794 3.345zm428.234-92.785-5.795-3.345v-6.692l5.795-3.345 5.795 3.346v6.69l-5.795 3.346zm-428.234 0-5.795-3.345v-6.692l5.795-3.345 5.794 3.346v6.69l-5.794 3.346zm428.234 46.391-5.795-3.346v-6.691l5.795-3.345 5.795 3.345v6.691l-5.795 3.346zm-428.234 0-5.795-3.346v-6.691l5.795-3.345 5.794 3.345v6.691l-5.794 3.346zm428.234-92.781-5.795-3.346v-6.691l5.795-3.346 5.795 3.346v6.691l-5.795 3.346zm-428.234 0-5.795-3.346v-6.691l5.795-3.346 5.794 3.346v6.691l-5.794 3.346zm428.234 115.98-5.795-3.345v-6.692l5.795-3.345 5.795 3.345v6.692l-5.795 3.345zm-428.234 0-5.795-3.345v-6.692l5.795-3.345 5.794 3.345v6.692l-5.794 3.345zM742.719 59.71l-5.795-3.345v-6.69l5.795-3.346 5.795 3.345v6.691l-5.795 3.346zm-428.234 0-5.795-3.345v-6.69l5.795-3.346 5.794 3.345v6.691l-5.794 3.346zm428.234 46.392-5.795-3.346v-6.691l5.795-3.346 5.795 3.346v6.691l-5.795 3.346zm-428.234 0-5.795-3.346v-6.691l5.795-3.346 5.794 3.346v6.691l-5.794 3.346zm428.234-92.786-5.795-3.345V3.28l5.795-3.346 5.795 3.346v6.69l-5.795 3.346zm-428.234 0-5.795-3.345V3.28l5.795-3.346 5.794 3.346v6.69l-5.794 3.346zm220.808 173.973-5.795-3.346v-6.691l5.795-3.345 5.795 3.345v6.691l-5.795 3.346zm-428.234 0-5.795-3.346v-6.691l5.795-3.345 5.795 3.345v6.691l-5.795 3.346zM434.926-.062l5.794 3.345v6.691l-5.794 3.346-5.795-3.346v-6.69l5.795-3.346zM6.691-.066l5.795 3.345V9.97L6.69 13.316.896 9.97V3.28L6.691-.067zm528.602 94.57-5.795-3.346v-6.69l5.795-3.346 5.795 3.345v6.691l-5.795 3.346zm-428.234 0-5.795-3.346v-6.69l5.795-3.346 5.795 3.345v6.691l-5.795 3.346zm327.867-1.785 5.794 3.345v6.692l-5.794 3.345-5.795-3.345v-6.692l5.795-3.345zm-428.235 0 5.795 3.345v6.692l-5.795 3.345-5.795-3.345v-6.692l5.795-3.345zm528.602 48.179-5.795-3.345v-6.691l5.795-3.346 5.795 3.346v6.691l-5.795 3.345zm-428.234 0-5.795-3.345v-6.691l5.795-3.346 5.795 3.346v6.691l-5.795 3.345zm327.867-94.57 5.794 3.346v6.69l-5.794 3.347-5.795-3.346v-6.691l5.795-3.346zm-428.235 0 5.795 3.346v6.69L6.69 59.712.896 56.365v-6.691l5.795-3.346zm528.602 1.785-5.795-3.345v-6.691l5.795-3.346 5.795 3.346v6.69l-5.795 3.346zm-428.234 0-5.795-3.345v-6.691l5.795-3.346 5.795 3.346v6.69l-5.795 3.346zm327.867 91 5.794 3.346v6.691l-5.794 3.346-5.795-3.346v-6.691l5.795-3.346zm-428.235 0 5.795 3.346v6.691l-5.795 3.346-5.795-3.346v-6.691l5.795-3.346zm528.602 24.981-5.795-3.346v-6.691l5.795-3.346 5.795 3.346v6.691l-5.795 3.346zm-428.234 0-5.795-3.346v-6.691l5.795-3.346 5.795 3.346v6.691l-5.795 3.346zM434.926 23.133l5.794 3.345v6.692l-5.794 3.345-5.795-3.345v-6.692l5.795-3.345zm-428.235 0 5.795 3.345v6.692L6.69 36.515.896 33.17v-6.692l5.795-3.345zm528.602 48.176-5.795-3.346v-6.691l5.795-3.346 5.795 3.346v6.691l-5.795 3.346zm-428.234 0-5.795-3.346v-6.691l5.795-3.346 5.795 3.346v6.691l-5.795 3.346zm327.867 44.609 5.794 3.346v6.691l-5.794 3.345-5.795-3.345v-6.691l5.795-3.346zm-428.235 0 5.795 3.346v6.691L6.69 129.3l-5.795-3.345v-6.691l5.795-3.346zm528.602 1.781-5.795-3.345v-6.692l5.795-3.345 5.795 3.345v6.692l-5.795 3.345zm-428.234 0-5.795-3.345v-6.692l5.795-3.345 5.795 3.345v6.692l-5.795 3.345zm327.867-48.176 5.794 3.346v6.691l-5.794 3.346-5.795-3.346v-6.69l5.795-3.346zm-428.235 0 5.795 3.346v6.691L6.69 82.906.896 79.56v-6.69l5.795-3.346zm528.602-44.609-5.795-3.346v-6.69l5.795-3.346 5.795 3.345v6.691l-5.795 3.346zm-428.234 0-5.795-3.346v-6.69l5.795-3.346 5.795 3.345v6.691l-5.795 3.346zm327.867 137.395 5.794 3.345v6.691l-5.794 3.346-5.795-3.346v-6.691l5.795-3.345zm-428.235 0 5.795 3.345v6.691l-5.795 3.346-5.795-3.346v-6.691l5.795-3.345zm521.915 13.382-5.795-3.345v-6.691l5.795-3.346 5.794 3.346v6.691l-5.794 3.345zm-428.239 0-5.794-3.345v-6.691l5.794-3.346 5.795 3.346v6.691l-5.795 3.345zm341.25-164.156 5.795 3.346v6.69l-5.795 3.346-5.795-3.345V14.88l5.795-3.346zm-428.234 0 5.794 3.346v6.69l-5.794 3.346-5.795-3.345V14.88l5.795-3.346zm515.223 71.371-5.795-3.345v-6.692l5.795-3.345 5.794 3.346v6.69l-5.794 3.346zm-428.239 0-5.794-3.345v-6.692l5.794-3.345 5.795 3.346v6.69l-5.795 3.346zm341.25 21.414 5.795 3.346v6.691l-5.795 3.346-5.795-3.346v-6.691l5.795-3.346zm-428.234-.004 5.794 3.346v6.691l-5.794 3.346-5.795-3.346v-6.691l5.795-3.346zm515.223 24.981-5.795-3.346v-6.691l5.795-3.345 5.794 3.345v6.691l-5.794 3.346zm-428.239 0-5.794-3.346v-6.691l5.794-3.345 5.795 3.345v6.691l-5.795 3.346zm341.25-71.371 5.795 3.345v6.692l-5.795 3.345-5.795-3.346v-6.69l5.795-3.346zm-428.234 0 5.794 3.345v6.692l-5.794 3.345-5.795-3.346v-6.69l5.795-3.346zm515.223-21.41-5.795-3.346v-6.691l5.795-3.346 5.794 3.346v6.691l-5.794 3.346zm-428.239 0-5.794-3.346v-6.691l5.794-3.346 5.795 3.346v6.691l-5.795 3.346zm341.25 114.195 5.795 3.346v6.691l-5.795 3.345-5.795-3.345v-6.691l5.795-3.346zm-428.234 0 5.794 3.346v6.691l-5.794 3.345-5.795-3.345v-6.691l5.795-3.346zm515.223 1.785-5.795-3.345v-6.692l5.795-3.345 5.794 3.345v6.692l-5.794 3.345zm-428.239 0-5.794-3.345v-6.692l5.794-3.345 5.795 3.345v6.692l-5.795 3.345zM441.617 34.73l5.795 3.346v6.691l-5.795 3.346-5.795-3.346v-6.69l5.795-3.346zm-428.234 0 5.794 3.346v6.691l-5.794 3.346-5.795-3.346v-6.69l5.795-3.346zm515.223 24.98-5.795-3.345v-6.69l5.795-3.346 5.794 3.345v6.691l-5.794 3.346zm-428.239 0-5.794-3.345v-6.69l5.794-3.346 5.795 3.345v6.691l-5.795 3.346zm341.25 67.806 5.795 3.345v6.691l-5.795 3.346-5.795-3.346v-6.691l5.795-3.345zm-428.234 0 5.794 3.345v6.691l-5.794 3.346-5.795-3.346v-6.691l5.795-3.345zm515.223-21.414-5.795-3.346v-6.691l5.795-3.346 5.794 3.346v6.691l-5.794 3.346zm-428.239 0-5.794-3.346v-6.691l5.794-3.346 5.795 3.346v6.691l-5.795 3.346zm341.25-24.981 5.795 3.346v6.69l-5.795 3.346-5.795-3.345v-6.691l5.795-3.346zm-428.234 0 5.794 3.346v6.69l-5.794 3.346-5.795-3.345v-6.691l5.795-3.346zm515.223-67.805-5.795-3.345V3.28l5.795-3.346L534.4 3.28v6.69l-5.794 3.346zm-428.239 0-5.794-3.345V3.28l5.794-3.346 5.795 3.346v6.69l-5.795 3.346zm341.25 160.59 5.795 3.346v6.691l-5.795 3.346-5.795-3.346v-6.691l5.795-3.346zm-428.234 0 5.794 3.346v6.691l-5.794 3.346-5.795-3.346v-6.691l5.795-3.346zm883.234 13.383-5.794-3.346v-6.691l5.794-3.345 5.795 3.345v6.691l-5.795 3.346zm0-92.785-5.794-3.346v-6.69l5.794-3.346 5.795 3.345v6.691l-5.795 3.346zm0 46.394-5.794-3.345v-6.691l5.794-3.346 5.795 3.346v6.691l-5.795 3.345zm0-92.785-5.794-3.345v-6.691l5.794-3.346 5.795 3.346v6.69l-5.795 3.346zm0 115.981-5.794-3.346v-6.691l5.794-3.346 5.795 3.346v6.691l-5.795 3.346zm0-92.785-5.794-3.346v-6.691l5.794-3.346 5.795 3.346v6.691l-5.795 3.346zm0 46.39-5.794-3.345v-6.692l5.794-3.345 5.795 3.345v6.692l-5.795 3.345zm0-92.785-5.794-3.346v-6.69l5.794-3.346 5.795 3.345v6.691l-5.795 3.346zm-6.691 150.777-5.795-3.345v-6.691l5.795-3.346 5.795 3.346v6.691l-5.795 3.345zm0-92.785-5.795-3.345v-6.692l5.795-3.345 5.795 3.346v6.69l-5.795 3.346zm0 46.391-5.795-3.346v-6.691l5.795-3.345 5.795 3.345v6.691l-5.795 3.346zm0-92.781-5.795-3.346v-6.691l5.795-3.346 5.795 3.346v6.691l-5.795 3.346zm0 115.98-5.795-3.345v-6.692l5.795-3.345 5.795 3.345v6.692l-5.795 3.345zm0-92.786-5.795-3.345v-6.69l5.795-3.346 5.795 3.345v6.691l-5.795 3.346zm0 46.392-5.795-3.346v-6.691l5.795-3.346 5.795 3.346v6.691l-5.795 3.346zm0-92.786-5.795-3.345V3.28l5.795-3.346 5.795 3.346v6.69l-5.795 3.346zM682.5 187.289l-5.794-3.346v-6.691l5.794-3.345 5.795 3.345v6.691l-5.795 3.346zm-428.234 0-5.795-3.346v-6.691l5.795-3.345 5.795 3.345v6.691l-5.795 3.346zM682.5 94.504l-5.794-3.346v-6.69l5.794-3.346 5.795 3.345v6.691l-5.795 3.346zm-428.234 0-5.795-3.346v-6.69l5.795-3.346 5.795 3.345v6.691l-5.795 3.346zM682.5 140.898l-5.794-3.345v-6.691l5.794-3.346 5.795 3.346v6.691l-5.795 3.345zm-428.234 0-5.795-3.345v-6.691l5.795-3.346 5.795 3.346v6.691l-5.795 3.345zM682.5 48.113l-5.794-3.345v-6.691l5.794-3.346 5.795 3.346v6.69l-5.795 3.346zm-428.234 0-5.795-3.345v-6.691l5.795-3.346 5.795 3.346v6.69l-5.795 3.346zM682.5 164.094l-5.794-3.346v-6.691l5.794-3.346 5.795 3.346v6.691l-5.795 3.346zm-428.234 0-5.795-3.346v-6.691l5.795-3.346 5.795 3.346v6.691l-5.795 3.346zM682.5 71.309l-5.794-3.346v-6.691l5.794-3.346 5.795 3.346v6.691l-5.795 3.346zm-428.234 0-5.795-3.346v-6.691l5.795-3.346 5.795 3.346v6.691l-5.795 3.346zm428.234 46.39-5.794-3.345v-6.692l5.794-3.345 5.795 3.345v6.692l-5.795 3.345zm-428.234 0-5.795-3.345v-6.692l5.795-3.345 5.795 3.345v6.692l-5.795 3.345zM682.5 24.914l-5.794-3.346v-6.69l5.794-3.346 5.795 3.345v6.691l-5.795 3.346zm-428.234 0-5.795-3.346v-6.69l5.795-3.346 5.795 3.345v6.691l-5.795 3.346zm421.543 150.777-5.795-3.345v-6.691l5.795-3.346 5.795 3.346v6.691l-5.795 3.345zm-428.235 0-5.794-3.345v-6.691l5.794-3.346 5.795 3.346v6.691l-5.795 3.345zm428.235-92.785-5.795-3.345v-6.692l5.795-3.345 5.795 3.346v6.69l-5.795 3.346zm-428.235 0-5.794-3.345v-6.692l5.794-3.345 5.795 3.346v6.69l-5.795 3.346zm428.235 46.391-5.795-3.346v-6.691l5.795-3.345 5.795 3.345v6.691l-5.795 3.346zm-428.235 0-5.794-3.346v-6.691l5.794-3.345 5.795 3.345v6.691l-5.795 3.346zm428.235-92.781-5.795-3.346v-6.691l5.795-3.346 5.795 3.346v6.691l-5.795 3.346zm-428.235 0-5.794-3.346v-6.691l5.794-3.346 5.795 3.346v6.691l-5.795 3.346zm428.235 115.98-5.795-3.345v-6.692l5.795-3.345 5.795 3.345v6.692l-5.795 3.345zm-428.235 0-5.794-3.345v-6.692l5.794-3.345 5.795 3.345v6.692l-5.795 3.345zM675.809 59.71l-5.795-3.345v-6.69l5.795-3.346 5.795 3.345v6.691l-5.795 3.346zm-428.235 0-5.794-3.345v-6.69l5.794-3.346 5.795 3.345v6.691l-5.795 3.346zm428.235 46.392-5.795-3.346v-6.691l5.795-3.346 5.795 3.346v6.691l-5.795 3.346zm-428.235 0-5.794-3.346v-6.691l5.794-3.346 5.795 3.346v6.691l-5.795 3.346zm428.235-92.786-5.795-3.345V3.28l5.795-3.346 5.795 3.346v6.69l-5.795 3.346zm-428.235 0-5.794-3.345V3.28l5.794-3.346 5.795 3.346v6.69l-5.795 3.346zm541.985 173.973-5.795-3.346v-6.691l5.795-3.345 5.795 3.345v6.691l-5.795 3.346zm-428.235 0-5.794-3.346v-6.691l5.794-3.345 5.795 3.345v6.691l-5.795 3.346zm428.235-92.785-5.795-3.346v-6.69l5.795-3.346 5.795 3.345v6.691l-5.795 3.346zm-428.235 0-5.794-3.346v-6.69l5.794-3.346 5.795 3.345v6.691l-5.795 3.346zm428.235 46.394-5.795-3.345v-6.691l5.795-3.346 5.795 3.346v6.691l-5.795 3.345zm-428.235 0-5.794-3.345v-6.691l5.794-3.346 5.795 3.346v6.691l-5.795 3.345zm428.235-92.785-5.795-3.345v-6.691l5.795-3.346 5.795 3.346v6.69l-5.795 3.346zm-428.235 0-5.794-3.345v-6.691l5.794-3.346 5.795 3.346v6.69l-5.795 3.346zm428.235 115.981-5.795-3.346v-6.691l5.795-3.346 5.795 3.346v6.691l-5.795 3.346zm-428.235 0-5.794-3.346v-6.691l5.794-3.346 5.795 3.346v6.691l-5.795 3.346zm428.235-92.785-5.795-3.346v-6.691l5.795-3.346 5.795 3.346v6.691l-5.795 3.346zm-428.235 0-5.794-3.346v-6.691l5.794-3.346 5.795 3.346v6.691l-5.795 3.346zm428.235 46.39-5.795-3.345v-6.692l5.795-3.345 5.795 3.345v6.692l-5.795 3.345zm-428.235 0-5.794-3.345v-6.692l5.794-3.345 5.795 3.345v6.692l-5.795 3.345zm428.235-92.785-5.795-3.346v-6.69l5.795-3.346 5.795 3.345v6.691l-5.795 3.346zm-428.235 0-5.794-3.346v-6.69l5.794-3.346 5.795 3.345v6.691l-5.795 3.346zm421.543 150.777-5.794-3.345v-6.691l5.794-3.346 5.795 3.346v6.691l-5.795 3.345zm-428.234 0-5.795-3.345v-6.691l5.795-3.346 5.795 3.346v6.691l-5.795 3.345zm428.234-92.785-5.794-3.345v-6.692l5.794-3.345 5.795 3.346v6.69l-5.795 3.346zm-428.234 0-5.795-3.345v-6.692l5.795-3.345 5.795 3.346v6.69l-5.795 3.346zm428.234 46.391-5.794-3.346v-6.691l5.794-3.345 5.795 3.345v6.691l-5.795 3.346zm-428.234 0-5.795-3.346v-6.691l5.795-3.345 5.795 3.345v6.691l-5.795 3.346zm428.234-92.781-5.794-3.346v-6.691l5.794-3.346 5.795 3.346v6.691l-5.795 3.346zm-428.234 0-5.795-3.346v-6.691l5.795-3.346 5.795 3.346v6.691l-5.795 3.346zm428.234 115.98-5.794-3.345v-6.692l5.794-3.345 5.795 3.345v6.692l-5.795 3.345zm-428.234 0-5.795-3.345v-6.692l5.795-3.345 5.795 3.345v6.692l-5.795 3.345zM782.867 59.71l-5.794-3.345v-6.69l5.794-3.346 5.795 3.345v6.691l-5.795 3.346zm-428.234 0-5.795-3.345v-6.69l5.795-3.346 5.795 3.345v6.691l-5.795 3.346zm428.234 46.392-5.794-3.346v-6.691l5.794-3.346 5.795 3.346v6.691l-5.795 3.346zm-428.234 0-5.795-3.346v-6.691l5.795-3.346 5.795 3.346v6.691l-5.795 3.346zm428.234-92.786-5.794-3.345V3.28l5.794-3.346 5.795 3.346v6.69l-5.795 3.346zm-428.234 0-5.795-3.345V3.28l5.795-3.346 5.795 3.346v6.69l-5.795 3.346zm220.809 173.973-5.795-3.346v-6.691l5.795-3.345 5.794 3.345v6.691l-5.794 3.346zm-428.235 0-5.794-3.346v-6.691l5.794-3.345 5.795 3.345v6.691l-5.795 3.346zm428.235-92.785-5.795-3.346v-6.69l5.795-3.346 5.794 3.345v6.691l-5.794 3.346zm-428.235 0-5.794-3.346v-6.69l5.794-3.346 5.795 3.345v6.691l-5.795 3.346zm428.235 46.394-5.795-3.345v-6.691l5.795-3.346 5.794 3.346v6.691l-5.794 3.345zm-428.235 0-5.794-3.345v-6.691l5.794-3.346 5.795 3.346v6.691l-5.795 3.345zm428.235-92.785-5.795-3.345v-6.691l5.795-3.346 5.794 3.346v6.69l-5.794 3.346zm-428.235 0-5.794-3.345v-6.691l5.794-3.346 5.795 3.346v6.69l-5.795 3.346zm428.235 115.981-5.795-3.346v-6.691l5.795-3.346 5.794 3.346v6.691l-5.794 3.346zm-428.235 0-5.794-3.346v-6.691l5.794-3.346 5.795 3.346v6.691l-5.795 3.346zm428.235-92.785-5.795-3.346v-6.691l5.795-3.346 5.794 3.346v6.691l-5.794 3.346zm-428.235 0-5.794-3.346v-6.691l5.794-3.346 5.795 3.346v6.691l-5.795 3.346zm428.235 46.39-5.795-3.345v-6.692l5.795-3.345 5.794 3.345v6.692l-5.794 3.345zm-428.235 0-5.794-3.345v-6.692l5.794-3.345 5.795 3.345v6.692l-5.795 3.345zm428.235-92.785-5.795-3.346v-6.69l5.795-3.346 5.794 3.345v6.691l-5.794 3.346zm-428.235 0-5.794-3.346v-6.69l5.794-3.346 5.795 3.345v6.691l-5.795 3.346zM568.75 175.691l-5.794-3.345v-6.691l5.794-3.346 5.795 3.346v6.691l-5.795 3.345zm-428.234 0-5.795-3.345v-6.691l5.795-3.346 5.795 3.346v6.691l-5.795 3.345zM568.75 82.906l-5.794-3.345v-6.692l5.794-3.345 5.795 3.346v6.69l-5.795 3.346zm-428.234 0-5.795-3.345v-6.692l5.795-3.345 5.795 3.346v6.69l-5.795 3.346zm428.234 46.391-5.794-3.346v-6.691l5.794-3.345 5.795 3.345v6.691l-5.795 3.346zm-428.234 0-5.795-3.346v-6.691l5.795-3.345 5.795 3.345v6.691l-5.795 3.346zM568.75 36.516l-5.794-3.346v-6.691l5.794-3.346 5.795 3.346v6.691l-5.795 3.346zm-428.234 0-5.795-3.346v-6.691l5.795-3.346 5.795 3.346v6.691l-5.795 3.346zm428.234 115.98-5.794-3.345v-6.692l5.794-3.345 5.795 3.345v6.692l-5.795 3.345zm-428.234 0-5.795-3.345v-6.692l5.795-3.345 5.795 3.345v6.692l-5.795 3.345zM568.75 59.71l-5.794-3.345v-6.69l5.794-3.346 5.795 3.345v6.691l-5.795 3.346zm-428.234 0-5.795-3.345v-6.69l5.795-3.346 5.795 3.345v6.691l-5.795 3.346zm428.234 46.392-5.794-3.346v-6.691l5.794-3.346 5.795 3.346v6.691l-5.795 3.346zm-428.234 0-5.795-3.346v-6.691l5.795-3.346 5.795 3.346v6.691l-5.795 3.346zM568.75 13.316l-5.794-3.345V3.28l5.794-3.346 5.795 3.346v6.69l-5.795 3.346zm-428.234 0-5.795-3.345V3.28l5.795-3.346 5.795 3.346v6.69l-5.795 3.346zM843.09 187.289l-5.795-3.346v-6.691l5.795-3.345 5.795 3.345v6.691l-5.795 3.346zm-428.234 0-5.795-3.346v-6.691l5.795-3.345 5.794 3.345v6.691l-5.794 3.346zM843.09 94.504l-5.795-3.346v-6.69l5.795-3.346 5.795 3.345v6.691l-5.795 3.346zm-428.234 0-5.795-3.346v-6.69l5.795-3.346 5.794 3.345v6.691l-5.794 3.346zm428.234 46.394-5.795-3.345v-6.691l5.795-3.346 5.795 3.346v6.691l-5.795 3.345zm-428.234 0-5.795-3.345v-6.691l5.795-3.346 5.794 3.346v6.691l-5.794 3.345zM843.09 48.113l-5.795-3.345v-6.691l5.795-3.346 5.795 3.346v6.69l-5.795 3.346zm-428.234 0-5.795-3.345v-6.691l5.795-3.346 5.794 3.346v6.69l-5.794 3.346zM843.09 164.094l-5.795-3.346v-6.691l5.795-3.346 5.795 3.346v6.691l-5.795 3.346zm-428.234 0-5.795-3.346v-6.691l5.795-3.346 5.794 3.346v6.691l-5.794 3.346zM843.09 71.309l-5.795-3.346v-6.691l5.795-3.346 5.795 3.346v6.691l-5.795 3.346zm-428.234 0-5.795-3.346v-6.691l5.795-3.346 5.794 3.346v6.691l-5.794 3.346zm428.234 46.39-5.795-3.345v-6.692l5.795-3.345 5.795 3.345v6.692l-5.795 3.345zm-428.234 0-5.795-3.345v-6.692l5.795-3.345 5.794 3.345v6.692l-5.794 3.345zM843.09 24.914l-5.795-3.346v-6.69l5.795-3.346 5.795 3.345v6.691l-5.795 3.346zm-428.234 0-5.795-3.346v-6.69l5.795-3.346 5.794 3.345v6.691l-5.794 3.346zm421.543 150.777-5.795-3.345v-6.691l5.795-3.346 5.794 3.346v6.691l-5.794 3.345zm-428.235 0-5.794-3.345v-6.691l5.794-3.346 5.795 3.346v6.691l-5.795 3.345zm428.235-92.785-5.795-3.345v-6.692l5.795-3.345 5.794 3.346v6.69l-5.794 3.346zm-428.235 0-5.794-3.345v-6.692l5.794-3.345 5.795 3.346v6.69l-5.795 3.346zm428.235 46.391-5.795-3.346v-6.691l5.795-3.345 5.794 3.345v6.691l-5.794 3.346zm-428.235 0-5.794-3.346v-6.691l5.794-3.345 5.795 3.345v6.691l-5.795 3.346zm428.235-92.781-5.795-3.346v-6.691l5.795-3.346 5.794 3.346v6.691l-5.794 3.346zm-428.235 0-5.794-3.346v-6.691l5.794-3.346 5.795 3.346v6.691l-5.795 3.346zm428.235 115.98-5.795-3.345v-6.692l5.795-3.345 5.794 3.345v6.692l-5.794 3.345zm-428.235 0-5.794-3.345v-6.692l5.794-3.345 5.795 3.345v6.692l-5.795 3.345zM836.399 59.71l-5.795-3.345v-6.69l5.795-3.346 5.794 3.345v6.691l-5.794 3.346zm-428.235 0-5.794-3.345v-6.69l5.794-3.346 5.795 3.345v6.691l-5.795 3.346zm428.235 46.392-5.795-3.346v-6.691l5.795-3.346 5.794 3.346v6.691l-5.794 3.346zm-428.235 0-5.794-3.346v-6.691l5.794-3.346 5.795 3.346v6.691l-5.795 3.346zm428.235-92.786-5.795-3.345V3.28l5.795-3.346 5.794 3.346v6.69l-5.794 3.346zm-428.235 0-5.794-3.345V3.28l5.794-3.346 5.795 3.346v6.69l-5.795 3.346zm220.805 173.973-5.795-3.346v-6.691l5.795-3.345 5.795 3.345v6.691l-5.795 3.346zm-428.234 0-5.795-3.346v-6.691l5.795-3.345 5.794 3.345v6.691l-5.794 3.346zm428.234-92.785-5.795-3.346v-6.69l5.795-3.346 5.795 3.345v6.691l-5.795 3.346zm-428.234 0-5.795-3.346v-6.69l5.795-3.346 5.794 3.345v6.691l-5.794 3.346zm428.234 46.394-5.795-3.345v-6.691l5.795-3.346 5.795 3.346v6.691l-5.795 3.345zm-428.234 0-5.795-3.345v-6.691l5.795-3.346 5.794 3.346v6.691l-5.794 3.345zm428.234-92.785-5.795-3.345v-6.691l5.795-3.346 5.795 3.346v6.69l-5.795 3.346zm-428.234 0-5.795-3.345v-6.691l5.795-3.346 5.794 3.346v6.69l-5.794 3.346zm428.234 115.981-5.795-3.346v-6.691l5.795-3.346 5.795 3.346v6.691l-5.795 3.346zm-428.234 0-5.795-3.346v-6.691l5.795-3.346 5.794 3.346v6.691l-5.794 3.346zm428.234-92.785-5.795-3.346v-6.691l5.795-3.346 5.795 3.346v6.691l-5.795 3.346zm-428.234 0-5.795-3.346v-6.691l5.795-3.346 5.794 3.346v6.691l-5.794 3.346zm428.234 46.39-5.795-3.345v-6.692l5.795-3.345 5.795 3.345v6.692l-5.795 3.345zm-428.234 0-5.795-3.345v-6.692l5.795-3.345 5.794 3.345v6.692l-5.794 3.345zm428.234-92.785-5.795-3.346v-6.69l5.795-3.346 5.795 3.345v6.691l-5.795 3.346zm-428.234 0-5.795-3.346v-6.69l5.795-3.346 5.794 3.345v6.691l-5.794 3.346zm421.543 150.777-5.795-3.345v-6.691l5.795-3.346 5.794 3.346v6.691l-5.794 3.345zm-428.235 0-5.795-3.345v-6.691l5.795-3.346 5.795 3.346v6.691l-5.795 3.345zm428.235-92.785-5.795-3.345v-6.692l5.795-3.345 5.794 3.346v6.69l-5.794 3.346zm-428.235 0-5.795-3.345v-6.692l5.795-3.345 5.795 3.346v6.69l-5.795 3.346zm428.235 46.391-5.795-3.346v-6.691l5.795-3.345 5.794 3.345v6.691l-5.794 3.346zm-428.235 0-5.795-3.346v-6.691l5.795-3.345 5.795 3.345v6.691l-5.795 3.346zm428.235-92.781-5.795-3.346v-6.691l5.795-3.346 5.794 3.346v6.691l-5.794 3.346zm-428.235 0-5.795-3.346v-6.691l5.795-3.346 5.795 3.346v6.691l-5.795 3.346zm428.235 115.98-5.795-3.345v-6.692l5.795-3.345 5.794 3.345v6.692l-5.794 3.345zm-428.235 0-5.795-3.345v-6.692l5.795-3.345 5.795 3.345v6.692l-5.795 3.345zM622.278 59.71l-5.795-3.345v-6.69l5.795-3.346 5.794 3.345v6.691l-5.794 3.346zm-428.235 0-5.795-3.345v-6.69l5.795-3.346 5.795 3.345v6.691l-5.795 3.346zm428.235 46.392-5.795-3.346v-6.691l5.795-3.346 5.794 3.346v6.691l-5.794 3.346zm-428.235 0-5.795-3.346v-6.691l5.795-3.346 5.795 3.346v6.691l-5.795 3.346zm428.235-92.786-5.795-3.345V3.28l5.795-3.346 5.794 3.346v6.69l-5.794 3.346zm-428.235 0-5.795-3.345V3.28l5.795-3.346 5.795 3.346v6.69l-5.795 3.346zm541.985 173.973-5.795-3.346v-6.691l5.795-3.345 5.794 3.345v6.691l-5.794 3.346zm-428.235 0-5.795-3.346v-6.691l5.795-3.345 5.795 3.345v6.691l-5.795 3.346zm428.235-92.785-5.795-3.346v-6.69l5.795-3.346 5.794 3.345v6.691l-5.794 3.346zm-428.235 0-5.795-3.346v-6.69l5.795-3.346 5.795 3.345v6.691l-5.795 3.346zm428.235 46.394-5.795-3.345v-6.691l5.795-3.346 5.794 3.346v6.691l-5.794 3.345zm-428.235 0-5.795-3.345v-6.691l5.795-3.346 5.795 3.346v6.691l-5.795 3.345zm428.235-92.785-5.795-3.345v-6.691l5.795-3.346 5.794 3.346v6.69l-5.794 3.346zm-428.235 0-5.795-3.345v-6.691l5.795-3.346 5.795 3.346v6.69l-5.795 3.346zm428.235 115.981-5.795-3.346v-6.691l5.795-3.346 5.794 3.346v6.691l-5.794 3.346zm-428.235 0-5.795-3.346v-6.691l5.795-3.346 5.795 3.346v6.691l-5.795 3.346zm428.235-92.785-5.795-3.346v-6.691l5.795-3.346 5.794 3.346v6.691l-5.794 3.346zm-428.235 0-5.795-3.346v-6.691l5.795-3.346 5.795 3.346v6.691l-5.795 3.346zm428.235 46.39-5.795-3.345v-6.692l5.795-3.345 5.794 3.345v6.692l-5.794 3.345zm-428.235 0-5.795-3.345v-6.692l5.795-3.345 5.795 3.345v6.692l-5.795 3.345zm428.235-92.785-5.795-3.346v-6.69l5.795-3.346 5.794 3.345v6.691l-5.794 3.346zm-428.235 0-5.795-3.346v-6.69l5.795-3.346 5.795 3.345v6.691l-5.795 3.346zM729.34 175.691l-5.795-3.345v-6.691l5.795-3.346 5.795 3.346v6.691l-5.795 3.345zm-428.238 0-5.795-3.345v-6.691l5.795-3.346 5.795 3.346v6.691l-5.795 3.345zM729.34 82.906l-5.795-3.345v-6.692l5.795-3.345 5.795 3.346v6.69l-5.795 3.346zm-428.238 0-5.795-3.345v-6.692l5.795-3.345 5.795 3.346v6.69l-5.795 3.346zm428.238 46.391-5.795-3.346v-6.691l5.795-3.345 5.795 3.345v6.691l-5.795 3.346zm-428.238 0-5.795-3.346v-6.691l5.795-3.345 5.795 3.345v6.691l-5.795 3.346zM729.34 36.516l-5.795-3.346v-6.691l5.795-3.346 5.795 3.346v6.691l-5.795 3.346zm-428.238 0-5.795-3.346v-6.691l5.795-3.346 5.795 3.346v6.691l-5.795 3.346zm428.238 115.98-5.795-3.345v-6.692l5.795-3.345 5.795 3.345v6.692l-5.795 3.345zm-428.238 0-5.795-3.345v-6.692l5.795-3.345 5.795 3.345v6.692l-5.795 3.345zM729.34 59.71l-5.795-3.345v-6.69l5.795-3.346 5.795 3.345v6.691l-5.795 3.346zm-428.238 0-5.795-3.345v-6.69l5.795-3.346 5.795 3.345v6.691l-5.795 3.346zm428.238 46.392-5.795-3.346v-6.691l5.795-3.346 5.795 3.346v6.691l-5.795 3.346zm-428.238 0-5.795-3.346v-6.691l5.795-3.346 5.795 3.346v6.691l-5.795 3.346zM729.34 13.316l-5.795-3.345V3.28l5.795-3.346 5.795 3.346v6.69l-5.795 3.346zm-428.238 0-5.795-3.345V3.28l5.795-3.346 5.795 3.346v6.69l-5.795 3.346zm220.812 173.973-5.794-3.346v-6.691l5.794-3.345 5.795 3.345v6.691l-5.795 3.346zm-428.234 0-5.795-3.346v-6.691l5.795-3.345 5.795 3.345v6.691l-5.795 3.346zM448.308-.062l5.795 3.345v6.691l-5.795 3.346-5.794-3.346v-6.69l5.794-3.346zM20.074-.066l5.795 3.345V9.97l-5.795 3.346-5.795-3.346V3.28l5.795-3.346zm501.84 94.57-5.794-3.346v-6.69l5.794-3.346 5.795 3.345v6.691l-5.795 3.346zm-428.238 0-5.795-3.346v-6.69l5.795-3.346 5.795 3.345v6.691l-5.795 3.346zm354.632-1.785 5.795 3.345v6.692l-5.795 3.345-5.794-3.345v-6.692l5.794-3.345zm-428.234 0 5.795 3.345v6.692l-5.795 3.345-5.795-3.345v-6.692l5.795-3.345zm501.84 48.179-5.794-3.345v-6.691l5.794-3.346 5.795 3.346v6.691l-5.795 3.345zm-428.238 0-5.795-3.345v-6.691l5.795-3.346 5.795 3.346v6.691l-5.795 3.345zm354.632-94.57 5.795 3.346v6.69l-5.795 3.347-5.794-3.346v-6.691l5.794-3.346zm-428.234 0 5.795 3.346v6.69l-5.795 3.347-5.795-3.346v-6.691l5.795-3.346zm501.84 1.785-5.794-3.345v-6.691l5.794-3.346 5.795 3.346v6.69l-5.795 3.346zm-428.238 0-5.795-3.345v-6.691l5.795-3.346 5.795 3.346v6.69l-5.795 3.346zm354.632 91 5.795 3.346v6.691l-5.795 3.346-5.794-3.346v-6.691l5.794-3.346zm-428.234 0 5.795 3.346v6.691l-5.795 3.346-5.795-3.346v-6.691l5.795-3.346zm501.84 24.981-5.794-3.346v-6.691l5.794-3.346 5.795 3.346v6.691l-5.795 3.346zm-428.234 0-5.795-3.346v-6.691l5.795-3.346 5.795 3.346v6.691l-5.795 3.346zM448.308 23.133l5.795 3.345v6.692l-5.795 3.345-5.794-3.345v-6.692l5.794-3.345zm-428.234 0 5.795 3.345v6.692l-5.795 3.345-5.795-3.345v-6.692l5.795-3.345zm501.84 48.176-5.794-3.346v-6.691l5.794-3.346 5.795 3.346v6.691l-5.795 3.346zm-428.238 0-5.795-3.346v-6.691l5.795-3.346 5.795 3.346v6.691l-5.795 3.346zm354.632 44.609 5.795 3.346v6.691l-5.795 3.345-5.794-3.345v-6.691l5.794-3.346zm-428.234 0 5.795 3.346v6.691l-5.795 3.345-5.795-3.345v-6.691l5.795-3.346zm501.84 1.781-5.794-3.345v-6.692l5.794-3.345 5.795 3.345v6.692l-5.795 3.345zm-428.238 0-5.795-3.345v-6.692l5.795-3.345 5.795 3.345v6.692l-5.795 3.345zm354.632-48.176 5.795 3.346v6.691l-5.795 3.346-5.794-3.346v-6.69l5.794-3.346zm-428.234 0 5.795 3.346v6.691l-5.795 3.346-5.795-3.346v-6.69l5.795-3.346zm501.84-44.609-5.794-3.346v-6.69l5.794-3.346 5.795 3.345v6.691l-5.795 3.346zm-428.238 0-5.795-3.346v-6.69l5.795-3.346 5.795 3.345v6.691l-5.795 3.346zm354.632 137.395 5.795 3.345v6.691l-5.795 3.346-5.794-3.346v-6.691l5.794-3.345zm-428.234 0 5.795 3.345v6.691l-5.795 3.346-5.795-3.346v-6.691l5.795-3.345zm495.149 13.382-5.795-3.345v-6.691l5.795-3.346 5.795 3.346v6.691l-5.795 3.345zm-428.238 0-5.795-3.345v-6.691l5.795-3.346 5.794 3.346v6.691l-5.794 3.345zM455 11.535l5.794 3.346v6.69L455 24.918l-5.795-3.345V14.88L455 11.535zm-428.235 0 5.795 3.346v6.69l-5.795 3.346-5.794-3.345V14.88l5.794-3.346zm488.458 71.371-5.795-3.345v-6.692l5.795-3.345 5.795 3.346v6.69l-5.795 3.346zm-428.238 0-5.795-3.345v-6.692l5.795-3.345 5.794 3.346v6.69l-5.794 3.346zM455 104.32l5.794 3.346v6.691L455 117.703l-5.795-3.346v-6.691L455 104.32zm-428.235-.004 5.795 3.346v6.691l-5.795 3.346-5.794-3.346v-6.691l5.794-3.346zm488.458 24.981-5.795-3.346v-6.691l5.795-3.345 5.795 3.345v6.691l-5.795 3.346zm-428.238 0-5.795-3.346v-6.691l5.795-3.345 5.794 3.345v6.691l-5.794 3.346zM455 57.926l5.794 3.345v6.692L455 71.308l-5.795-3.346v-6.69L455 57.925zm-428.235 0 5.795 3.345v6.692l-5.795 3.345-5.794-3.346v-6.69l5.794-3.346zm488.458-21.41-5.795-3.346v-6.691l5.795-3.346 5.795 3.346v6.691l-5.795 3.346zm-428.238 0L81.19 33.17v-6.691l5.795-3.346 5.794 3.346v6.691l-5.794 3.346zM455 150.711l5.794 3.346v6.691L455 164.093l-5.795-3.345v-6.691l5.795-3.346zm-428.235 0 5.795 3.346v6.691l-5.795 3.345-5.794-3.345v-6.691l5.794-3.346zm488.458 1.785-5.795-3.345v-6.692l5.795-3.345 5.795 3.345v6.692l-5.795 3.345zm-428.238 0-5.795-3.345v-6.692l5.795-3.345 5.794 3.345v6.692l-5.794 3.345zM455 34.73l5.794 3.346v6.691L455 48.113l-5.795-3.346v-6.69L455 34.73zm-428.235 0 5.795 3.346v6.691l-5.795 3.346-5.794-3.346v-6.69l5.794-3.346zm488.458 24.98-5.795-3.345v-6.69l5.795-3.346 5.795 3.345v6.691l-5.795 3.346zm-428.238 0-5.795-3.345v-6.69l5.795-3.346 5.794 3.345v6.691l-5.794 3.346zM455 127.516l5.794 3.345v6.691L455 140.898l-5.795-3.346v-6.691l5.795-3.345zm-428.235 0 5.795 3.345v6.691l-5.795 3.346-5.794-3.346v-6.691l5.794-3.345zm488.458-21.414-5.795-3.346v-6.691l5.795-3.346 5.795 3.346v6.691l-5.795 3.346zm-428.238 0-5.795-3.346v-6.691l5.795-3.346 5.794 3.346v6.691l-5.794 3.346zM455 81.121l5.794 3.346v6.69L455 94.504l-5.795-3.345v-6.691L455 81.12zm-428.235 0 5.795 3.346v6.69l-5.795 3.346-5.794-3.345v-6.691l5.794-3.346zm488.458-67.805-5.795-3.345V3.28l5.795-3.346 5.795 3.346v6.69l-5.795 3.346zm-428.238 0L81.19 9.971V3.28l5.795-3.346 5.794 3.346v6.69l-5.794 3.346zM455 173.906l5.794 3.346v6.691L455 187.289l-5.795-3.346v-6.691l5.795-3.346zm-428.235 0 5.795 3.346v6.691l-5.795 3.346-5.794-3.346v-6.691l5.794-3.346zm856.47 13.383-5.795-3.346v-6.691l5.795-3.345 5.794 3.345v6.691l-5.794 3.346zm0-92.785-5.795-3.346v-6.69l5.795-3.346 5.794 3.345v6.691l-5.794 3.346zm0 46.394-5.795-3.345v-6.691l5.795-3.346 5.794 3.346v6.691l-5.794 3.345zm0-92.785-5.795-3.345v-6.691l5.795-3.346 5.794 3.346v6.69l-5.794 3.346zm0 115.981-5.795-3.346v-6.691l5.795-3.346 5.794 3.346v6.691l-5.794 3.346zm0-92.785-5.795-3.346v-6.691l5.795-3.346 5.794 3.346v6.691l-5.794 3.346zm0 46.39-5.795-3.345v-6.692l5.795-3.345 5.794 3.345v6.692l-5.794 3.345zm0-92.785-5.795-3.346v-6.69l5.795-3.346 5.794 3.345v6.691l-5.794 3.346zm-6.692 150.777-5.795-3.345v-6.691l5.795-3.346 5.795 3.346v6.691l-5.795 3.345zm0-92.785-5.795-3.345v-6.692l5.795-3.345 5.795 3.346v6.69l-5.795 3.346zm0 46.391-5.795-3.346v-6.691l5.795-3.345 5.795 3.345v6.691l-5.795 3.346zm0-92.781-5.795-3.346v-6.691l5.795-3.346 5.795 3.346v6.691l-5.795 3.346zm0 115.98-5.795-3.345v-6.692l5.795-3.345 5.795 3.345v6.692l-5.795 3.345zm0-92.786-5.795-3.345v-6.69l5.795-3.346 5.795 3.345v6.691l-5.795 3.346zm0 46.392-5.795-3.346v-6.691l5.795-3.346 5.795 3.346v6.691l-5.795 3.346zm0-92.786-5.795-3.345V3.28l5.795-3.346 5.795 3.346v6.69l-5.795 3.346zM669.117 187.289l-5.794-3.346v-6.691l5.794-3.345 5.795 3.345v6.691l-5.795 3.346zm-428.234 0-5.795-3.346v-6.691l5.795-3.345 5.795 3.345v6.691l-5.795 3.346zm428.234-92.785-5.794-3.346v-6.69l5.794-3.346 5.795 3.345v6.691l-5.795 3.346zm-428.234 0-5.795-3.346v-6.69l5.795-3.346 5.795 3.345v6.691l-5.795 3.346zm428.234 46.394-5.794-3.345v-6.691l5.794-3.346 5.795 3.346v6.691l-5.795 3.345zm-428.234 0-5.795-3.345v-6.691l5.795-3.346 5.795 3.346v6.691l-5.795 3.345zm428.234-92.785-5.794-3.345v-6.691l5.794-3.346 5.795 3.346v6.69l-5.795 3.346zm-428.234 0-5.795-3.345v-6.691l5.795-3.346 5.795 3.346v6.69l-5.795 3.346zm428.234 115.981-5.794-3.346v-6.691l5.794-3.346 5.795 3.346v6.691l-5.795 3.346zm-428.234 0-5.795-3.346v-6.691l5.795-3.346 5.795 3.346v6.691l-5.795 3.346zm428.234-92.785-5.794-3.346v-6.691l5.794-3.346 5.795 3.346v6.691l-5.795 3.346zm-428.234 0-5.795-3.346v-6.691l5.795-3.346 5.795 3.346v6.691l-5.795 3.346zm428.234 46.39-5.794-3.345v-6.692l5.794-3.345 5.795 3.345v6.692l-5.795 3.345zm-428.234 0-5.795-3.345v-6.692l5.795-3.345 5.795 3.345v6.692l-5.795 3.345zm428.234-92.785-5.794-3.346v-6.69l5.794-3.346 5.795 3.345v6.691l-5.795 3.346zm-428.234 0-5.795-3.346v-6.69l5.795-3.346 5.795 3.345v6.691l-5.795 3.346zm421.543 150.777-5.795-3.345v-6.691l5.795-3.346 5.795 3.346v6.691l-5.795 3.345zm-428.234 0-5.795-3.345v-6.691l5.795-3.346 5.794 3.346v6.691l-5.794 3.345zm428.234-92.785-5.795-3.345v-6.692l5.795-3.345 5.795 3.346v6.69l-5.795 3.346zm-428.234 0-5.795-3.345v-6.692l5.795-3.345 5.794 3.346v6.69l-5.794 3.346zm428.234 46.391-5.795-3.346v-6.691l5.795-3.345 5.795 3.345v6.691l-5.795 3.346zm-428.234 0-5.795-3.346v-6.691l5.795-3.345 5.794 3.345v6.691l-5.794 3.346zm428.234-92.781-5.795-3.346v-6.691l5.795-3.346 5.795 3.346v6.691l-5.795 3.346zm-428.234 0-5.795-3.346v-6.691l5.795-3.346 5.794 3.346v6.691l-5.794 3.346zm428.234 115.98-5.795-3.345v-6.692l5.795-3.345 5.795 3.345v6.692l-5.795 3.345zm-428.234 0-5.795-3.345v-6.692l5.795-3.345 5.794 3.345v6.692l-5.794 3.345zM662.426 59.71l-5.795-3.345v-6.69l5.795-3.346 5.795 3.345v6.691l-5.795 3.346zm-428.234 0-5.795-3.345v-6.69l5.795-3.346 5.794 3.345v6.691l-5.794 3.346zm428.234 46.392-5.795-3.346v-6.691l5.795-3.346 5.795 3.346v6.691l-5.795 3.346zm-428.234 0-5.795-3.346v-6.691l5.795-3.346 5.794 3.346v6.691l-5.794 3.346zm428.234-92.786-5.795-3.345V3.28l5.795-3.346 5.795 3.346v6.69l-5.795 3.346zm-428.234 0-5.795-3.345V3.28l5.795-3.346 5.794 3.346v6.69l-5.794 3.346zm541.984 173.973-5.795-3.346v-6.691l5.795-3.345 5.795 3.345v6.691l-5.795 3.346zm-428.234 0-5.795-3.346v-6.691l5.795-3.345 5.794 3.345v6.691l-5.794 3.346zm428.234-92.785-5.795-3.346v-6.69l5.795-3.346 5.795 3.345v6.691l-5.795 3.346zm-428.234 0-5.795-3.346v-6.69l5.795-3.346 5.794 3.345v6.691l-5.794 3.346zm428.234 46.394-5.795-3.345v-6.691l5.795-3.346 5.795 3.346v6.691l-5.795 3.345zm-428.234 0-5.795-3.345v-6.691l5.795-3.346 5.794 3.346v6.691l-5.794 3.345zm428.234-92.785-5.795-3.345v-6.691l5.795-3.346 5.795 3.346v6.69l-5.795 3.346zm-428.234 0-5.795-3.345v-6.691l5.795-3.346 5.794 3.346v6.69l-5.794 3.346zm428.234 115.981-5.795-3.346v-6.691l5.795-3.346 5.795 3.346v6.691l-5.795 3.346zm-428.234 0-5.795-3.346v-6.691l5.795-3.346 5.794 3.346v6.691l-5.794 3.346zm428.234-92.785-5.795-3.346v-6.691l5.795-3.346 5.795 3.346v6.691l-5.795 3.346zm-428.234 0-5.795-3.346v-6.691l5.795-3.346 5.794 3.346v6.691l-5.794 3.346zm428.234 46.39-5.795-3.345v-6.692l5.795-3.345 5.795 3.345v6.692l-5.795 3.345zm-428.234 0-5.795-3.345v-6.692l5.795-3.345 5.794 3.345v6.692l-5.794 3.345zm428.234-92.785-5.795-3.346v-6.69l5.795-3.346 5.795 3.345v6.691l-5.795 3.346zm-428.234 0-5.795-3.346v-6.69l5.795-3.346 5.794 3.345v6.691l-5.794 3.346zm421.543 150.777-5.795-3.345v-6.691l5.795-3.346 5.794 3.346v6.691l-5.794 3.345zm-428.235 0-5.794-3.345v-6.691l5.794-3.346 5.795 3.346v6.691l-5.795 3.345zm428.235-92.785-5.795-3.345v-6.692l5.795-3.345 5.794 3.346v6.69l-5.794 3.346zm-428.235 0-5.794-3.345v-6.692l5.794-3.345 5.795 3.346v6.69l-5.795 3.346zm428.235 46.391-5.795-3.346v-6.691l5.795-3.345 5.794 3.345v6.691l-5.794 3.346zm-428.235 0-5.794-3.346v-6.691l5.794-3.345 5.795 3.345v6.691l-5.795 3.346zm428.235-92.781-5.795-3.346v-6.691l5.795-3.346 5.794 3.346v6.691l-5.794 3.346zm-428.235 0-5.794-3.346v-6.691l5.794-3.346 5.795 3.346v6.691l-5.795 3.346zm428.235 115.98-5.795-3.345v-6.692l5.795-3.345 5.794 3.345v6.692l-5.794 3.345zm-428.235 0-5.794-3.345v-6.692l5.794-3.345 5.795 3.345v6.692l-5.795 3.345zM769.485 59.71l-5.795-3.345v-6.69l5.795-3.346 5.794 3.345v6.691l-5.794 3.346zm-428.235 0-5.794-3.345v-6.69l5.794-3.346 5.795 3.345v6.691l-5.795 3.346zm428.235 46.392-5.795-3.346v-6.691l5.795-3.346 5.794 3.346v6.691l-5.794 3.346zm-428.235 0-5.794-3.346v-6.691l5.794-3.346 5.795 3.346v6.691l-5.795 3.346zm428.235-92.786-5.795-3.345V3.28l5.795-3.346 5.794 3.346v6.69l-5.794 3.346zm-428.235 0-5.794-3.345V3.28l5.794-3.346 5.795 3.346v6.69l-5.795 3.346zm220.809 173.973-5.795-3.346v-6.691l5.795-3.345 5.795 3.345v6.691l-5.795 3.346zm-428.235 0-5.794-3.346v-6.691l5.794-3.345 5.795 3.345v6.691l-5.795 3.346zm428.235-92.785-5.795-3.346v-6.69l5.795-3.346 5.795 3.345v6.691l-5.795 3.346zm-428.235 0-5.794-3.346v-6.69l5.794-3.346 5.795 3.345v6.691l-5.795 3.346zm428.235 46.394-5.795-3.345v-6.691l5.795-3.346 5.795 3.346v6.691l-5.795 3.345zm-428.235 0-5.794-3.345v-6.691l5.794-3.346 5.795 3.346v6.691l-5.795 3.345zm428.235-92.785-5.795-3.345v-6.691l5.795-3.346 5.795 3.346v6.69l-5.795 3.346zm-428.235 0-5.794-3.345v-6.691l5.794-3.346 5.795 3.346v6.69l-5.795 3.346zm428.235 115.981-5.795-3.346v-6.691l5.795-3.346 5.795 3.346v6.691l-5.795 3.346zm-428.235 0-5.794-3.346v-6.691l5.794-3.346 5.795 3.346v6.691l-5.795 3.346zm428.235-92.785-5.795-3.346v-6.691l5.795-3.346 5.795 3.346v6.691l-5.795 3.346zm-428.235 0-5.794-3.346v-6.691l5.794-3.346 5.795 3.346v6.691l-5.795 3.346zm428.235 46.39-5.795-3.345v-6.692l5.795-3.345 5.795 3.345v6.692l-5.795 3.345zm-428.235 0-5.794-3.345v-6.692l5.794-3.345 5.795 3.345v6.692l-5.795 3.345zm428.235-92.785-5.795-3.346v-6.69l5.795-3.346 5.795 3.345v6.691l-5.795 3.346zm-428.235 0-5.794-3.346v-6.69l5.794-3.346 5.795 3.345v6.691l-5.795 3.346zm421.543 150.777-5.794-3.345v-6.691l5.794-3.346 5.795 3.346v6.691l-5.795 3.345zm-428.234 0-5.795-3.345v-6.691l5.795-3.346 5.795 3.346v6.691l-5.795 3.345zm428.234-92.785-5.794-3.345v-6.692l5.794-3.345 5.795 3.346v6.69l-5.795 3.346zm-428.234 0-5.795-3.345v-6.692l5.795-3.345 5.795 3.346v6.69l-5.795 3.346zm428.234 46.391-5.794-3.346v-6.691l5.794-3.345 5.795 3.345v6.691l-5.795 3.346zm-428.234 0-5.795-3.346v-6.691l5.795-3.345 5.795 3.345v6.691l-5.795 3.346zm428.234-92.781-5.794-3.346v-6.691l5.794-3.346 5.795 3.346v6.691l-5.795 3.346zm-428.234 0-5.795-3.346v-6.691l5.795-3.346 5.795 3.346v6.691l-5.795 3.346zm428.234 115.98-5.794-3.345v-6.692l5.794-3.345 5.795 3.345v6.692l-5.795 3.345zm-428.234 0-5.795-3.345v-6.692l5.795-3.345 5.795 3.345v6.692l-5.795 3.345zM555.367 59.71l-5.794-3.345v-6.69l5.794-3.346 5.795 3.345v6.691l-5.795 3.346zm-428.234 0-5.795-3.345v-6.69l5.795-3.346 5.795 3.345v6.691l-5.795 3.346zm428.234 46.392-5.794-3.346v-6.691l5.794-3.346 5.795 3.346v6.691l-5.795 3.346zm-428.234 0-5.795-3.346v-6.691l5.795-3.346 5.795 3.346v6.691l-5.795 3.346zm428.234-92.786-5.794-3.345V3.28l5.794-3.346 5.795 3.346v6.69l-5.795 3.346zm-428.234 0-5.795-3.345V3.28l5.795-3.346 5.795 3.346v6.69l-5.795 3.346zm702.574 173.973-5.794-3.346v-6.691l5.794-3.345 5.795 3.345v6.691l-5.795 3.346zm-428.234 0-5.795-3.346v-6.691l5.795-3.345 5.795 3.345v6.691l-5.795 3.346zm428.234-92.785-5.794-3.346v-6.69l5.794-3.346 5.795 3.345v6.691l-5.795 3.346zm-428.234 0-5.795-3.346v-6.69l5.795-3.346 5.795 3.345v6.691l-5.795 3.346zm428.234 46.394-5.794-3.345v-6.691l5.794-3.346 5.795 3.346v6.691l-5.795 3.345zm-428.234 0-5.795-3.345v-6.691l5.795-3.346 5.795 3.346v6.691l-5.795 3.345zm428.234-92.785-5.794-3.345v-6.691l5.794-3.346 5.795 3.346v6.69l-5.795 3.346zm-428.234 0-5.795-3.345v-6.691l5.795-3.346 5.795 3.346v6.69l-5.795 3.346zm428.234 115.981-5.794-3.346v-6.691l5.794-3.346 5.795 3.346v6.691l-5.795 3.346zm-428.234 0-5.795-3.346v-6.691l5.795-3.346 5.795 3.346v6.691l-5.795 3.346zm428.234-92.785-5.794-3.346v-6.691l5.794-3.346 5.795 3.346v6.691l-5.795 3.346zm-428.234 0-5.795-3.346v-6.691l5.795-3.346 5.795 3.346v6.691l-5.795 3.346zm428.234 46.39-5.794-3.345v-6.692l5.794-3.345 5.795 3.345v6.692l-5.795 3.345zm-428.234 0-5.795-3.345v-6.692l5.795-3.345 5.795 3.345v6.692l-5.795 3.345zm428.234-92.785-5.794-3.346v-6.69l5.794-3.346 5.795 3.345v6.691l-5.795 3.346zm-428.234 0-5.795-3.346v-6.69l5.795-3.346 5.795 3.345v6.691l-5.795 3.346zm421.543 150.777-5.795-3.345v-6.691l5.795-3.346 5.795 3.346v6.691l-5.795 3.345zm-428.235 0-5.794-3.345v-6.691l5.794-3.346 5.795 3.346v6.691l-5.795 3.345zm428.235-92.785-5.795-3.345v-6.692l5.795-3.345 5.795 3.346v6.69l-5.795 3.346zm-428.235 0-5.794-3.345v-6.692l5.794-3.345 5.795 3.346v6.69l-5.795 3.346zm428.235 46.391-5.795-3.346v-6.691l5.795-3.345 5.795 3.345v6.691l-5.795 3.346zm-428.235 0-5.794-3.346v-6.691l5.794-3.345 5.795 3.345v6.691l-5.795 3.346zm428.235-92.781-5.795-3.346v-6.691l5.795-3.346 5.795 3.346v6.691l-5.795 3.346zm-428.235 0-5.794-3.346v-6.691l5.794-3.346 5.795 3.346v6.691l-5.795 3.346zm428.235 115.98-5.795-3.345v-6.692l5.795-3.345 5.795 3.345v6.692l-5.795 3.345zm-428.235 0-5.794-3.345v-6.692l5.794-3.345 5.795 3.345v6.692l-5.795 3.345zM823.016 59.71l-5.795-3.345v-6.69l5.795-3.346 5.795 3.345v6.691l-5.795 3.346zm-428.235 0-5.794-3.345v-6.69l5.794-3.346 5.795 3.345v6.691l-5.795 3.346zm428.235 46.392-5.795-3.346v-6.691l5.795-3.346 5.795 3.346v6.691l-5.795 3.346zm-428.235 0-5.794-3.346v-6.691l5.794-3.346 5.795 3.346v6.691l-5.795 3.346zm428.235-92.786-5.795-3.345V3.28l5.795-3.346 5.795 3.346v6.69l-5.795 3.346zm-428.235 0-5.794-3.345V3.28l5.794-3.346 5.795 3.346v6.69l-5.795 3.346zM615.59 187.289l-5.795-3.346v-6.691l5.795-3.345 5.795 3.345v6.691l-5.795 3.346zm-428.238 0-5.795-3.346v-6.691l5.795-3.345 5.795 3.345v6.691l-5.795 3.346zM615.59 94.504l-5.795-3.346v-6.69l5.795-3.346 5.795 3.345v6.691l-5.795 3.346zm-428.238 0-5.795-3.346v-6.69l5.795-3.346 5.795 3.345v6.691l-5.795 3.346zm428.238 46.394-5.795-3.345v-6.691l5.795-3.346 5.795 3.346v6.691l-5.795 3.345zm-428.238 0-5.795-3.345v-6.691l5.795-3.346 5.795 3.346v6.691l-5.795 3.345zM615.59 48.113l-5.795-3.345v-6.691l5.795-3.346 5.795 3.346v6.69l-5.795 3.346zm-428.238 0-5.795-3.345v-6.691l5.795-3.346 5.795 3.346v6.69l-5.795 3.346zM615.59 164.094l-5.795-3.346v-6.691l5.795-3.346 5.795 3.346v6.691l-5.795 3.346zm-428.238 0-5.795-3.346v-6.691l5.795-3.346 5.795 3.346v6.691l-5.795 3.346zM615.59 71.309l-5.795-3.346v-6.691l5.795-3.346 5.795 3.346v6.691l-5.795 3.346zm-428.238 0-5.795-3.346v-6.691l5.795-3.346 5.795 3.346v6.691l-5.795 3.346zm428.238 46.39-5.795-3.345v-6.692l5.795-3.345 5.795 3.345v6.692l-5.795 3.345zm-428.238 0-5.795-3.345v-6.692l5.795-3.345 5.795 3.345v6.692l-5.795 3.345zM615.59 24.914l-5.795-3.346v-6.69l5.795-3.346 5.795 3.345v6.691l-5.795 3.346zm-428.238 0-5.795-3.346v-6.69l5.795-3.346 5.795 3.345v6.691l-5.795 3.346zm421.547 150.777-5.795-3.345v-6.691l5.795-3.346 5.794 3.346v6.691l-5.794 3.345zm-428.235 0-5.794-3.345v-6.691l5.794-3.346 5.795 3.346v6.691l-5.795 3.345zm428.235-92.785-5.795-3.345v-6.692l5.795-3.345 5.794 3.346v6.69l-5.794 3.346zm-428.235 0-5.794-3.345v-6.692l5.794-3.345 5.795 3.346v6.69l-5.795 3.346zm428.235 46.391-5.795-3.346v-6.691l5.795-3.345 5.794 3.345v6.691l-5.794 3.346zm-428.235 0-5.794-3.346v-6.691l5.794-3.345 5.795 3.345v6.691l-5.795 3.346zm428.235-92.781-5.795-3.346v-6.691l5.795-3.346 5.794 3.346v6.691l-5.794 3.346zm-428.235 0-5.794-3.346v-6.691l5.794-3.346 5.795 3.346v6.691l-5.795 3.346zm428.235 115.98-5.795-3.345v-6.692l5.795-3.345 5.794 3.345v6.692l-5.794 3.345zm-428.235 0-5.794-3.345v-6.692l5.794-3.345 5.795 3.345v6.692l-5.795 3.345zM608.899 59.71l-5.795-3.345v-6.69l5.795-3.346 5.794 3.345v6.691l-5.794 3.346zm-428.235 0-5.794-3.345v-6.69l5.794-3.346 5.795 3.345v6.691l-5.795 3.346zm428.235 46.392-5.795-3.346v-6.691l5.795-3.346 5.794 3.346v6.691l-5.794 3.346zm-428.235 0-5.794-3.346v-6.691l5.794-3.346 5.795 3.346v6.691l-5.795 3.346zm428.235-92.786-5.795-3.345V3.28l5.795-3.346 5.794 3.346v6.69l-5.794 3.346zm-428.235 0-5.794-3.345V3.28l5.794-3.346 5.795 3.346v6.69l-5.795 3.346zm541.985 173.973-5.795-3.346v-6.691l5.795-3.345 5.794 3.345v6.691l-5.794 3.346zm-428.235 0-5.794-3.346v-6.691l5.794-3.345 5.795 3.345v6.691l-5.795 3.346zm428.235-92.785-5.795-3.346v-6.69l5.795-3.346 5.794 3.345v6.691l-5.794 3.346zm-428.235 0-5.794-3.346v-6.69l5.794-3.346 5.795 3.345v6.691l-5.795 3.346zm428.235 46.394-5.795-3.345v-6.691l5.795-3.346 5.794 3.346v6.691l-5.794 3.345zm-428.235 0-5.794-3.345v-6.691l5.794-3.346 5.795 3.346v6.691l-5.795 3.345zm428.235-92.785-5.795-3.345v-6.691l5.795-3.346 5.794 3.346v6.69l-5.794 3.346zm-428.235 0-5.794-3.345v-6.691l5.794-3.346 5.795 3.346v6.69l-5.795 3.346zm428.235 115.981-5.795-3.346v-6.691l5.795-3.346 5.794 3.346v6.691l-5.794 3.346zm-428.235 0-5.794-3.346v-6.691l5.794-3.346 5.795 3.346v6.691l-5.795 3.346zm428.235-92.785-5.795-3.346v-6.691l5.795-3.346 5.794 3.346v6.691l-5.794 3.346zm-428.235 0-5.794-3.346v-6.691l5.794-3.346 5.795 3.346v6.691l-5.795 3.346zm428.235 46.39-5.795-3.345v-6.692l5.795-3.345 5.794 3.345v6.692l-5.794 3.345zm-428.235 0-5.794-3.345v-6.692l5.794-3.345 5.795 3.345v6.692l-5.795 3.345zm428.235-92.785-5.795-3.346v-6.69l5.795-3.346 5.794 3.345v6.691l-5.794 3.346zm-428.235 0-5.794-3.346v-6.69l5.794-3.346 5.795 3.345v6.691l-5.795 3.346zm421.543 150.777-5.794-3.345v-6.691l5.794-3.346 5.795 3.346v6.691l-5.795 3.345zm-428.234 0-5.795-3.345v-6.691l5.795-3.346 5.795 3.346v6.691l-5.795 3.345zm428.234-92.785-5.794-3.345v-6.692l5.794-3.345 5.795 3.346v6.69l-5.795 3.346zm-428.234 0-5.795-3.345v-6.692l5.795-3.345 5.795 3.346v6.69l-5.795 3.346zm428.234 46.391-5.794-3.346v-6.691l5.794-3.345 5.795 3.345v6.691l-5.795 3.346zm-428.234 0-5.795-3.346v-6.691l5.795-3.345 5.795 3.345v6.691l-5.795 3.346zm428.234-92.781-5.794-3.346v-6.691l5.794-3.346 5.795 3.346v6.691l-5.795 3.346zm-428.234 0-5.795-3.346v-6.691l5.795-3.346 5.795 3.346v6.691l-5.795 3.346zm428.234 115.98-5.794-3.345v-6.692l5.794-3.345 5.795 3.345v6.692l-5.795 3.345zm-428.234 0-5.795-3.345v-6.692l5.795-3.345 5.795 3.345v6.692l-5.795 3.345zM715.957 59.71l-5.794-3.345v-6.69l5.794-3.346 5.795 3.345v6.691l-5.795 3.346zm-428.234 0-5.795-3.345v-6.69l5.795-3.346 5.795 3.345v6.691l-5.795 3.346zm428.234 46.392-5.794-3.346v-6.691l5.794-3.346 5.795 3.346v6.691l-5.795 3.346zm-428.234 0-5.795-3.346v-6.691l5.795-3.346 5.795 3.346v6.691l-5.795 3.346zm428.234-92.786-5.794-3.345V3.28l5.794-3.346 5.795 3.346v6.69l-5.795 3.346zm-428.234 0-5.795-3.345V3.28l5.795-3.346 5.795 3.346v6.69l-5.795 3.346zm220.808 173.973-5.794-3.346v-6.691l5.794-3.345 5.795 3.345v6.691l-5.795 3.346zm-428.238 0-5.794-3.346v-6.691l5.794-3.345 5.795 3.345v6.691l-5.795 3.346zM461.691-.062l5.795 3.345v6.691l-5.795 3.346-5.795-3.346v-6.69l5.795-3.346zM33.457-.066l5.794 3.345V9.97l-5.794 3.346-5.795-3.346V3.28l5.795-3.346zm475.074 94.57-5.794-3.346v-6.69l5.794-3.346 5.795 3.345v6.691l-5.795 3.346zm-428.238 0L74.5 91.158v-6.69l5.794-3.346 5.795 3.345v6.691l-5.795 3.346zm381.398-1.785 5.795 3.345v6.692l-5.795 3.345-5.795-3.345v-6.692l5.795-3.345zm-428.234 0 5.794 3.345v6.692l-5.794 3.345-5.795-3.345v-6.692l5.795-3.345zm475.074 48.179-5.794-3.345v-6.691l5.794-3.346 5.795 3.346v6.691l-5.795 3.345zm-428.238 0-5.794-3.345v-6.691l5.794-3.346 5.795 3.346v6.691l-5.795 3.345zm381.398-94.57 5.795 3.346v6.69l-5.795 3.347-5.795-3.346v-6.691l5.795-3.346zm-428.234 0 5.794 3.346v6.69l-5.794 3.347-5.795-3.346v-6.691l5.795-3.346zm475.074 1.785-5.794-3.345v-6.691l5.794-3.346 5.795 3.346v6.69l-5.795 3.346zm-428.238 0L74.5 44.768v-6.691l5.794-3.346 5.795 3.346v6.69l-5.795 3.346zm381.398 91 5.795 3.346v6.691l-5.795 3.346-5.795-3.346v-6.691l5.795-3.346zm-428.234 0 5.794 3.346v6.691l-5.794 3.346-5.795-3.346v-6.691l5.795-3.346zm475.074 24.981-5.794-3.346v-6.691l5.794-3.346 5.795 3.346v6.691l-5.795 3.346zm-428.238 0-5.794-3.346v-6.691l5.794-3.346 5.795 3.346v6.691l-5.795 3.346zM461.691 23.133l5.795 3.345v6.692l-5.795 3.345-5.795-3.345v-6.692l5.795-3.345zm-428.234 0 5.794 3.345v6.692l-5.794 3.345-5.795-3.345v-6.692l5.795-3.345zm475.074 48.176-5.794-3.346v-6.691l5.794-3.346 5.795 3.346v6.691l-5.795 3.346zm-428.238 0L74.5 67.963v-6.691l5.794-3.346 5.795 3.346v6.691l-5.795 3.346zm381.398 44.609 5.795 3.346v6.691l-5.795 3.345-5.795-3.345v-6.691l5.795-3.346zm-428.234 0 5.794 3.346v6.691l-5.794 3.345-5.795-3.345v-6.691l5.795-3.346zm475.074 1.781-5.794-3.345v-6.692l5.794-3.345 5.795 3.345v6.692l-5.795 3.345zm-428.238 0-5.794-3.345v-6.692l5.794-3.345 5.795 3.345v6.692l-5.795 3.345zm381.398-48.176 5.795 3.346v6.691l-5.795 3.346-5.795-3.346v-6.69l5.795-3.346zm-428.234 0 5.794 3.346v6.691l-5.794 3.346-5.795-3.346v-6.69l5.795-3.346zm475.074-44.609-5.794-3.346v-6.69l5.794-3.346 5.795 3.345v6.691l-5.795 3.346zm-428.238 0L74.5 21.568v-6.69l5.794-3.346 5.795 3.345v6.691l-5.795 3.346zm381.398 137.395 5.795 3.345v6.691l-5.795 3.346-5.795-3.346v-6.691l5.795-3.345zm-428.234 0 5.794 3.345v6.691l-5.794 3.346-5.795-3.346v-6.691l5.795-3.345zm468.383 13.382-5.795-3.345v-6.691l5.795-3.346 5.795 3.346v6.691l-5.795 3.345zm-428.238 0-5.795-3.345v-6.691l5.795-3.346 5.794 3.346v6.691l-5.794 3.345zM468.383 11.535l5.794 3.346v6.69l-5.794 3.346-5.795-3.345V14.88l5.795-3.346zm-428.235 0 5.795 3.346v6.69l-5.795 3.346-5.795-3.345V14.88l5.795-3.346zM501.84 82.906l-5.795-3.345v-6.692l5.795-3.345 5.795 3.346v6.69l-5.795 3.346zm-428.238 0-5.795-3.345v-6.692l5.795-3.345 5.794 3.346v6.69l-5.794 3.346zm394.781 21.414 5.794 3.346v6.691l-5.794 3.346-5.795-3.346v-6.691l5.795-3.346zm-428.235-.004 5.795 3.346v6.691l-5.795 3.346-5.795-3.346v-6.691l5.795-3.346zm461.692 24.981-5.795-3.346v-6.691l5.795-3.345 5.795 3.345v6.691l-5.795 3.346zm-428.238 0-5.795-3.346v-6.691l5.795-3.345 5.794 3.345v6.691l-5.794 3.346zm394.781-71.371 5.794 3.345v6.692l-5.794 3.345-5.795-3.346v-6.69l5.795-3.346zm-428.235 0 5.795 3.345v6.692l-5.795 3.345-5.795-3.346v-6.69l5.795-3.346zm461.692-21.41-5.795-3.346v-6.691l5.795-3.346 5.795 3.346v6.691l-5.795 3.346zm-428.238 0-5.795-3.346v-6.691l5.795-3.346 5.794 3.346v6.691l-5.794 3.346zm394.781 114.195 5.794 3.346v6.691l-5.794 3.345-5.795-3.345v-6.691l5.795-3.346zm-428.235 0 5.795 3.346v6.691l-5.795 3.345-5.795-3.345v-6.691l5.795-3.346zm461.692 1.785-5.795-3.345v-6.692l5.795-3.345 5.795 3.345v6.692l-5.795 3.345zm-428.238 0-5.795-3.345v-6.692l5.795-3.345 5.794 3.345v6.692l-5.794 3.345zM468.383 34.73l5.794 3.346v6.691l-5.794 3.346-5.795-3.346v-6.69l5.795-3.346zm-428.235 0 5.795 3.346v6.691l-5.795 3.346-5.795-3.346v-6.69l5.795-3.346zM501.84 59.71l-5.795-3.345v-6.69l5.795-3.346 5.795 3.345v6.691l-5.795 3.346zm-428.238 0-5.795-3.345v-6.69l5.795-3.346 5.794 3.345v6.691l-5.794 3.346zm394.781 67.806 5.794 3.345v6.691l-5.794 3.346-5.795-3.346v-6.691l5.795-3.345zm-428.235 0 5.795 3.345v6.691l-5.795 3.346-5.795-3.346v-6.691l5.795-3.345zm461.692-21.414-5.795-3.346v-6.691l5.795-3.346 5.795 3.346v6.691l-5.795 3.346zm-428.238 0-5.795-3.346v-6.691l5.795-3.346 5.794 3.346v6.691l-5.794 3.346zm394.781-24.981 5.794 3.346v6.69l-5.794 3.346-5.795-3.345v-6.691l5.795-3.346zm-428.235 0 5.795 3.346v6.69l-5.795 3.346-5.795-3.345v-6.691l5.795-3.346zM501.84 13.316l-5.795-3.345V3.28l5.795-3.346 5.795 3.346v6.69l-5.795 3.346zm-428.238 0-5.795-3.345V3.28l5.795-3.346 5.794 3.346v6.69l-5.794 3.346zm394.781 160.59 5.794 3.346v6.691l-5.794 3.346-5.795-3.346v-6.691l5.795-3.346zm-428.235 0 5.795 3.346v6.691l-5.795 3.346-5.795-3.346v-6.691l5.795-3.346zm829.704 13.383-5.795-3.346v-6.691l5.795-3.345 5.795 3.345v6.691l-5.795 3.346zm0-92.785-5.795-3.346v-6.69l5.795-3.346 5.795 3.345v6.691l-5.795 3.346zm0 46.394-5.795-3.345v-6.691l5.795-3.346 5.795 3.346v6.691l-5.795 3.345zm0-92.785-5.795-3.345v-6.691l5.795-3.346 5.795 3.346v6.69l-5.795 3.346zm0 115.981-5.795-3.346v-6.691l5.795-3.346 5.795 3.346v6.691l-5.795 3.346zm0-92.785-5.795-3.346v-6.691l5.795-3.346 5.795 3.346v6.691l-5.795 3.346zm0 46.39-5.795-3.345v-6.692l5.795-3.345 5.795 3.345v6.692l-5.795 3.345zm0-92.785-5.795-3.346v-6.69l5.795-3.346 5.795 3.345v6.691l-5.795 3.346zm-6.692 150.777-5.794-3.345v-6.691l5.794-3.346 5.795 3.346v6.691l-5.795 3.345zm0-92.785-5.794-3.345v-6.692l5.794-3.345 5.795 3.346v6.69l-5.795 3.346zm0 46.391-5.794-3.346v-6.691l5.794-3.345 5.795 3.345v6.691l-5.795 3.346zm0-92.781-5.794-3.346v-6.691l5.794-3.346 5.795 3.346v6.691l-5.795 3.346zm0 115.98-5.794-3.345v-6.692l5.794-3.345 5.795 3.345v6.692l-5.795 3.345zm0-92.786-5.794-3.345v-6.69l5.794-3.346 5.795 3.345v6.691l-5.795 3.346zm0 46.392-5.794-3.346v-6.691l5.794-3.346 5.795 3.346v6.691l-5.795 3.346zm0-92.786-5.794-3.345V3.28l5.794-3.346 5.795 3.346v6.69l-5.795 3.346zM655.735 187.289l-5.795-3.346v-6.691l5.795-3.345 5.794 3.345v6.691l-5.794 3.346zm-428.235 0-5.794-3.346v-6.691l5.794-3.345 5.795 3.345v6.691l-5.795 3.346zm428.235-92.785-5.795-3.346v-6.69l5.795-3.346 5.794 3.345v6.691l-5.794 3.346zm-428.235 0-5.794-3.346v-6.69l5.794-3.346 5.795 3.345v6.691l-5.795 3.346zm428.235 46.394-5.795-3.345v-6.691l5.795-3.346 5.794 3.346v6.691l-5.794 3.345zm-428.235 0-5.794-3.345v-6.691l5.794-3.346 5.795 3.346v6.691l-5.795 3.345zm428.235-92.785-5.795-3.345v-6.691l5.795-3.346 5.794 3.346v6.69l-5.794 3.346zm-428.235 0-5.794-3.345v-6.691l5.794-3.346 5.795 3.346v6.69l-5.795 3.346zm428.235 115.981-5.795-3.346v-6.691l5.795-3.346 5.794 3.346v6.691l-5.794 3.346zm-428.235 0-5.794-3.346v-6.691l5.794-3.346 5.795 3.346v6.691l-5.795 3.346zm428.235-92.785-5.795-3.346v-6.691l5.795-3.346 5.794 3.346v6.691l-5.794 3.346zm-428.235 0-5.794-3.346v-6.691l5.794-3.346 5.795 3.346v6.691l-5.795 3.346zm428.235 46.39-5.795-3.345v-6.692l5.795-3.345 5.794 3.345v6.692l-5.794 3.345zm-428.235 0-5.794-3.345v-6.692l5.794-3.345 5.795 3.345v6.692l-5.795 3.345zm428.235-92.785-5.795-3.346v-6.69l5.795-3.346 5.794 3.345v6.691l-5.794 3.346zm-428.235 0-5.794-3.346v-6.69l5.794-3.346 5.795 3.345v6.691l-5.795 3.346zm421.543 150.777-5.795-3.345v-6.691l5.795-3.346 5.795 3.346v6.691l-5.795 3.345zm-428.234 0-5.795-3.345v-6.691l5.795-3.346 5.795 3.346v6.691l-5.795 3.345zm428.234-92.785-5.795-3.345v-6.692l5.795-3.345 5.795 3.346v6.69l-5.795 3.346zm-428.234 0-5.795-3.345v-6.692l5.795-3.345 5.795 3.346v6.69l-5.795 3.346zm428.234 46.391-5.795-3.346v-6.691l5.795-3.345 5.795 3.345v6.691l-5.795 3.346zm-428.234 0-5.795-3.346v-6.691l5.795-3.345 5.795 3.345v6.691l-5.795 3.346zm428.234-92.781-5.795-3.346v-6.691l5.795-3.346 5.795 3.346v6.691l-5.795 3.346zm-428.234 0-5.795-3.346v-6.691l5.795-3.346 5.795 3.346v6.691l-5.795 3.346zm428.234 115.98-5.795-3.345v-6.692l5.795-3.345 5.795 3.345v6.692l-5.795 3.345zm-428.234 0-5.795-3.345v-6.692l5.795-3.345 5.795 3.345v6.692l-5.795 3.345zM649.043 59.71l-5.795-3.345v-6.69l5.795-3.346 5.795 3.345v6.691l-5.795 3.346zm-428.234 0-5.795-3.345v-6.69l5.795-3.346 5.795 3.345v6.691l-5.795 3.346zm428.234 46.392-5.795-3.346v-6.691l5.795-3.346 5.795 3.346v6.691l-5.795 3.346zm-428.234 0-5.795-3.346v-6.691l5.795-3.346 5.795 3.346v6.691l-5.795 3.346zm428.234-92.786-5.795-3.345V3.28l5.795-3.346 5.795 3.346v6.69l-5.795 3.346zm-428.234 0-5.795-3.345V3.28l5.795-3.346 5.795 3.346v6.69l-5.795 3.346zm541.984 173.973-5.795-3.346v-6.691l5.795-3.345 5.795 3.345v6.691l-5.795 3.346zm-428.234 0-5.795-3.346v-6.691l5.795-3.345 5.795 3.345v6.691l-5.795 3.346zm428.234-92.785-5.795-3.346v-6.69l5.795-3.346 5.795 3.345v6.691l-5.795 3.346zm-428.234 0-5.795-3.346v-6.69l5.795-3.346 5.795 3.345v6.691l-5.795 3.346zm428.234 46.394-5.795-3.345v-6.691l5.795-3.346 5.795 3.346v6.691l-5.795 3.345zm-428.234 0-5.795-3.345v-6.691l5.795-3.346 5.795 3.346v6.691l-5.795 3.345zm428.234-92.785-5.795-3.345v-6.691l5.795-3.346 5.795 3.346v6.69l-5.795 3.346zm-428.234 0-5.795-3.345v-6.691l5.795-3.346 5.795 3.346v6.69l-5.795 3.346zm428.234 115.981-5.795-3.346v-6.691l5.795-3.346 5.795 3.346v6.691l-5.795 3.346zm-428.234 0-5.795-3.346v-6.691l5.795-3.346 5.795 3.346v6.691l-5.795 3.346zm428.234-92.785-5.795-3.346v-6.691l5.795-3.346 5.795 3.346v6.691l-5.795 3.346zm-428.234 0-5.795-3.346v-6.691l5.795-3.346 5.795 3.346v6.691l-5.795 3.346zm428.234 46.39-5.795-3.345v-6.692l5.795-3.345 5.795 3.345v6.692l-5.795 3.345zm-428.234 0-5.795-3.345v-6.692l5.795-3.345 5.795 3.345v6.692l-5.795 3.345zm428.234-92.785-5.795-3.346v-6.69l5.795-3.346 5.795 3.345v6.691l-5.795 3.346zm-428.234 0-5.795-3.346v-6.69l5.795-3.346 5.795 3.345v6.691l-5.795 3.346zm421.543 150.777-5.795-3.345v-6.691l5.795-3.346 5.795 3.346v6.691l-5.795 3.345zm-428.235 0-5.794-3.345v-6.691l5.794-3.346 5.795 3.346v6.691l-5.795 3.345zm428.235-92.785-5.795-3.345v-6.692l5.795-3.345 5.795 3.346v6.69l-5.795 3.346zm-428.235 0-5.794-3.345v-6.692l5.794-3.345 5.795 3.346v6.69l-5.795 3.346zm428.235 46.391-5.795-3.346v-6.691l5.795-3.345 5.795 3.345v6.691l-5.795 3.346zm-428.235 0-5.794-3.346v-6.691l5.794-3.345 5.795 3.345v6.691l-5.795 3.346zm428.235-92.781-5.795-3.346v-6.691l5.795-3.346 5.795 3.346v6.691l-5.795 3.346zm-428.235 0-5.794-3.346v-6.691l5.794-3.346 5.795 3.346v6.691l-5.795 3.346zm428.235 115.98-5.795-3.345v-6.692l5.795-3.345 5.795 3.345v6.692l-5.795 3.345zm-428.235 0-5.794-3.345v-6.692l5.794-3.345 5.795 3.345v6.692l-5.795 3.345zM756.102 59.71l-5.795-3.345v-6.69l5.795-3.346 5.795 3.345v6.691l-5.795 3.346zm-428.235 0-5.794-3.345v-6.69l5.794-3.346 5.795 3.345v6.691l-5.795 3.346zm428.235 46.392-5.795-3.346v-6.691l5.795-3.346 5.795 3.346v6.691l-5.795 3.346zm-428.235 0-5.794-3.346v-6.691l5.794-3.346 5.795 3.346v6.691l-5.795 3.346zm428.235-92.786-5.795-3.345V3.28l5.795-3.346 5.795 3.346v6.69l-5.795 3.346zm-428.235 0-5.794-3.345V3.28l5.794-3.346 5.795 3.346v6.69l-5.795 3.346zm220.809 173.973-5.795-3.346v-6.691l5.795-3.345 5.795 3.345v6.691l-5.795 3.346zm-428.234 0-5.795-3.346v-6.691l5.795-3.345 5.794 3.345v6.691l-5.794 3.346zm428.234-92.785-5.795-3.346v-6.69l5.795-3.346 5.795 3.345v6.691l-5.795 3.346zm-428.234 0-5.795-3.346v-6.69l5.795-3.346 5.794 3.345v6.691l-5.794 3.346zm428.234 46.394-5.795-3.345v-6.691l5.795-3.346 5.795 3.346v6.691l-5.795 3.345zm-428.234 0-5.795-3.345v-6.691l5.795-3.346 5.794 3.346v6.691l-5.794 3.345zm428.234-92.785-5.795-3.345v-6.691l5.795-3.346 5.795 3.346v6.69l-5.795 3.346zm-428.234 0-5.795-3.345v-6.691l5.795-3.346 5.794 3.346v6.69l-5.794 3.346zm428.234 115.981-5.795-3.346v-6.691l5.795-3.346 5.795 3.346v6.691l-5.795 3.346zm-428.234 0-5.795-3.346v-6.691l5.795-3.346 5.794 3.346v6.691l-5.794 3.346zm428.234-92.785-5.795-3.346v-6.691l5.795-3.346 5.795 3.346v6.691l-5.795 3.346zm-428.234 0-5.795-3.346v-6.691l5.795-3.346 5.794 3.346v6.691l-5.794 3.346zm428.234 46.39-5.795-3.345v-6.692l5.795-3.345 5.795 3.345v6.692l-5.795 3.345zm-428.234 0-5.795-3.345v-6.692l5.795-3.345 5.794 3.345v6.692l-5.794 3.345zm428.234-92.785-5.795-3.346v-6.69l5.795-3.346 5.795 3.345v6.691l-5.795 3.346zm-428.234 0-5.795-3.346v-6.69l5.795-3.346 5.794 3.345v6.691l-5.794 3.346zm421.543 150.777-5.795-3.345v-6.691l5.795-3.346 5.794 3.346v6.691l-5.794 3.345zm-428.235 0-5.794-3.345v-6.691l5.794-3.346 5.795 3.346v6.691l-5.795 3.345zM428.238 11.535l5.795 3.346v6.69l-5.795 3.346-5.795-3.345V14.88l5.795-3.346zM0 11.535l5.794 3.346v6.69L0 24.918l-5.795-3.345V14.88L0 11.535zm541.985 71.371-5.795-3.345v-6.692l5.795-3.345 5.794 3.346v6.69l-5.794 3.346zm-428.235 0-5.794-3.345v-6.692l5.794-3.345 5.795 3.346v6.69l-5.795 3.346zm314.488 21.414 5.795 3.346v6.691l-5.795 3.346-5.795-3.346v-6.691l5.795-3.346zM0 104.316l5.794 3.346v6.691L0 117.699l-5.795-3.346v-6.691L0 104.316zm541.985 24.981-5.795-3.346v-6.691l5.795-3.345 5.794 3.345v6.691l-5.794 3.346zm-428.235 0-5.794-3.346v-6.691l5.794-3.345 5.795 3.345v6.691l-5.795 3.346zm314.488-71.371 5.795 3.345v6.692l-5.795 3.345-5.795-3.346v-6.69l5.795-3.346zM0 57.926l5.794 3.345v6.692L0 71.308l-5.795-3.346v-6.69L0 57.925zm541.985-21.41-5.795-3.346v-6.691l5.795-3.346 5.794 3.346v6.691l-5.794 3.346zm-428.235 0-5.794-3.346v-6.691l5.794-3.346 5.795 3.346v6.691l-5.795 3.346zm314.488 114.195 5.795 3.346v6.691l-5.795 3.345-5.795-3.345v-6.691l5.795-3.346zM0 150.711l5.794 3.346v6.691L0 164.093l-5.795-3.345v-6.691L0 150.711zm541.985 1.785-5.795-3.345v-6.692l5.795-3.345 5.794 3.345v6.692l-5.794 3.345zm-428.235 0-5.794-3.345v-6.692l5.794-3.345 5.795 3.345v6.692l-5.795 3.345zM428.238 34.73l5.795 3.346v6.691l-5.795 3.346-5.795-3.346v-6.69l5.795-3.346zM0 34.73l5.794 3.346v6.691L0 48.113l-5.795-3.346v-6.69L0 34.73zm541.985 24.98-5.795-3.345v-6.69l5.795-3.346 5.794 3.345v6.691l-5.794 3.346zm-428.235 0-5.794-3.345v-6.69l5.794-3.346 5.795 3.345v6.691l-5.795 3.346zm314.488 67.806 5.795 3.345v6.691l-5.795 3.346-5.795-3.346v-6.691l5.795-3.345zM0 127.516l5.794 3.345v6.691L0 140.898l-5.795-3.346v-6.691L0 127.516zm541.985-21.414-5.795-3.346v-6.691l5.795-3.346 5.794 3.346v6.691l-5.794 3.346zm-428.235 0-5.794-3.346v-6.691l5.794-3.346 5.795 3.346v6.691l-5.795 3.346zm314.488-24.981 5.795 3.346v6.69l-5.795 3.346-5.795-3.345v-6.691l5.795-3.346zM0 81.121l5.794 3.346v6.69L0 94.504l-5.795-3.345v-6.691L0 81.12zm541.985-67.805-5.795-3.345V3.28l5.795-3.346 5.794 3.346v6.69l-5.794 3.346zm-428.235 0-5.794-3.345V3.28l5.794-3.346 5.795 3.346v6.69l-5.795 3.346zm314.488 160.59 5.795 3.346v6.691l-5.795 3.346-5.795-3.346v-6.691l5.795-3.346zM0 173.906l5.794 3.346v6.691L0 187.289l-5.795-3.346v-6.691L0 173.906zm816.324 13.383-5.794-3.346v-6.691l5.794-3.345 5.795 3.345v6.691l-5.795 3.346zm-428.234 0-5.795-3.346v-6.691l5.795-3.345 5.795 3.345v6.691l-5.795 3.346zm428.234-92.785-5.794-3.346v-6.69l5.794-3.346 5.795 3.345v6.691l-5.795 3.346zm-428.234 0-5.795-3.346v-6.69l5.795-3.346 5.795 3.345v6.691l-5.795 3.346zm428.234 46.394-5.794-3.345v-6.691l5.794-3.346 5.795 3.346v6.691l-5.795 3.345zm-428.234 0-5.795-3.345v-6.691l5.795-3.346 5.795 3.346v6.691l-5.795 3.345zm428.234-92.785-5.794-3.345v-6.691l5.794-3.346 5.795 3.346v6.69l-5.795 3.346zm-428.234 0-5.795-3.345v-6.691l5.795-3.346 5.795 3.346v6.69l-5.795 3.346zm428.234 115.981-5.794-3.346v-6.691l5.794-3.346 5.795 3.346v6.691l-5.795 3.346zm-428.234 0-5.795-3.346v-6.691l5.795-3.346 5.795 3.346v6.691l-5.795 3.346zm428.234-92.785-5.794-3.346v-6.691l5.794-3.346 5.795 3.346v6.691l-5.795 3.346zm-428.234 0-5.795-3.346v-6.691l5.795-3.346 5.795 3.346v6.691l-5.795 3.346zm428.234 46.39-5.794-3.345v-6.692l5.794-3.345 5.795 3.345v6.692l-5.795 3.345zm-428.234 0-5.795-3.345v-6.692l5.795-3.345 5.795 3.345v6.692l-5.795 3.345zm428.234-92.785-5.794-3.346v-6.69l5.794-3.346 5.795 3.345v6.691l-5.795 3.346zm-428.234 0-5.795-3.346v-6.69l5.795-3.346 5.795 3.345v6.691l-5.795 3.346zm421.543 150.777-5.795-3.345v-6.691l5.795-3.346 5.795 3.346v6.691l-5.795 3.345zm-428.234 0-5.795-3.345v-6.691l5.795-3.346 5.794 3.346v6.691l-5.794 3.345zm428.234-92.785-5.795-3.345v-6.692l5.795-3.345 5.795 3.346v6.69l-5.795 3.346zm-428.234 0-5.795-3.345v-6.692l5.795-3.345 5.794 3.346v6.69l-5.794 3.346zm428.234 46.391-5.795-3.346v-6.691l5.795-3.345 5.795 3.345v6.691l-5.795 3.346zm-428.234 0-5.795-3.346v-6.691l5.795-3.345 5.794 3.345v6.691l-5.794 3.346zm428.234-92.781-5.795-3.346v-6.691l5.795-3.346 5.795 3.346v6.691l-5.795 3.346zm-428.234 0-5.795-3.346v-6.691l5.795-3.346 5.794 3.346v6.691l-5.794 3.346zm428.234 115.98-5.795-3.345v-6.692l5.795-3.345 5.795 3.345v6.692l-5.795 3.345zm-428.234 0-5.795-3.345v-6.692l5.795-3.345 5.794 3.345v6.692l-5.794 3.345zM809.633 59.71l-5.795-3.345v-6.69l5.795-3.346 5.795 3.345v6.691l-5.795 3.346zm-428.234 0-5.795-3.345v-6.69l5.795-3.346 5.794 3.345v6.691l-5.794 3.346zm428.234 46.392-5.795-3.346v-6.691l5.795-3.346 5.795 3.346v6.691l-5.795 3.346zm-428.234 0-5.795-3.346v-6.691l5.795-3.346 5.794 3.346v6.691l-5.794 3.346zm428.234-92.786-5.795-3.345V3.28l5.795-3.346 5.795 3.346v6.69l-5.795 3.346zm-428.234 0-5.795-3.345V3.28l5.795-3.346 5.794 3.346v6.69l-5.794 3.346zm220.808 173.973-5.794-3.346v-6.691l5.794-3.345 5.795 3.345v6.691l-5.795 3.346zm-428.234 0-5.795-3.346v-6.691l5.795-3.345 5.795 3.345v6.691l-5.795 3.346zm428.234-92.785-5.794-3.346v-6.69l5.794-3.346 5.795 3.345v6.691l-5.795 3.346zm-428.234 0-5.795-3.346v-6.69l5.795-3.346 5.795 3.345v6.691l-5.795 3.346zm428.234 46.394-5.794-3.345v-6.691l5.794-3.346 5.795 3.346v6.691l-5.795 3.345zm-428.234 0-5.795-3.345v-6.691l5.795-3.346 5.795 3.346v6.691l-5.795 3.345zm428.234-92.785-5.794-3.345v-6.691l5.794-3.346 5.795 3.346v6.69l-5.795 3.346zm-428.234 0-5.795-3.345v-6.691l5.795-3.346 5.795 3.346v6.69l-5.795 3.346zm428.234 115.981-5.794-3.346v-6.691l5.794-3.346 5.795 3.346v6.691l-5.795 3.346zm-428.234 0-5.795-3.346v-6.691l5.795-3.346 5.795 3.346v6.691l-5.795 3.346zm428.234-92.785-5.794-3.346v-6.691l5.794-3.346 5.795 3.346v6.691l-5.795 3.346zm-428.234 0-5.795-3.346v-6.691l5.795-3.346 5.795 3.346v6.691l-5.795 3.346zm428.234 46.39-5.794-3.345v-6.692l5.794-3.345 5.795 3.345v6.692l-5.795 3.345zm-428.234 0-5.795-3.345v-6.692l5.795-3.345 5.795 3.345v6.692l-5.795 3.345zm428.234-92.785-5.794-3.346v-6.69l5.794-3.346 5.795 3.345v6.691l-5.795 3.346zm-428.234 0-5.795-3.346v-6.69l5.795-3.346 5.795 3.345v6.691l-5.795 3.346zm421.543 150.777-5.795-3.345v-6.691l5.795-3.346 5.795 3.346v6.691l-5.795 3.345zm-428.235 0-5.794-3.345v-6.691l5.794-3.346 5.795 3.346v6.691l-5.795 3.345zm428.235-92.785-5.795-3.345v-6.692l5.795-3.345 5.795 3.346v6.69l-5.795 3.346zm-428.235 0-5.794-3.345v-6.692l5.794-3.345 5.795 3.346v6.69l-5.795 3.346zm428.235 46.391-5.795-3.346v-6.691l5.795-3.345 5.795 3.345v6.691l-5.795 3.346zm-428.235 0-5.794-3.346v-6.691l5.794-3.345 5.795 3.345v6.691l-5.795 3.346zm428.235-92.781-5.795-3.346v-6.691l5.795-3.346 5.795 3.346v6.691l-5.795 3.346zm-428.235 0-5.794-3.346v-6.691l5.794-3.346 5.795 3.346v6.691l-5.795 3.346zm428.235 115.98-5.795-3.345v-6.692l5.795-3.345 5.795 3.345v6.692l-5.795 3.345zm-428.235 0-5.794-3.345v-6.692l5.794-3.345 5.795 3.345v6.692l-5.795 3.345zM595.516 59.71l-5.795-3.345v-6.69l5.795-3.346 5.795 3.345v6.691l-5.795 3.346zm-428.235 0-5.794-3.345v-6.69l5.794-3.346 5.795 3.345v6.691l-5.795 3.346zm428.235 46.392-5.795-3.346v-6.691l5.795-3.346 5.795 3.346v6.691l-5.795 3.346zm-428.235 0-5.794-3.346v-6.691l5.794-3.346 5.795 3.346v6.691l-5.795 3.346zm428.235-92.786-5.795-3.345V3.28l5.795-3.346 5.795 3.346v6.69l-5.795 3.346zm-428.235 0-5.794-3.345V3.28l5.794-3.346 5.795 3.346v6.69l-5.795 3.346zm541.985 173.973-5.795-3.346v-6.691l5.795-3.345 5.795 3.345v6.691l-5.795 3.346zm-428.235 0-5.794-3.346v-6.691l5.794-3.345 5.795 3.345v6.691l-5.795 3.346zm428.235-92.785-5.795-3.346v-6.69l5.795-3.346 5.795 3.345v6.691l-5.795 3.346zm-428.235 0-5.794-3.346v-6.69l5.794-3.346 5.795 3.345v6.691l-5.795 3.346zm428.235 46.394-5.795-3.345v-6.691l5.795-3.346 5.795 3.346v6.691l-5.795 3.345zm-428.235 0-5.794-3.345v-6.691l5.794-3.346 5.795 3.346v6.691l-5.795 3.345zm428.235-92.785-5.795-3.345v-6.691l5.795-3.346 5.795 3.346v6.69l-5.795 3.346zm-428.235 0-5.794-3.345v-6.691l5.794-3.346 5.795 3.346v6.69l-5.795 3.346zm428.235 115.981-5.795-3.346v-6.691l5.795-3.346 5.795 3.346v6.691l-5.795 3.346zm-428.235 0-5.794-3.346v-6.691l5.794-3.346 5.795 3.346v6.691l-5.795 3.346zm428.235-92.785-5.795-3.346v-6.691l5.795-3.346 5.795 3.346v6.691l-5.795 3.346zm-428.235 0-5.794-3.346v-6.691l5.794-3.346 5.795 3.346v6.691l-5.795 3.346zm428.235 46.39-5.795-3.345v-6.692l5.795-3.345 5.795 3.345v6.692l-5.795 3.345zm-428.235 0-5.794-3.345v-6.692l5.794-3.345 5.795 3.345v6.692l-5.795 3.345zm428.235-92.785-5.795-3.346v-6.69l5.795-3.346 5.795 3.345v6.691l-5.795 3.346zm-428.235 0-5.794-3.346v-6.69l5.794-3.346 5.795 3.345v6.691l-5.795 3.346zm421.543 150.777-5.794-3.345v-6.691l5.794-3.346 5.795 3.346v6.691l-5.795 3.345zm-428.234 0-5.795-3.345v-6.691l5.795-3.346 5.795 3.346v6.691l-5.795 3.345zm428.234-92.785-5.794-3.345v-6.692l5.794-3.345 5.795 3.346v6.69l-5.795 3.346zm-428.234 0-5.795-3.345v-6.692l5.795-3.345 5.795 3.346v6.69l-5.795 3.346zm428.234 46.391-5.794-3.346v-6.691l5.794-3.345 5.795 3.345v6.691l-5.795 3.346zm-428.234 0-5.795-3.346v-6.691l5.795-3.345 5.795 3.345v6.691l-5.795 3.346zm428.234-92.781-5.794-3.346v-6.691l5.794-3.346 5.795 3.346v6.691l-5.795 3.346zm-428.234 0-5.795-3.346v-6.691l5.795-3.346 5.795 3.346v6.691l-5.795 3.346zm428.234 115.98-5.794-3.345v-6.692l5.794-3.345 5.795 3.345v6.692l-5.795 3.345zm-428.234 0-5.795-3.345v-6.692l5.795-3.345 5.795 3.345v6.692l-5.795 3.345zM702.574 59.71l-5.794-3.345v-6.69l5.794-3.346 5.795 3.345v6.691l-5.795 3.346zm-428.234 0-5.795-3.345v-6.69l5.795-3.346 5.795 3.345v6.691l-5.795 3.346zm428.234 46.392-5.794-3.346v-6.691l5.794-3.346 5.795 3.346v6.691l-5.795 3.346zm-428.234 0-5.795-3.346v-6.691l5.795-3.346 5.795 3.346v6.691l-5.795 3.346zm428.234-92.786-5.794-3.345V3.28l5.794-3.346 5.795 3.346v6.69l-5.795 3.346zm-428.234 0-5.795-3.345V3.28l5.795-3.346 5.795 3.346v6.69l-5.795 3.346zm220.809 173.973-5.795-3.346v-6.691l5.795-3.345 5.794 3.345v6.691l-5.794 3.346zm-428.239 0-5.794-3.346v-6.691l5.794-3.345 5.795 3.345v6.691l-5.795 3.346zM475.074-.062l5.795 3.345v6.691l-5.795 3.346-5.795-3.346v-6.69l5.795-3.346zM46.84-.066l5.794 3.345V9.97l-5.794 3.346-5.795-3.346V3.28L46.84-.067zm448.309 94.57-5.795-3.346v-6.69l5.795-3.346 5.794 3.345v6.691l-5.794 3.346zm-428.239 0-5.794-3.346v-6.69l5.794-3.346 5.795 3.345v6.691l-5.795 3.346zm408.164-1.785 5.795 3.345v6.692l-5.795 3.345-5.795-3.345v-6.692l5.795-3.345zm-428.234 0 5.794 3.345v6.692l-5.794 3.345-5.795-3.345v-6.692l5.795-3.345zm448.309 48.179-5.795-3.345v-6.691l5.795-3.346 5.794 3.346v6.691l-5.794 3.345zm-428.239 0-5.794-3.345v-6.691l5.794-3.346 5.795 3.346v6.691l-5.795 3.345zm408.164-94.57 5.795 3.346v6.69l-5.795 3.347-5.795-3.346v-6.691l5.795-3.346zm-428.234 0 5.794 3.346v6.69l-5.794 3.347-5.795-3.346v-6.691l5.795-3.346zm448.309 1.785-5.795-3.345v-6.691l5.795-3.346 5.794 3.346v6.69l-5.794 3.346zm-428.239 0-5.794-3.345v-6.691l5.794-3.346 5.795 3.346v6.69l-5.795 3.346zm408.164 91 5.795 3.346v6.691l-5.795 3.346-5.795-3.346v-6.691l5.795-3.346zm-428.234 0 5.794 3.346v6.691l-5.794 3.346-5.795-3.346v-6.691l5.795-3.346zm448.309 24.981-5.795-3.346v-6.691l5.795-3.346 5.794 3.346v6.691l-5.794 3.346zm-428.239 0-5.794-3.346v-6.691l5.794-3.346 5.795 3.346v6.691l-5.795 3.346zM475.074 23.133l5.795 3.345v6.692l-5.795 3.345-5.795-3.345v-6.692l5.795-3.345zm-428.234 0 5.794 3.345v6.692l-5.794 3.345-5.795-3.345v-6.692l5.795-3.345zm448.309 48.176-5.795-3.346v-6.691l5.795-3.346 5.794 3.346v6.691l-5.794 3.346zm-428.239 0-5.794-3.346v-6.691l5.794-3.346 5.795 3.346v6.691l-5.795 3.346zm408.164 44.609 5.795 3.346v6.691l-5.795 3.345-5.795-3.345v-6.691l5.795-3.346zm-428.234 0 5.794 3.346v6.691L46.84 129.3l-5.795-3.345v-6.691l5.795-3.346zm448.309 1.781-5.795-3.345v-6.692l5.795-3.345 5.794 3.345v6.692l-5.794 3.345zm-428.239 0-5.794-3.345v-6.692l5.794-3.345 5.795 3.345v6.692l-5.795 3.345zm408.164-48.176 5.795 3.346v6.691l-5.795 3.346-5.795-3.346v-6.69l5.795-3.346zm-428.234 0 5.794 3.346v6.691l-5.794 3.346-5.795-3.346v-6.69l5.795-3.346zm448.309-44.609-5.795-3.346v-6.69l5.795-3.346 5.794 3.345v6.691l-5.794 3.346zm-428.239 0-5.794-3.346v-6.69l5.794-3.346 5.795 3.345v6.691l-5.795 3.346zm408.164 137.395 5.795 3.345v6.691l-5.795 3.346-5.795-3.346v-6.691l5.795-3.345zm-428.234 0 5.794 3.345v6.691l-5.794 3.346-5.795-3.346v-6.691l5.795-3.345zm441.617 13.382-5.794-3.345v-6.691l5.794-3.346 5.795 3.346v6.691l-5.795 3.345zm-428.234 0-5.795-3.345v-6.691l5.795-3.346 5.795 3.346v6.691l-5.795 3.345zM481.765 11.535l5.795 3.346v6.69l-5.795 3.346-5.794-3.345V14.88l5.794-3.346zm-428.234 0 5.795 3.346v6.69l-5.795 3.346-5.795-3.345V14.88l5.795-3.346zm434.926 71.371-5.794-3.345v-6.692l5.794-3.345 5.795 3.346v6.69l-5.795 3.346zm-428.234 0-5.795-3.345v-6.692l5.795-3.345 5.795 3.346v6.69l-5.795 3.346zm421.542 21.414 5.795 3.346v6.691l-5.795 3.346-5.794-3.346v-6.691l5.794-3.346zm-428.234-.004 5.795 3.346v6.691l-5.795 3.346-5.795-3.346v-6.691l5.795-3.346zm434.926 24.981-5.794-3.346v-6.691l5.794-3.345 5.795 3.345v6.691l-5.795 3.346zm-428.234 0-5.795-3.346v-6.691l5.795-3.345 5.795 3.345v6.691l-5.795 3.346zm421.542-71.371 5.795 3.345v6.692l-5.795 3.345-5.794-3.346v-6.69l5.794-3.346zm-428.234 0 5.795 3.345v6.692l-5.795 3.345-5.795-3.346v-6.69l5.795-3.346zm434.926-21.41-5.794-3.346v-6.691l5.794-3.346 5.795 3.346v6.691l-5.795 3.346zm-428.234 0-5.795-3.346v-6.691l5.795-3.346 5.795 3.346v6.691l-5.795 3.346zm421.542 114.195 5.795 3.346v6.691l-5.795 3.345-5.794-3.345v-6.691l5.794-3.346zm-428.234 0 5.795 3.346v6.691l-5.795 3.345-5.795-3.345v-6.691l5.795-3.346zm434.926 1.785-5.794-3.345v-6.692l5.794-3.345 5.795 3.345v6.692l-5.795 3.345zm-428.234 0-5.795-3.345v-6.692l5.795-3.345 5.795 3.345v6.692l-5.795 3.345zM481.765 34.73l5.795 3.346v6.691l-5.795 3.346-5.794-3.346v-6.69l5.794-3.346zm-428.234 0 5.795 3.346v6.691l-5.795 3.346-5.795-3.346v-6.69l5.795-3.346zm434.926 24.98-5.794-3.345v-6.69l5.794-3.346 5.795 3.345v6.691l-5.795 3.346zm-428.234 0-5.795-3.345v-6.69l5.795-3.346 5.795 3.345v6.691l-5.795 3.346zm421.542 67.806 5.795 3.345v6.691l-5.795 3.346-5.794-3.346v-6.691l5.794-3.345zm-428.234 0 5.795 3.345v6.691l-5.795 3.346-5.795-3.346v-6.691l5.795-3.345zm434.926-21.414-5.794-3.346v-6.691l5.794-3.346 5.795 3.346v6.691l-5.795 3.346zm-428.234 0-5.795-3.346v-6.691l5.795-3.346 5.795 3.346v6.691l-5.795 3.346zm421.542-24.981 5.795 3.346v6.69l-5.795 3.346-5.794-3.345v-6.691l5.794-3.346zm-428.234 0 5.795 3.346v6.69l-5.795 3.346-5.795-3.345v-6.691l5.795-3.346zm434.926-67.805-5.794-3.345V3.28l5.794-3.346 5.795 3.346v6.69l-5.795 3.346zm-428.234 0-5.795-3.345V3.28l5.795-3.346 5.795 3.346v6.69l-5.795 3.346zm421.542 160.59 5.795 3.346v6.691l-5.795 3.346-5.794-3.346v-6.691l5.794-3.346zm-428.234 0 5.795 3.346v6.691l-5.795 3.346-5.795-3.346v-6.691l5.795-3.346z" fill="#1A1A1C"/></svg>
