<svg viewBox="0 0 148 18" fill="none" xmlns="http://www.w3.org/2000/svg">
    <path d="M0 0.260001H6.838C8.45 0.260001 9.6893 0.381331 10.556 0.624001C11.44 0.849331 12.064 1.222 12.428 1.742C12.792 2.24467 12.974 2.95533 12.974 3.874V5.954C12.974 6.422 12.7833 6.864 12.402 7.28C12.038 7.696 11.6047 7.982 11.102 8.138V8.268C11.7607 8.33733 12.3587 8.62333 12.896 9.126C13.4507 9.6113 13.728 10.1573 13.728 10.764V13.364C13.728 14.7333 13.182 15.704 12.09 16.276C10.998 16.848 9.308 17.134 7.02 17.134H0V0.260001ZM6.838 7.124C7.47933 7.124 7.956 7.072 8.268 6.968C8.58 6.864 8.788 6.69933 8.892 6.474C9.01333 6.23133 9.074 5.88467 9.074 5.434V4.602C9.074 4.20333 9.022 3.90867 8.918 3.718C8.814 3.51 8.59733 3.36267 8.268 3.276C7.956 3.18933 7.45333 3.146 6.76 3.146H4.056V7.124H6.838ZM6.942 14.248C7.93 14.248 8.632 14.1353 9.048 13.91C9.464 13.6847 9.672 13.3207 9.672 12.818V11.466C9.672 10.842 9.5073 10.4 9.178 10.14C8.866 9.88 8.30267 9.75 7.488 9.75H4.056V14.248H6.942ZM16.5039 0.260001H20.5599V14.248H28.8539V17.134H16.5039V0.260001ZM31.5859 0.260001H35.6419V17.134H31.5859V0.260001ZM43.1793 3.146H37.9793V0.260001H52.4093V3.146H47.2353V17.134H43.1793V3.146ZM53.9622 14.664L62.7502 3.146H54.2222V0.260001H67.7422V2.704L58.9542 14.222H67.8982V17.134H53.9622V14.664ZM76.1221 17.394C74.5101 17.394 72.5168 17.238 70.1421 16.926V13.832C73.0888 14.2827 75.0994 14.508 76.1741 14.508C78.4274 14.508 79.5541 13.9273 79.5541 12.766V11.674C79.5541 11.1193 79.3894 10.6947 79.0601 10.4C78.7481 10.1053 78.1761 9.958 77.3441 9.958H75.3681C71.6588 9.958 69.8041 8.48467 69.8041 5.538V4.29C69.8041 2.81667 70.4194 1.73333 71.6501 1.04C72.8808 0.346671 74.8308 0 77.5001 0C78.8868 0 80.6461 0.112667 82.7781 0.338001V3.354C80.1608 3.042 78.3581 2.886 77.3701 2.886C76.0008 2.886 75.0821 2.99867 74.6141 3.224C74.1114 3.46667 73.8601 3.848 73.8601 4.368V5.564C73.8601 6.448 74.6054 6.89 76.0961 6.89H78.1241C80.0481 6.89 81.4434 7.24533 82.3101 7.956C83.1768 8.66667 83.6101 9.75 83.6101 11.206V12.324C83.6101 14.3347 82.8908 15.6953 81.4521 16.406C80.7588 16.77 79.9874 17.0213 79.1381 17.16C78.3061 17.316 77.3008 17.394 76.1221 17.394ZM90.3297 3.146H85.1297V0.260001H99.56V3.146H94.3857V17.134H90.3297V3.146ZM106.365 0.260001H111.305L117.389 17.134H113.281L111.773 12.688H105.611L104.129 17.134H100.125L106.365 0.260001ZM110.889 9.984L108.757 3.64H108.653L106.521 9.984H110.889ZM123.16 3.146H117.96V0.260001H132.39V3.146H127.216V17.134H123.16V3.146ZM140.183 17.394C138.571 17.394 136.577 17.238 134.203 16.926V13.832C137.149 14.2827 139.16 14.508 140.235 14.508C142.488 14.508 143.615 13.9273 143.615 12.766V11.674C143.615 11.1193 143.45 10.6947 143.121 10.4C142.809 10.1053 142.237 9.958 141.405 9.958H139.429C135.719 9.958 133.865 8.48467 133.865 5.538V4.29C133.865 2.81667 134.48 1.73333 135.711 1.04C136.941 0.346671 138.891 0 141.561 0C142.947 0 144.707 0.112667 146.839 0.338001V3.354C144.221 3.042 142.419 2.886 141.431 2.886C140.061 2.886 139.143 2.99867 138.675 3.224C138.172 3.46667 137.921 3.848 137.921 4.368V5.564C137.921 6.448 138.666 6.89 140.157 6.89H142.185C144.109 6.89 145.504 7.24533 146.371 7.956C147.237 8.66667 147.671 9.75 147.671 11.206V12.324C147.671 14.3347 146.951 15.6953 145.513 16.406C144.819 16.77 144.048 17.0213 143.199 17.16C142.367 17.316 141.361 17.394 140.183 17.394Z"
          fill="currentColor"/>
</svg>
