<svg xmlns="http://www.w3.org/2000/svg" fill="none" viewBox="0 0 150 17">
  <path fill="currentColor"
        d="M7.74 16.653 4.058 8.697h2.676l3.684 7.956H7.74ZM1.699 9.737V7.933h2.935v1.804H1.698Zm0-7.563V.347h2.935v1.827H1.698Zm5.985 3.261V4.65h2.619v.786H7.683Zm2.619-.763H7.683c0-.802-.278-1.418-.834-1.85-.538-.432-1.286-.648-2.245-.648V.347c1.132 0 2.12.185 2.964.555.863.355 1.535.864 2.014 1.527.48.647.72 1.395.72 2.243Zm0 .74a3.77 3.77 0 0 1-.72 2.267c-.48.648-1.15 1.156-2.014 1.526-.844.355-1.832.532-2.964.532V7.933c.96 0 1.707-.223 2.245-.67.556-.448.834-1.064.834-1.85h2.619ZM0 16.653V.347h2.619v16.306H0ZM23.91 12.675V4.302h2.619v8.373H23.91Zm-8.748 0V4.302h2.619v8.373h-2.619Zm11.367-8.35H23.91c0-.802-.278-1.418-.834-1.85-.538-.432-1.286-.648-2.245-.648V0c1.132 0 2.12.185 2.964.555.863.355 1.535.864 2.014 1.527.48.647.72 1.395.72 2.243Zm-11.367 0c0-.848.24-1.596.72-2.243.48-.663 1.15-1.172 2.014-1.527C18.759.185 19.747 0 20.86 0v1.827c-.96 0-1.717.216-2.273.648-.538.432-.806 1.048-.806 1.85h-2.619Zm11.367 8.327c0 .863-.24 1.619-.72 2.266-.48.648-1.15 1.157-2.014 1.527-.844.37-1.832.555-2.964.555v-1.827c.96 0 1.707-.216 2.245-.648.556-.447.834-1.072.834-1.873h2.619Zm-11.367 0h2.619c0 .802.268 1.426.806 1.873.556.432 1.314.648 2.273.648V17c-1.113 0-2.1-.185-2.964-.555-.863-.37-1.535-.879-2.014-1.527-.48-.647-.72-1.403-.72-2.266ZM35.448 11.033 39.965.347h2.475l-4.518 10.686h-2.474Zm0 5.62v-5.62h2.474v5.62h-2.474Zm0-5.62L30.9.347h2.705l4.316 10.686h-2.474ZM47.568 13.392v-1.804h7.367v1.804h-7.367ZM52.201.347l-4.95 16.306h-2.59L49.612.347h2.59Zm.057 0 4.95 16.306h-2.561L49.669.347h2.59ZM63.43 16.653v-1.827h7.395v1.827h-7.396Zm-1.756 0V.347h2.619v16.306h-2.619ZM77.197 13.392v-1.804h7.366v1.804h-7.366ZM81.83.347l-4.95 16.306h-2.59L79.24.347h2.59Zm.057 0 4.95 16.306h-2.562L79.297.347h2.59ZM99.043 16.653 95.36 8.697h2.676l3.684 7.956h-2.677Zm-6.042-6.916V7.933h2.935v1.804H93Zm0-7.563V.347h2.935v1.827H93Zm5.985 3.261V4.65h2.618v.786h-2.618Zm2.618-.763h-2.618c0-.802-.278-1.418-.835-1.85-.537-.432-1.285-.648-2.244-.648V.347c1.132 0 2.12.185 2.964.555.863.355 1.534.864 2.014 1.527.48.647.719 1.395.719 2.243Zm0 .74c0 .848-.239 1.604-.719 2.267-.48.648-1.151 1.156-2.014 1.526-.844.355-1.832.532-2.964.532V7.933c.96 0 1.707-.223 2.244-.67.557-.448.835-1.064.835-1.85h2.618ZM91.303 16.653V.347h2.618v16.306h-2.618ZM108.076 16.653v-1.827h7.971v1.827h-7.971Zm.432-7.193V7.586h5.813V9.46h-5.813ZM106.609.347h2.618v16.306h-2.618V.347Zm1.755 0h7.396v1.827h-7.396V.347ZM129.535 16.653 121.421.347h2.561l8.114 16.306h-2.561Zm-8.603 0V.347h2.618v16.306h-2.618Zm9.294 0V.347h2.619v16.306h-2.619ZM140.36 13.392v-1.804h7.367v1.804h-7.367ZM144.993.347l-4.949 16.306h-2.59L142.403.347h2.59Zm.058 0L150 16.653h-2.561L142.461.347h2.59Z" />
</svg>
