<svg xmlns="http://www.w3.org/2000/svg" viewBox="0 0 150 24" fill="none">
  <path fill="#FAC704"
    d="M4.097 10.653h3.649c1.346 0 2.333-.25 2.96-.75.639-.5.958-1.285.958-2.355 0-1.06-.32-1.84-.957-2.34-.628-.5-1.615-.75-2.961-.75H4.097v6.195ZM0 23.253V.917h7.537c2.82 0 4.92.55 6.295 1.65 1.376 1.09 2.064 2.765 2.064 5.025 0 1.45-.354 2.66-1.062 3.63-.708.97-1.725 1.64-3.05 2.01l4.934 10.02h-4.5l-4.293-9.06H4.097v9.06H0ZM23.328 12.138c0 2.53.423 4.45 1.27 5.76.848 1.3 2.09 1.95 3.724 1.95 1.635 0 2.876-.65 3.724-1.95.847-1.31 1.27-3.23 1.27-5.76 0-2.55-.423-4.485-1.27-5.805-.848-1.32-2.089-1.98-3.724-1.98-1.635 0-2.876.66-3.723 1.98-.848 1.32-1.271 3.255-1.271 5.805Zm-4.247 0c0-3.61.817-6.425 2.452-8.445 1.635-2.03 3.898-3.045 6.79-3.045 2.89 0 5.153 1.015 6.788 3.045 1.645 2.02 2.468 4.835 2.468 8.445 0 3.59-.823 6.404-2.468 8.444-1.645 2.03-3.908 3.045-6.789 3.045-2.87 0-5.129-1.015-6.774-3.045-1.645-2.04-2.467-4.854-2.467-8.444ZM45.25 23.252v-8.82L38.79.919H43.2l4.292 9.285L51.71.918h4.112l-6.37 13.485v8.85H45.25ZM61.878 14.808h5.668l-2.842-9.99-2.826 9.99Zm-6.4 8.444L62.192.918h5.234l6.7 22.334h-4.188l-1.376-4.89h-7.686l-1.42 4.89h-3.978ZM76.712 23.252V.918h4.262v18.524h9.39v3.81H76.713ZM105.244 16.593l3.858 1.064c-.549 1.93-1.525 3.41-2.931 4.44-1.406 1.02-3.16 1.53-5.264 1.53-2.89 0-5.074-.965-6.55-2.895-1.475-1.93-2.213-4.774-2.213-8.534 0-3.69.783-6.535 2.348-8.535 1.565-2.01 3.783-3.015 6.654-3.015 2.004 0 3.649.5 4.935 1.5 1.286 1 2.144 2.445 2.572 4.335l-3.858.945c-.279-1.07-.748-1.88-1.406-2.43-.647-.55-1.475-.825-2.482-.825-1.515 0-2.647.67-3.394 2.01-.748 1.33-1.122 3.345-1.122 6.045 0 2.62.374 4.554 1.122 5.804.747 1.25 1.909 1.875 3.484 1.875 1.027 0 1.919-.295 2.677-.885.757-.6 1.281-1.41 1.57-2.43ZM112.421 15.048V.918h4.188v14.31c0 1.66.333 2.86 1.001 3.6.668.74 1.745 1.11 3.23 1.11 1.576 0 2.697-.356 3.365-1.066.678-.72 1.017-1.934 1.017-3.644V.918h4.067v14.805c0 2.54-.733 4.494-2.198 5.864-1.455 1.36-3.539 2.04-6.251 2.04-2.831 0-4.944-.705-6.34-2.115-1.386-1.42-2.079-3.575-2.079-6.464ZM138.486 10.683h3.11c1.535 0 2.617-.24 3.245-.72.638-.48.957-1.285.957-2.415 0-1.14-.319-1.95-.957-2.43-.628-.48-1.71-.72-3.245-.72h-3.11v6.285Zm-4.232 12.57V.917h7.955c2.622 0 4.576.55 5.862 1.65 1.286 1.09 1.929 2.75 1.929 4.98 0 2.18-.628 3.84-1.884 4.98-1.256 1.13-3.091 1.695-5.503 1.695h-4.127v9.03h-4.232Z" />
</svg>