<svg viewBox="0 0 24 24" fill="none" xmlns="http://www.w3.org/2000/svg">
<g id="mdi:cog">
<path id="Vector" d="M11.7293 15.5C10.8011 15.5 9.91084 15.1313 9.25446 14.4749C8.59808 13.8185 8.22933 12.9283 8.22933 12C8.22933 11.0717 8.59808 10.1815 9.25446 9.52513C9.91084 8.86875 10.8011 8.5 11.7293 8.5C12.6576 8.5 13.5478 8.86875 14.2042 9.52513C14.8606 10.1815 15.2293 11.0717 15.2293 12C15.2293 12.9283 14.8606 13.8185 14.2042 14.4749C13.5478 15.1313 12.6576 15.5 11.7293 15.5ZM19.1593 12.97C19.1993 12.65 19.2293 12.33 19.2293 12C19.2293 11.67 19.1993 11.34 19.1593 11L21.2693 9.37C21.4593 9.22 21.5093 8.95 21.3893 8.73L19.3893 5.27C19.2693 5.05 18.9993 4.96 18.7793 5.05L16.2893 6.05C15.7693 5.66 15.2293 5.32 14.5993 5.07L14.2293 2.42C14.209 2.30222 14.1477 2.19543 14.0561 2.11855C13.9646 2.04168 13.8489 1.99968 13.7293 2H9.72933C9.47933 2 9.26933 2.18 9.22933 2.42L8.85933 5.07C8.22933 5.32 7.68933 5.66 7.16933 6.05L4.67933 5.05C4.45933 4.96 4.18933 5.05 4.06933 5.27L2.06933 8.73C1.93933 8.95 1.99933 9.22 2.18933 9.37L4.29933 11C4.25933 11.34 4.22933 11.67 4.22933 12C4.22933 12.33 4.25933 12.65 4.29933 12.97L2.18933 14.63C1.99933 14.78 1.93933 15.05 2.06933 15.27L4.06933 18.73C4.18933 18.95 4.45933 19.03 4.67933 18.95L7.16933 17.94C7.68933 18.34 8.22933 18.68 8.85933 18.93L9.22933 21.58C9.26933 21.82 9.47933 22 9.72933 22H13.7293C13.9793 22 14.1893 21.82 14.2293 21.58L14.5993 18.93C15.2293 18.67 15.7693 18.34 16.2893 17.94L18.7793 18.95C18.9993 19.03 19.2693 18.95 19.3893 18.73L21.3893 15.27C21.5093 15.05 21.4593 14.78 21.2693 14.63L19.1593 12.97Z" fill="currentColor" fill-opacity="1"/>
</g>
</svg>
