<svg width="32" height="32" fill="none" xmlns="http://www.w3.org/2000/svg">
    <path id="fill" d="M16 31.95c8.837 0 16-7.003 16-15.641S24.837.668 16 .668 0 7.671 0 16.309 7.163 31.95 16 31.95z"
          fill="#C2C2BE"/>
    <path d="M23.985 9.839c.143-.9-.733-1.61-1.551-1.26L6.132 15.578c-.587.252-.544 1.12.065 1.31l3.361 1.047c.642.2 1.337.096 1.897-.282l7.58-5.12c.228-.153.478.164.282.361l-5.456 5.499c-.529.533-.424 1.437.213 1.828l6.108 3.744c.685.42 1.567-.002 1.695-.811l2.108-13.314z"
          fill="#201f27"/>
</svg>
