<svg width="40" height="40" viewBox="0 0 40 40" fill="none" xmlns="http://www.w3.org/2000/svg">
<path d="M39.1624 9.707C38.936 8.79862 38.4948 7.97622 37.8859 7.32723C37.2598 6.65828 36.4925 6.17976 35.6562 5.93684C32.5267 5.00929 19.9883 5.00929 19.9883 5.00929C14.7613 4.94242 9.53546 5.23654 4.34044 5.89C3.50421 6.15086 2.73827 6.64007 2.11074 7.31411C1.49416 7.9812 1.04755 8.80381 0.814252 9.70513C0.253816 13.1 -0.0184822 16.5472 0.0010285 20C-0.0189688 23.4497 0.252661 26.8957 0.814252 30.2948C1.04255 31.1924 1.4875 32.0113 2.10575 32.6728C2.724 33.3342 3.49389 33.812 4.34044 34.065C7.51168 34.9907 19.9883 34.9907 19.9883 34.9907C25.2221 35.0576 30.4545 34.7635 35.6562 34.11C36.4925 33.8671 37.2598 33.3885 37.8859 32.7196C38.5025 32.0581 38.9408 31.2355 39.1608 30.3398C39.7358 26.9462 40.0154 23.4977 39.9956 20.0431C40.0389 16.5739 39.7596 13.1091 39.1624 9.70513V9.707ZM16.0022 26.416V13.5858L26.4341 20.0019L16.0022 26.416Z" fill="#F8F8F8"/>
</svg>
