<svg width="32" height="32" viewBox="0 0 32 32" fill="none" xmlns="http://www.w3.org/2000/svg">
    <path id="Vector" d="M13.8691 19.0797L19.1066 16.0047L13.8691 12.9297V19.0797Z"
          fill="#C2C2BE"/>
    <path id="Vector_2"
          d="M16 0C7.1625 0 0 7.1625 0 16C0 24.8375 7.1625 32 16 32C24.8375 32 32 24.8375 32 16C32 7.1625 24.8375 0 16 0ZM24 18.8625C24 21.6187 21.2437 21.6187 21.2437 21.6187H10.7563C8 21.6187 8 18.8625 8 18.8625V13.1437C8 10.3875 10.7563 10.3875 10.7563 10.3875H21.2437C24 10.3875 24 13.1437 24 13.1437V18.8625Z"
          fill="#C2C2BE"/>
</svg>
