<svg viewBox="0 0 400 233" version="1" xmlns="http://www.w3.org/2000/svg"><g fill="none" fill-rule="evenodd"><path fill="#B41404" fill-rule="nonzero" d="M0 117v116h400V0H0v117"/><path d="M106 104l-4 5-14-15c-6-6-6-6 1-12l4-3-18-2-16 14c-2 1-3 4-1 6l7 5 7-5 20 20-4 3c-3 2-19-1-29-11l-19 16c0 1 1 4 4 7 1 2 5 2 7 0l11-9c5 5 10 7 17 9 11 1 20-3 23-3l13 11c2-1 4-1 5-3l2-5-9-10c7-12 8-24 5-35-4-12-12-19-24-22 6 6 9 10 10 14 4 11 3 23 2 25z" fill="#F9F004" fill-rule="nonzero"/><path d="M92 48l-2-10 7-7-10-2-4-9-4 9-10 2 7 7-2 10 9-5 9 5z" stroke="#F9F004" stroke-width="2" fill="#B41404"/></g></svg>