<svg viewBox="0 0 400 234" version="1" xmlns="http://www.w3.org/2000/svg"><g fill="none" fill-rule="evenodd"><path fill="#BC1C02" d="M0 0h400v234H0z"/><path d="M0 117h400M130 0v234" stroke="#FFF" stroke-width="78"/><circle stroke="#FFF" stroke-width="6" fill="#000" cx="130" cy="117" r="79"/><path d="M0 117h400M130 0v234" stroke="#000" stroke-width="40"/><path d="M0 88h400M0 146h400" stroke="#000" stroke-width="6" fill="#FFF"/><path d="M101 0v234M160 0v234" stroke="#000" stroke-width="6"/><circle fill="#FFF" cx="131" cy="117" r="70"/><g stroke="#FFF" stroke-linecap="square"><path d="M60 94h5M59 140h5M198 140h5M198 94h5" stroke-width="6"/><path d="M153 45v5M107 45v5M107 183v5M153 185v5" stroke-width="7"/></g><circle stroke="#000" stroke-width="4" cx="131" cy="117" r="65"/><path d="M163 71H99c6 9 11 18 14 26v2h-2c-9-3-18-7-27-14v64c9-6 18-11 27-14l2-1v3c-3 9-8 18-15 27h65c-6-9-11-18-13-27l-1-2 2 1c9 3 17 7 26 14V85c-9 6-17 11-26 13l-2 1 1-2c2-9 7-17 13-26z" stroke="#000" stroke-width="3"/><path d="M144 79c-4 10-6 20-7 31 10-1 21-3 31-7v28c-10-4-21-6-31-7 1 10 3 21 7 31h-28c4-11 6-21 7-31-10 0-21 3-31 7v-28c10 4 21 6 31 7 0-10-3-21-7-31h28z" fill="#000"/></g></svg>