<svg version="1" xmlns="http://www.w3.org/2000/svg" viewBox="0 0 400 233"><g fill-rule="evenodd"><path d="M190 45l-12 2-4 1a71 71 0 0 0-51 57l-1 12c0 8 1 9 2 14l1 5 3 9a422 422 0 0 1 7 13 70 70 0 0 0 45 31l6 1a61 61 0 0 0 23-1l8-2a61 61 0 0 0 20-10c6-4 14-11 18-18 6-8 8-13 10-18 3-13 3-12 3-23s0-12-2-16l-1-6-2-5a187 187 0 0 1-5-10 71 71 0 0 0-61-36h-7" fill="#bc1c05"/><path d="M0 117v116h400V0H0v117m202-72a72 72 0 0 1 64 57c2 4 2 5 2 16s0 10-3 23c-2 5-4 10-10 18a66 66 0 0 1-22 21 61 61 0 0 1-24 9l-5 1a61 61 0 0 1-24-1 54 54 0 0 1-19-7 70 70 0 0 1-33-37l-3-9-1-5a58 58 0 0 1 1-31 70 70 0 0 1 39-48l10-4 4-1 12-2a1440 1440 0 0 0 12 0" fill="#fcfbfb"/></g></svg>