<svg version="1" xmlns="http://www.w3.org/2000/svg" viewBox="0 0 270 180"><style>.st1{fill:#ffef52}</style><path fill="#039" d="M0 0h270v180H0z"/><path class="st1" d="M135 20l2 7h7l-5 4 2 7-6-4-6 4 2-7-6-4h8l2-7zM187 110l2 7h7l-5 4 2 7-6-4-6 4 2-7-6-4h8l2-7zM135 140l2 7h7l-5 4 2 7-6-4-6 4 2-7-6-4h8l2-7zM195 80l2 7h7l-5 4 2 7-6-4-6 4 2-7-6-4h8l2-7zM75 80l2 7h8l-6 4 2 7-6-4-6 4 2-7-6-4h8l2-7zM165 28l2 7h7l-5 4 2 7-6-4-6 4 2-7-6-4h8l2-7zM105 28l2 7h8l-6 4 2 7-6-4-6 4 2-7-6-4h8l2-7zM105 132l2 7h8l-6 4 2 7-6-4-6 4 2-7-6-4h8l2-7zM165 132l2 7h7l-5 4 2 7-6-4-6 4 2-7-6-4h8l2-7zM187 50l2 7h7l-5 4 2 7-6-4-6 4 2-7-6-4h8l2-7zM83 50l2 7h8l-6 4 2 7-6-4-6 4 2-7-6-4h8l2-7zM83 110l2 7h8l-6 4 2 7-6-4-6 4 2-7-6-4h8l2-7z"/></svg>