<svg viewBox="0 0 400 233" version="1" xmlns="http://www.w3.org/2000/svg"><g fill-rule="nonzero" fill="none"><path fill="#2C2C2C" d="M0 233h400V0H0v117z"/><path d="M114 45l-1 1-35 17c-4 2-4 2-4 10v5l-1 2H0v10h73l1 2v13l-1 2H0v10h72l1 1 1 1v12l-1 1-1 1H0v10h72l1 1 1 1c0 7 0 11 2 12l35 35c3 3 3 1 3 22v19h9c-1-20 0-30 2-28l14 9 1 19h10l1-19c0-2 5-6 14-13 1 0 2 0 2 2v30h10v-42l34-33 2-3v-10l1-1 1-1h185v-10H215l-1-1-1-1v-12l1-1 1-1h185v-10H214l-1-2V92l1-2h186V80c-123 2-185 2-186 0-2-3-1-13-2-15s-33-17-35-19V0h-10v42c-1 1-6-1-15-4-2-1-2 0-2-21V0h-10v35c0 3-13 7-14 7l-2-2-1-21V0h-9v45zm86 29c2 4 2 72 0 74s-52 53-55 53c-4 0-55-47-58-52s-3-71 0-75 49-24 56-24 55 20 57 24zm-70-11l-15 49c-2 5 0 7 6 5 10-4 16-5 19-5 5 1-11 38-10 40s18-7 21-5-9 41-6 41 34-56 30-59c-3-3-21 4-22 3s16-42 14-44-20 6-21 4c-2-2 11-26 9-30s-4-5-10-6-12 1-15 7z" fill="#F9B914"/></g></svg>