<svg viewBox="0 0 60 61" fill="none" xmlns="http://www.w3.org/2000/svg">
<path d="M47.625 54.8164L40.3125 47.5664L34.8125 53.0664L33.0625 51.3164C32.1042 50.3581 31.625 49.1706 31.625 47.7539C31.625 46.3372 32.1042 45.1497 33.0625 44.1914L43.625 33.6289C44.5833 32.6706 45.7708 32.1914 47.1875 32.1914C48.6042 32.1914 49.7917 32.6706 50.75 33.6289L52.5 35.3789L47 40.8789L54.25 48.1914C54.75 48.6914 55 49.2747 55 49.9414C55 50.6081 54.75 51.1914 54.25 51.6914L51.125 54.8164C50.625 55.3164 50.0417 55.5664 49.375 55.5664C48.7083 55.5664 48.125 55.3164 47.625 54.8164ZM55 15.5664L26.625 43.9414L26.9375 44.1914C27.8958 45.1497 28.375 46.3372 28.375 47.7539C28.375 49.1706 27.8958 50.3581 26.9375 51.3164L25.1875 53.0664L19.6875 47.5664L12.375 54.8164C11.875 55.3164 11.2917 55.5664 10.625 55.5664C9.95833 55.5664 9.375 55.3164 8.875 54.8164L5.75 51.6914C5.25 51.1914 5 50.6081 5 49.9414C5 49.2747 5.25 48.6914 5.75 48.1914L13 40.8789L7.5 35.3789L9.25 33.6289C10.2083 32.6706 11.3958 32.1914 12.8125 32.1914C14.2292 32.1914 15.4167 32.6706 16.375 33.6289L16.625 33.9414L45 5.56641H55V15.5664ZM17.375 27.9414L5 15.5664V5.56641H15L27.375 17.9414L17.375 27.9414Z" fill="#FAC704"/>
</svg>
