<svg viewBox="0 0 60 66" fill="none" xmlns="http://www.w3.org/2000/svg">
<path d="M47.9495 13.5795H42.8213V8.01367H17.1802V13.5795H12.052C9.23152 13.5795 6.92383 16.0841 6.92383 19.1453V21.9282C6.92383 29.0246 11.8469 34.8131 18.1802 35.6758C18.9911 37.7612 20.2577 39.6009 21.8704 41.0361C23.4831 42.4713 25.3936 43.4588 27.4366 43.9132V52.5402H17.1802V58.106H42.8213V52.5402H32.5649V43.9132C34.6079 43.4588 36.5184 42.4713 38.1311 41.0361C39.7438 39.6009 41.0104 37.7612 41.8213 35.6758C48.1546 34.8131 53.0777 29.0246 53.0777 21.9282V19.1453C53.0777 16.0841 50.77 13.5795 47.9495 13.5795ZM12.052 21.9282V19.1453H17.1802V29.776C14.2059 28.6072 12.052 25.546 12.052 21.9282ZM47.9495 21.9282C47.9495 25.546 45.7956 28.6072 42.8213 29.776V19.1453H47.9495V21.9282Z" fill="#FAC704"/>
</svg>
