<svg viewBox="0 0 60 61" fill="none" xmlns="http://www.w3.org/2000/svg">
<path d="M22 55.8164H12V53.3164H22V55.8164ZM19.5 25.8164V18.3164H14.5V25.8164L12 29.5664V50.8164H22V29.5664L19.5 25.8164ZM17 5.81641C17 5.81641 14.5 8.31641 14.5 13.3164V15.8164H19.5V13.3164C19.5 13.3164 19.5 8.31641 17 5.81641Z" fill="#FAC704"/>
<path d="M35 55.8164H25V53.3164H35V55.8164ZM32.5 25.8164V18.3164H27.5V25.8164L25 29.5664V50.8164H35V29.5664L32.5 25.8164ZM30 5.81641C30 5.81641 27.5 8.31641 27.5 13.3164V15.8164H32.5V13.3164C32.5 13.3164 32.5 8.31641 30 5.81641Z" fill="#FAC704"/>
<path d="M48 55.8164H38V53.3164H48V55.8164ZM45.5 25.8164V18.3164H40.5V25.8164L38 29.5664V50.8164H48V29.5664L45.5 25.8164ZM43 5.81641C43 5.81641 40.5 8.31641 40.5 13.3164V15.8164H45.5V13.3164C45.5 13.3164 45.5 8.31641 43 5.81641Z" fill="#FAC704"/>
</svg>
