<svg viewBox="0 0 60 66" fill="none" xmlns="http://www.w3.org/2000/svg">
<path d="M36.9444 26.625L23.0556 40.375M23.0556 26.625L36.9444 40.375M5 29.1467C5 20.3522 5 15.955 6.05 14.4755C7.09722 12.9987 11.2722 11.5825 19.625 8.75275L21.2167 8.21375C25.5694 6.737 27.7444 6 30 6C32.2528 6 34.4306 6.737 38.7833 8.21375L40.375 8.75275C48.7278 11.5825 52.9028 12.9987 53.95 14.4755C55 15.955 55 20.355 55 29.1467V33.4753C55 40.364 52.675 45.677 49.4444 49.736M5.53611 39C7.91667 50.8195 17.7111 56.9108 24.1639 59.6993C26.1667 60.5655 27.1694 61 30 61C32.8333 61 33.8333 60.5655 35.8361 59.6993C37.4444 59.0063 39.2556 58.1043 41.1111 56.9658" stroke="#FE2A2A" stroke-width="3.75" stroke-linecap="round"/>
</svg>
