<svg width="31" height="31" viewBox="0 0 31 31" fill="none" xmlns="http://www.w3.org/2000/svg">
<g id="Frame">
<path id="Vector" fill-rule="evenodd" clip-rule="evenodd" d="M14.25 21.5C18.5302 21.5 22 19.933 22 18V21C22 22.933 18.5302 24.5 14.25 24.5C9.9698 24.5 6.5 22.933 6.5 21V18C6.5 19.933 9.9698 21.5 14.25 21.5Z" fill="#FAC40D"/>
<path id="Vector_2" fill-rule="evenodd" clip-rule="evenodd" d="M17.25 18C21.5302 18 25 16.433 25 14.5V17.5C25 19.433 21.5302 21 17.25 21C12.9698 21 9.5 19.433 9.5 17.5V14.5C9.5 16.433 12.9698 18 17.25 18Z" fill="#FAC40D"/>
<path id="Vector_3" fill-rule="evenodd" clip-rule="evenodd" d="M22 9.5C22 11.433 18.5302 13 14.25 13C9.9698 13 6.5 11.433 6.5 9.5V12.5C6.5 14.433 9.9698 16 14.25 16C18.5302 16 22 14.433 22 12.5V9.5ZM21.5 9.5C21.5 10.1482 20.8946 10.9003 19.5243 11.5192C18.2002 12.1172 16.3359 12.5 14.25 12.5C12.1641 12.5 10.2998 12.1172 8.9757 11.5192C7.60535 10.9003 7 10.1482 7 9.5C7 8.85185 7.60535 8.0997 8.9757 7.4808C10.2998 6.88285 12.1641 6.5 14.25 6.5C16.3359 6.5 18.2002 6.88285 19.5243 7.4808C20.8946 8.0997 21.5 8.85185 21.5 9.5Z" fill="#FAC40D"/>
</g>
</svg>
