<svg viewBox="0 0 60 66" fill="none" xmlns="http://www.w3.org/2000/svg">
<g clip-path="url(#clip0_7493_60708)">
<path d="M32.6871 56C32.8538 56 33.0204 55.9583 33.1871 55.875C33.3538 55.7917 33.4788 55.7083 33.5621 55.625L54.0621 35.125C54.5621 34.625 54.9271 34.0625 55.1571 33.4375C55.3871 32.8125 55.5013 32.1875 55.4996 31.5625C55.4996 30.8958 55.3854 30.26 55.1571 29.655C54.9288 29.05 54.5638 28.5192 54.0621 28.0625L43.4371 17.4375C42.9788 16.9375 42.4471 16.5733 41.8421 16.345C41.2371 16.1167 40.6029 16.0017 39.9396 16C39.3146 16 38.6896 16.115 38.0646 16.345C37.4396 16.575 36.8771 16.9392 36.3771 17.4375L35.6896 18.125L40.3146 22.8125C40.9396 23.3958 41.3979 24.0625 41.6896 24.8125C41.9813 25.5625 42.1271 26.3542 42.1271 27.1875C42.1271 28.9375 41.5338 30.4067 40.3471 31.595C39.1604 32.7833 37.6913 33.3767 35.9396 33.375C35.1063 33.375 34.3046 33.2292 33.5346 32.9375C32.7646 32.6458 32.0871 32.2083 31.5021 31.625L26.8121 27L15.8746 37.9375C15.7496 38.0625 15.6563 38.1983 15.5946 38.345C15.5329 38.4917 15.5013 38.6475 15.4996 38.8125C15.4996 39.1458 15.6246 39.4483 15.8746 39.72C16.1246 39.9917 16.4163 40.1267 16.7496 40.125C16.9163 40.125 17.0829 40.0833 17.2496 40C17.4163 39.9167 17.5413 39.8333 17.6246 39.75L26.1246 31.25L29.6246 34.75L21.1871 43.25C21.0621 43.375 20.9688 43.5108 20.9071 43.6575C20.8454 43.8042 20.8138 43.96 20.8121 44.125C20.8121 44.4583 20.9371 44.75 21.1871 45C21.4371 45.25 21.7288 45.375 22.0621 45.375C22.2288 45.375 22.3954 45.3333 22.5621 45.25C22.7288 45.1667 22.8538 45.0833 22.9371 45L31.4371 36.5625L34.9371 40.0625L26.4996 48.5625C26.3746 48.6458 26.2813 48.7708 26.2196 48.9375C26.1579 49.1042 26.1263 49.2708 26.1246 49.4375C26.1246 49.7708 26.2496 50.0625 26.4996 50.3125C26.7496 50.5625 27.0413 50.6875 27.3746 50.6875C27.5413 50.6875 27.6979 50.6558 27.8446 50.5925C27.9913 50.5292 28.1263 50.4358 28.2496 50.3125L36.7496 41.875L40.2496 45.375L31.7496 53.875C31.6246 54 31.5313 54.135 31.4696 54.28C31.4079 54.425 31.3763 54.5817 31.3746 54.75C31.3746 55.0833 31.5104 55.375 31.7821 55.625C32.0538 55.875 32.3554 56 32.6871 56ZM32.6246 61C31.0829 61 29.7188 60.49 28.5321 59.47C27.3454 58.45 26.6471 57.1683 26.4371 55.625C25.0204 55.4167 23.8329 54.8333 22.8746 53.875C21.9163 52.9167 21.3329 51.7292 21.1246 50.3125C19.7079 50.1042 18.5313 49.5108 17.5946 48.5325C16.6579 47.5542 16.0846 46.3767 15.8746 45C14.2913 44.7917 12.9996 44.1042 11.9996 42.9375C10.9996 41.7708 10.4996 40.3958 10.4996 38.8125C10.4996 37.9792 10.6563 37.1775 10.9696 36.4075C11.2829 35.6375 11.7304 34.96 12.3121 34.375L26.8121 19.9375L34.9996 28.125C35.0829 28.25 35.2079 28.3442 35.3746 28.4075C35.5413 28.4708 35.7079 28.5017 35.8746 28.5C36.2496 28.5 36.5621 28.3858 36.8121 28.1575C37.0621 27.9292 37.1871 27.6267 37.1871 27.25C37.1871 27.0833 37.1554 26.9167 37.0921 26.75C37.0288 26.5833 36.9354 26.4583 36.8121 26.375L27.8746 17.4375C27.4163 16.9375 26.8854 16.5733 26.2821 16.345C25.6788 16.1167 25.0429 16.0017 24.3746 16C23.7496 16 23.1246 16.115 22.4996 16.345C21.8746 16.575 21.3121 16.9392 20.8121 17.4375L11.9996 26.3125C11.6246 26.6875 11.3121 27.125 11.0621 27.625C10.8121 28.125 10.6454 28.625 10.5621 29.125C10.4788 29.625 10.4788 30.1358 10.5621 30.6575C10.6454 31.1792 10.8121 31.6683 11.0621 32.125L7.43711 35.75C6.72878 34.7917 6.20794 33.74 5.87461 32.595C5.54128 31.45 5.41628 30.2933 5.49961 29.125C5.58294 27.9583 5.87461 26.8233 6.37461 25.72C6.87461 24.6167 7.56211 23.6267 8.43711 22.75L17.2496 13.9375C18.2496 12.9792 19.3646 12.25 20.5946 11.75C21.8246 11.25 23.0846 11 24.3746 11C25.6663 11 26.9271 11.25 28.1571 11.75C29.3871 12.25 30.4804 12.9792 31.4371 13.9375L32.1246 14.625L32.8121 13.9375C33.8121 12.9792 34.9271 12.25 36.1571 11.75C37.3871 11.25 38.6471 11 39.9371 11C41.2288 11 42.4896 11.25 43.7196 11.75C44.9496 12.25 46.0429 12.9792 46.9996 13.9375L57.5621 24.5C58.5204 25.4583 59.2496 26.5625 59.7496 27.8125C60.2496 29.0625 60.4996 30.3333 60.4996 31.625C60.4996 32.9167 60.2496 34.1775 59.7496 35.4075C59.2496 36.6375 58.5204 37.7308 57.5621 38.6875L37.0621 59.125C36.4788 59.7083 35.8021 60.1667 35.0321 60.5C34.2621 60.8333 33.4596 61 32.6246 61Z" fill="#FAC704"/>
</g>
<defs>
<clipPath id="clip0_7493_60708">
<rect y="0.5" width="60" height="65.12" rx="15" fill="white"/>
</clipPath>
</defs>
</svg>
