<svg width="31" height="31" viewBox="0 0 31 31" fill="none" xmlns="http://www.w3.org/2000/svg">
<g id="Frame">
<path id="Vector" fill-rule="evenodd" clip-rule="evenodd" d="M24.6528 13.5517L22.0666 4.5L26.808 10.2867L24.6528 13.5517ZM17.4398 26.0517L28.0001 11.8276V18.7242L20.6725 22.6035H26.707L22.8277 25.1897L17.4398 26.0517ZM6.6638 13.5518L9.25 4.5001L4.50859 10.2868L6.6638 13.5518ZM13.5604 26.0518L3 11.8277V18.7243L10.3276 22.6036H4.29311L8.1724 25.1898L13.5604 26.0518ZM10.5 9.99998L15.5 7.99998L20.5 9.99998V18L15.5 22L10.5 18V9.99998ZM13.5 16.25L14.5 11L17.25 10.5L16.25 14L18.25 13.75L14.75 19.25L15.75 15.25L13.5 16.25Z" fill="#FAC40D"/>
</g>
</svg>
