<svg viewBox="0 0 60 66" fill="none" xmlns="http://www.w3.org/2000/svg">
<path d="M51.8889 6H9.11111C7.49034 6 5.93596 6.64385 4.7899 7.7899C3.64385 8.93596 3 10.4903 3 12.1111V54.8889C3 56.5097 3.64385 58.064 4.7899 59.2101C5.93596 60.3562 7.49034 61 9.11111 61H51.8889C53.5097 61 55.064 60.3562 56.2101 59.2101C57.3562 58.064 58 56.5097 58 54.8889V12.1111C58 10.4903 57.3562 8.93596 56.2101 7.7899C55.064 6.64385 53.5097 6 51.8889 6ZM51.8889 54.8889H9.11111V12.1111H51.8889V54.8889ZM21.3333 48.7778H15.2222V33.5H21.3333V48.7778ZM33.5556 48.7778H27.4444V18.2222H33.5556V48.7778ZM45.7778 48.7778H39.6667V27.3889H45.7778V48.7778Z" fill="#FAC704"/>
</svg>
