<svg width="36" height="36" viewBox="0 0 36 37" fill="none" xmlns="http://www.w3.org/2000/svg">
<path fill-rule="evenodd" clip-rule="evenodd" d="M20.2469 6.18269C19.7791 6 19.1861 6 18 6C16.8139 6 16.2208 6 15.7531 6.18269C15.1293 6.42628 14.6338 6.8935 14.3754 7.48156C14.2575 7.75001 14.2113 8.0622 14.1933 8.51759C14.1667 9.18682 13.8027 9.80627 13.1876 10.1411C12.5724 10.476 11.8214 10.4634 11.1935 10.1505C10.7661 9.93756 10.4563 9.81914 10.1507 9.78122C9.48137 9.69814 8.80443 9.86915 8.26883 10.2566C7.86712 10.5473 7.57059 11.0315 6.97755 11.9999C6.38451 12.9684 6.088 13.4526 6.02191 13.9259C5.93378 14.557 6.11517 15.1952 6.52617 15.7002C6.71376 15.9307 6.97739 16.1244 7.38656 16.3668C7.98809 16.7232 8.37514 17.3303 8.3751 18C8.37506 18.6697 7.98803 19.2767 7.38656 19.633C6.97733 19.8755 6.71364 20.0693 6.52604 20.2998C6.11505 20.8048 5.93367 21.4429 6.02179 22.074C6.08788 22.5473 6.3844 23.0316 6.97743 24C7.57047 24.9684 7.86699 25.4527 8.2687 25.7432C8.80431 26.1307 9.48124 26.3017 10.1506 26.2187C10.4561 26.1808 10.766 26.0623 11.1933 25.8494C11.8213 25.5365 12.5723 25.524 13.1875 25.8588C13.8027 26.1937 14.1667 26.8132 14.1933 27.4825C14.2113 27.9378 14.2575 28.25 14.3754 28.5185C14.6338 29.1065 15.1293 29.5738 15.7531 29.8174C16.2208 30 16.8139 30 18 30C19.1861 30 19.7791 30 20.2469 29.8174C20.8706 29.5738 21.3662 29.1065 21.6245 28.5185C21.7425 28.25 21.7887 27.9378 21.8068 27.4824C21.8333 26.8132 22.1972 26.1937 22.8124 25.8588C23.4275 25.5239 24.1786 25.5365 24.8066 25.8494C25.234 26.0623 25.5437 26.1806 25.8492 26.2186C26.5186 26.3017 27.1955 26.1307 27.7311 25.7432C28.1329 25.4526 28.4294 24.9684 29.0224 23.9999C29.6155 23.0315 29.9119 22.5473 29.9781 22.074C30.0662 21.4429 29.8848 20.8046 29.4739 20.2997C29.2862 20.0692 29.0225 19.8754 28.6133 19.633C28.0119 19.2767 27.6249 18.6696 27.6249 17.9999C27.6249 17.3302 28.0119 16.7233 28.6133 16.367C29.0227 16.1245 29.2863 15.9308 29.474 15.7002C29.8849 15.1953 30.0663 14.557 29.9782 13.926C29.9121 13.4527 29.6156 12.9684 29.0225 12C28.4295 11.0316 28.133 10.5473 27.7312 10.2567C27.1956 9.86923 26.5187 9.69822 25.8494 9.78131C25.5438 9.81923 25.234 9.93763 24.8068 10.1506C24.1787 10.4635 23.4276 10.476 22.8125 10.1412C22.1973 9.80629 21.8333 9.18679 21.8066 8.51753C21.7886 8.06218 21.7425 7.75 21.6245 7.48156C21.3662 6.8935 20.8706 6.42628 20.2469 6.18269ZM18 21.6C20.1088 21.6 21.8183 19.9883 21.8183 18C21.8183 16.0117 20.1088 14.4 18 14.4C15.8911 14.4 14.1817 16.0117 14.1817 18C14.1817 19.9883 15.8911 21.6 18 21.6Z" fill="#606060" stroke="#606060"/>
</svg>
