<svg width="36" height="37" viewBox="0 0 36 37" fill="none" xmlns="http://www.w3.org/2000/svg">
<path fill-rule="evenodd" clip-rule="evenodd" d="M20.2469 6.68269C19.7791 6.5 19.1861 6.5 18 6.5C16.8139 6.5 16.2208 6.5 15.7531 6.68269C15.1293 6.92628 14.6338 7.3935 14.3754 7.98156C14.2575 8.25001 14.2113 8.5622 14.1933 9.01759C14.1667 9.68682 13.8027 10.3063 13.1876 10.6411C12.5724 10.976 11.8214 10.9634 11.1935 10.6505C10.7661 10.4376 10.4563 10.3191 10.1507 10.2812C9.48137 10.1981 8.80443 10.3691 8.26883 10.7566C7.86712 11.0473 7.57059 11.5315 6.97755 12.4999C6.38451 13.4684 6.088 13.9526 6.02191 14.4259C5.93378 15.057 6.11517 15.6952 6.52617 16.2002C6.71376 16.4307 6.97739 16.6244 7.38656 16.8668C7.98809 17.2232 8.37514 17.8303 8.3751 18.5C8.37506 19.1697 7.98803 19.7767 7.38656 20.133C6.97733 20.3755 6.71364 20.5693 6.52604 20.7998C6.11505 21.3048 5.93367 21.9429 6.02179 22.574C6.08788 23.0473 6.3844 23.5316 6.97743 24.5C7.57047 25.4684 7.86699 25.9527 8.2687 26.2432C8.80431 26.6307 9.48124 26.8017 10.1506 26.7187C10.4561 26.6808 10.766 26.5623 11.1933 26.3494C11.8213 26.0365 12.5723 26.024 13.1875 26.3588C13.8027 26.6937 14.1667 27.3132 14.1933 27.9825C14.2113 28.4378 14.2575 28.75 14.3754 29.0185C14.6338 29.6065 15.1293 30.0738 15.7531 30.3174C16.2208 30.5 16.8139 30.5 18 30.5C19.1861 30.5 19.7791 30.5 20.2469 30.3174C20.8706 30.0738 21.3662 29.6065 21.6245 29.0185C21.7425 28.75 21.7887 28.4378 21.8068 27.9824C21.8333 27.3132 22.1972 26.6937 22.8124 26.3588C23.4275 26.0239 24.1786 26.0365 24.8066 26.3494C25.234 26.5623 25.5437 26.6806 25.8492 26.7186C26.5186 26.8017 27.1955 26.6307 27.7311 26.2432C28.1329 25.9526 28.4294 25.4684 29.0224 24.4999C29.6155 23.5315 29.9119 23.0473 29.9781 22.574C30.0662 21.9429 29.8848 21.3046 29.4739 20.7997C29.2862 20.5692 29.0225 20.3754 28.6133 20.133C28.0119 19.7767 27.6249 19.1696 27.6249 18.4999C27.6249 17.8302 28.0119 17.2233 28.6133 16.867C29.0227 16.6245 29.2863 16.4308 29.474 16.2002C29.8849 15.6953 30.0663 15.057 29.9782 14.426C29.9121 13.9527 29.6156 13.4684 29.0225 12.5C28.4295 11.5316 28.133 11.0473 27.7312 10.7567C27.1956 10.3692 26.5187 10.1982 25.8494 10.2813C25.5438 10.3192 25.234 10.4376 24.8068 10.6506C24.1787 10.9635 23.4276 10.976 22.8125 10.6412C22.1973 10.3063 21.8333 9.68679 21.8066 9.01753C21.7886 8.56218 21.7425 8.25 21.6245 7.98156C21.3662 7.3935 20.8706 6.92628 20.2469 6.68269ZM18 22.1C20.1088 22.1 21.8183 20.4883 21.8183 18.5C21.8183 16.5117 20.1088 14.9 18 14.9C15.8911 14.9 14.1817 16.5117 14.1817 18.5C14.1817 20.4883 15.8911 22.1 18 22.1Z" fill="#101011" stroke="#606060"/>
</svg>
