<svg width="36" height="36" viewBox="0 0 36 37" fill="none" xmlns="http://www.w3.org/2000/svg">
  <g id="button">
    <path id="Vector"
      d="M11.955 24.5L7.5 29C7.005 29.45 6.345 29.75 5.625 29.75C4.92881 29.75 4.26113 29.4734 3.76884 28.9812C3.27656 28.4889 3 27.8212 3 27.125V26.75L4.5 15.68C4.65121 13.9934 5.42751 12.4244 6.67644 11.2809C7.92537 10.1374 9.55668 9.50222 11.25 9.5H24.75C28.29 9.5 31.185 12.215 31.5 15.68L33 26.75V27.125C33 27.8212 32.7234 28.4889 32.2312 28.9812C31.7389 29.4734 31.0712 29.75 30.375 29.75C29.655 29.75 28.995 29.45 28.5 29L24.045 24.5H11.955ZM10.5 12.5V15.5H7.5V17H10.5V20H12V17H15V15.5H12V12.5H10.5ZM24.75 12.5C24.4516 12.5 24.1655 12.6185 23.9545 12.8295C23.7435 13.0405 23.625 13.3266 23.625 13.625C23.625 13.9234 23.7435 14.2095 23.9545 14.4205C24.1655 14.6315 24.4516 14.75 24.75 14.75C25.0484 14.75 25.3345 14.6315 25.5455 14.4205C25.7565 14.2095 25.875 13.9234 25.875 13.625C25.875 13.3266 25.7565 13.0405 25.5455 12.8295C25.3345 12.6185 25.0484 12.5 24.75 12.5ZM22.125 15.125C21.8266 15.125 21.5405 15.2435 21.3295 15.4545C21.1185 15.6655 21 15.9516 21 16.25C21 16.5484 21.1185 16.8345 21.3295 17.0455C21.5405 17.2565 21.8266 17.375 22.125 17.375C22.4234 17.375 22.7095 17.2565 22.9205 17.0455C23.1315 16.8345 23.25 16.5484 23.25 16.25C23.25 15.9516 23.1315 15.6655 22.9205 15.4545C22.7095 15.2435 22.4234 15.125 22.125 15.125ZM27.375 15.125C27.0766 15.125 26.7905 15.2435 26.5795 15.4545C26.3685 15.6655 26.25 15.9516 26.25 16.25C26.25 16.5484 26.3685 16.8345 26.5795 17.0455C26.7905 17.2565 27.0766 17.375 27.375 17.375C27.6734 17.375 27.9595 17.2565 28.1705 17.0455C28.3815 16.8345 28.5 16.5484 28.5 16.25C28.5 15.9516 28.3815 15.6655 28.1705 15.4545C27.9595 15.2435 27.6734 15.125 27.375 15.125ZM24.75 17.75C24.4516 17.75 24.1655 17.8685 23.9545 18.0795C23.7435 18.2905 23.625 18.5766 23.625 18.875C23.625 19.1734 23.7435 19.4595 23.9545 19.6705C24.1655 19.8815 24.4516 20 24.75 20C25.0484 20 25.3345 19.8815 25.5455 19.6705C25.7565 19.4595 25.875 19.1734 25.875 18.875C25.875 18.5766 25.7565 18.2905 25.5455 18.0795C25.3345 17.8685 25.0484 17.75 24.75 17.75Z"
      fill="currentColor" />
  </g>
</svg>