<svg width="36" height="37" viewBox="0 0 36 37" fill="none" xmlns="http://www.w3.org/2000/svg">
<path fill-rule="evenodd" clip-rule="evenodd" d="M25.0039 20.1953C27.0589 21.5903 28.4989 23.4803 28.4989 26.0003V30.5003H32.9989C33.8239 30.5003 34.4989 29.8253 34.4989 29.0003V26.0003C34.4989 22.7303 29.1439 20.7953 25.0039 20.1953Z" fill="#101011"/>
<path d="M13.5 18.5C16.8137 18.5 19.5 15.8137 19.5 12.5C19.5 9.18629 16.8137 6.5 13.5 6.5C10.1863 6.5 7.5 9.18629 7.5 12.5C7.5 15.8137 10.1863 18.5 13.5 18.5Z" fill="#101011"/>
<path fill-rule="evenodd" clip-rule="evenodd" d="M22.5 18.5C25.815 18.5 28.5 15.815 28.5 12.5C28.5 9.185 25.815 6.5 22.5 6.5C21.795 6.5 21.135 6.65 20.505 6.86C21.7958 8.45633 22.5 10.4471 22.5 12.5C22.5 14.5529 21.7958 16.5437 20.505 18.14C21.135 18.35 21.795 18.5 22.5 18.5ZM13.5 20C9.495 20 1.5 22.01 1.5 26V29C1.5 29.825 2.175 30.5 3 30.5H24C24.825 30.5 25.5 29.825 25.5 29V26C25.5 22.01 17.505 20 13.5 20Z" fill="#101011"/>
</svg>
