<svg width="36" height="36" viewBox="0 0 36 37" fill="none" xmlns="http://www.w3.org/2000/svg">
<g id="button">
<path id="Vector" d="M28.5 8H25.5V6.5C25.5 5.675 24.825 5 24 5H12C11.175 5 10.5 5.675 10.5 6.5V8H7.5C5.85 8 4.5 9.35 4.5 11V12.5C4.5 16.325 7.38 19.445 11.085 19.91C11.5594 21.034 12.3003 22.0257 13.2437 22.7993C14.1872 23.5728 15.3048 24.1051 16.5 24.35V29H12C11.175 29 10.5 29.675 10.5 30.5C10.5 31.325 11.175 32 12 32H24C24.825 32 25.5 31.325 25.5 30.5C25.5 29.675 24.825 29 24 29H19.5V24.35C20.6952 24.1051 21.8128 23.5728 22.7563 22.7993C23.6997 22.0257 24.4406 21.034 24.915 19.91C28.62 19.445 31.5 16.325 31.5 12.5V11C31.5 9.35 30.15 8 28.5 8ZM7.5 12.5V11H10.5V16.73C8.76 16.1 7.5 14.45 7.5 12.5ZM28.5 12.5C28.5 14.45 27.24 16.1 25.5 16.73V11H28.5V12.5Z" fill="#606060"/>
</g>
</svg>
