<svg viewBox="0 0 24 24" fill="none" xmlns="http://www.w3.org/2000/svg">
<g id="button">
<path id="plus-circle" fill-rule="evenodd" clip-rule="evenodd" d="M12.5 20.75C7.6675 20.75 3.75 16.8313 3.75 12C3.75 7.16875 7.6675 3.25 12.5 3.25C17.3325 3.25 21.25 7.16875 21.25 12C21.25 16.8313 17.3325 20.75 12.5 20.75ZM12.5 2C6.97688 2 2.5 6.475 2.5 12C2.5 17.525 6.97688 22 12.5 22C18.0231 22 22.5 17.525 22.5 12C22.5 6.475 18.0231 2 12.5 2ZM16.25 11.375H13.125V8.25C13.125 7.90625 12.8456 7.625 12.5 7.625C12.1544 7.625 11.875 7.90625 11.875 8.25V11.375H8.75C8.40438 11.375 8.125 11.6562 8.125 12C8.125 12.3438 8.40438 12.625 8.75 12.625H11.875V15.75C11.875 16.0938 12.1544 16.375 12.5 16.375C12.8456 16.375 13.125 16.0938 13.125 15.75V12.625H16.25C16.5956 12.625 16.875 12.3438 16.875 12C16.875 11.6562 16.5956 11.375 16.25 11.375Z" fill="currentColor"/>
</g>
</svg>
