<svg width="25" height="24" viewBox="0 0 25 24" fill="none" xmlns="http://www.w3.org/2000/svg">
<g id="mdi:account-arrow-right">
<path id="Vector" d="M19.5 21V19H15.5V17H19.5V15L22.5 18L19.5 21ZM10.5 4C11.5609 4 12.5783 4.42143 13.3284 5.17157C14.0786 5.92172 14.5 6.93913 14.5 8C14.5 9.06087 14.0786 10.0783 13.3284 10.8284C12.5783 11.5786 11.5609 12 10.5 12C9.43913 12 8.42172 11.5786 7.67157 10.8284C6.92143 10.0783 6.5 9.06087 6.5 8C6.5 6.93913 6.92143 5.92172 7.67157 5.17157C8.42172 4.42143 9.43913 4 10.5 4ZM10.5 14C11.65 14 12.75 14.12 13.74 14.34C12.9319 15.3886 12.4957 16.6762 12.5 18C12.5 18.7 12.62 19.37 12.84 20H2.5V18C2.5 15.79 6.08 14 10.5 14Z" fill="#6FFF57"/>
</g>
</svg>
