<svg width="24" height="24" viewBox="0 0 24 24" fill="none" xmlns="http://www.w3.org/2000/svg">
<g id="mdi:account-minus">
<path id="Vector" d="M15 14C12.33 14 7 15.33 7 18V20H23V18C23 15.33 17.67 14 15 14ZM1 10V12H9V10H1ZM15 12C16.0609 12 17.0783 11.5786 17.8284 10.8284C18.5786 10.0783 19 9.06087 19 8C19 6.93913 18.5786 5.92172 17.8284 5.17157C17.0783 4.42143 16.0609 4 15 4C13.9391 4 12.9217 4.42143 12.1716 5.17157C11.4214 5.92172 11 6.93913 11 8C11 9.06087 11.4214 10.0783 12.1716 10.8284C12.9217 11.5786 13.9391 12 15 12Z" fill="currentColor"/>
</g>
</svg>
