<svg viewBox="0 0 24 24" fill="none" xmlns="http://www.w3.org/2000/svg">
<path d="M17.7228 18.4055V15.002L19.8337 12.8911V19.092C19.8337 20.3323 18.8044 21.3616 17.5911 21.3616H5.24258C4.00224 21.3616 3 20.3323 3 19.092V6.7696C3 5.52926 4.00308 4.5 5.24258 4.5H17.776V4.52617L15.6652 6.61086H5.95521C5.50686 6.61086 5.11086 7.00686 5.11086 7.48138V18.4055C5.11086 18.8809 5.50686 19.2499 5.95521 19.2499H16.8793C17.3277 19.2499 17.7228 18.88 17.7228 18.4055ZM19.7282 5.52926L21.9707 7.77184L23 6.74258L20.7574 4.5L19.7282 5.52926ZM11.8386 13.445L14.055 15.6876L21.2058 8.53681L18.9894 6.29423L11.8386 13.445ZM10.2555 17.2445L13.3162 16.4264L11.0736 14.1838L10.2555 17.2445Z" fill="currentColor"/>
</svg>
