<svg xmlns="http://www.w3.org/2000/svg" width="24" height="24" fill="none">
  <path fill="currentColor"
    d="M6.727 5.682A.684.684 0 0 0 6.045 5a.684.684 0 0 0-.681.682v2.727H4V12.5h4.09V8.41H6.728V5.681Zm2.728 9.545c0 .887.572 1.637 1.363 1.923V20h1.364v-2.85a2.04 2.04 0 0 0 1.364-1.923v-1.363H9.454v1.363Zm-5.455 0c0 .887.573 1.637 1.364 1.923V20h1.363v-2.85a2.053 2.053 0 0 0 1.364-1.923v-1.363H4v1.363ZM17.636 8.41V5.682A.684.684 0 0 0 16.955 5a.684.684 0 0 0-.682.682v2.727h-1.364V12.5H19V8.41h-1.364Zm-5.454-2.727A.684.684 0 0 0 11.5 5a.684.684 0 0 0-.682.682v2.727H9.455V12.5h4.09V8.41h-1.363V5.681Zm2.727 9.545c0 .887.573 1.637 1.364 1.923V20h1.363v-2.85A2.039 2.039 0 0 0 19 15.227v-1.363h-4.09v1.363Z" />
</svg>