<svg viewBox="0 0 32 32" fill="none" xmlns="http://www.w3.org/2000/svg">
<g id="mdi:tournament">
<path id="Vector" d="M2.66797 2.66797V5.33464H9.33464V10.668H2.66797V13.3346H9.33464C10.8146 13.3346 12.0013 12.148 12.0013 10.668V9.33464H18.668V22.668H12.0013V21.3346C12.0013 19.8546 10.8146 18.668 9.33464 18.668H2.66797V21.3346H9.33464V26.668H2.66797V29.3346H9.33464C10.8146 29.3346 12.0013 28.148 12.0013 26.668V25.3346H18.668C20.148 25.3346 21.3346 24.148 21.3346 22.668V17.3346H29.3346V14.668H21.3346V9.33464C21.3346 7.85464 20.148 6.66797 18.668 6.66797H12.0013V5.33464C12.0013 3.85464 10.8146 2.66797 9.33464 2.66797H2.66797Z" fill="#F8F8F8"/>
</g>
</svg>
