<svg height="32" viewBox="0 0 24 24" fill="none" xmlns="http://www.w3.org/2000/svg">
<g id="SVGRepo_iconCarrier">
<path id="Vector" d="M13.5 0H3.5C2.70435 0 1.94129 0.31607 1.37868 0.87868C0.81607 1.44129 0.5 2.20435 0.5 3L0.5 13C0.5 13.7956 0.81607 14.5587 1.37868 15.1213C1.94129 15.6839 2.70435 16 3.5 16H13.5C14.2956 16 15.0587 15.6839 15.6213 15.1213C16.1839 14.5587 16.5 13.7956 16.5 13V3C16.5 2.20435 16.1839 1.44129 15.6213 0.87868C15.0587 0.31607 14.2956 0 13.5 0ZM10.5 1V2.5C10.5 2.63261 10.5527 2.75979 10.6464 2.85355C10.7402 2.94732 10.8674 3 11 3C11.1326 3 11.2598 2.94732 11.3536 2.85355C11.4473 2.75979 11.5 2.63261 11.5 2.5V1H12V4.5H5V1H10.5ZM15.5 13C15.5 13.5304 15.2893 14.0391 14.9142 14.4142C14.5391 14.7893 14.0304 15 13.5 15H3.5C2.96957 15 2.46086 14.7893 2.08579 14.4142C1.71071 14.0391 1.5 13.5304 1.5 13V3C1.5 2.46957 1.71071 1.96086 2.08579 1.58579C2.46086 1.21071 2.96957 1 3.5 1H4V5C4 5.13261 4.05268 5.25979 4.14645 5.35355C4.24021 5.44732 4.36739 5.5 4.5 5.5H12.5C12.6326 5.5 12.7598 5.44732 12.8536 5.35355C12.9473 5.25979 13 5.13261 13 5V1H13.5C14.0304 1 14.5391 1.21071 14.9142 1.58579C15.2893 1.96086 15.5 2.46957 15.5 3V13ZM12.5 7H4.5C4.36739 7 4.24021 7.05268 4.14645 7.14645C4.05268 7.24021 4 7.36739 4 7.5V13.5C4 13.6326 4.05268 13.7598 4.14645 13.8536C4.24021 13.9473 4.36739 14 4.5 14H12.5C12.6326 14 12.7598 13.9473 12.8536 13.8536C12.9473 13.7598 13 13.6326 13 13.5V7.5C13 7.36739 12.9473 7.24021 12.8536 7.14645C12.7598 7.05268 12.6326 7 12.5 7ZM12 13H5V8H12V13ZM6.5 10H10.5C10.6326 10 10.7598 9.94732 10.8536 9.85355C10.9473 9.75979 11 9.63261 11 9.5C11 9.36739 10.9473 9.24021 10.8536 9.14645C10.7598 9.05268 10.6326 9 10.5 9H6.5C6.36739 9 6.24021 9.05268 6.14645 9.14645C6.05268 9.24021 6 9.36739 6 9.5C6 9.63261 6.05268 9.75979 6.14645 9.85355C6.24021 9.94732 6.36739 10 6.5 10ZM6.5 12H10.5C10.6326 12 10.7598 11.9473 10.8536 11.8536C10.9473 11.7598 11 11.6326 11 11.5C11 11.3674 10.9473 11.2402 10.8536 11.1464C10.7598 11.0527 10.6326 11 10.5 11H6.5C6.36739 11 6.24021 11.0527 6.14645 11.1464C6.05268 11.2402 6 11.3674 6 11.5C6 11.6326 6.05268 11.7598 6.14645 11.8536C6.24021 11.9473 6.36739 12 6.5 12Z" fill="currentColor"/>
</g>
</svg>
