<svg width="22" height="22" viewBox="0 0 22 22" fill="none" xmlns="http://www.w3.org/2000/svg">
    <path d="M10.0555 2.54294C10.1518 2.37774 10.2897 2.24067 10.4555 2.1454C10.6213 2.05013 10.8091 2 11.0003 2C11.1915 2 11.3794 2.05013 11.5452 2.1454C11.711 2.24067 11.8489 2.37774 11.9451 2.54294L14.3902 6.74028L19.1387 7.76906C19.3255 7.80965 19.4984 7.89848 19.6401 8.02672C19.7818 8.15495 19.8875 8.3181 19.9465 8.49989C20.0056 8.68169 20.0159 8.87579 19.9766 9.06283C19.9372 9.24988 19.8495 9.42334 19.7222 9.56592L16.4854 13.1885L16.9753 18.0218C16.9946 18.2122 16.9637 18.4042 16.8856 18.5788C16.8074 18.7535 16.6849 18.9045 16.5301 19.017C16.3754 19.1294 16.1938 19.1993 16.0036 19.2196C15.8134 19.24 15.6211 19.21 15.4461 19.1328L11.0003 17.1733L6.55454 19.1328C6.37951 19.21 6.18729 19.24 5.99707 19.2196C5.80686 19.1993 5.6253 19.1294 5.47054 19.017C5.31577 18.9045 5.19321 18.7535 5.1151 18.5788C5.03698 18.4042 5.00604 18.2122 5.02537 18.0218L5.51526 13.1885L2.27847 9.56679C2.15094 9.42422 2.06305 9.25069 2.02356 9.06353C1.98407 8.87637 1.99436 8.68212 2.05341 8.50018C2.11247 8.31825 2.21821 8.15498 2.36009 8.02669C2.50197 7.89839 2.67502 7.80956 2.86196 7.76906L7.61044 6.74028L10.0555 2.54294Z"
          fill="currentColor"/>
</svg>
