<svg width="22" height="22" viewBox="0 0 22 22" fill="none" xmlns="http://www.w3.org/2000/svg">
    <path d="M18.6023 8.16452C18.7647 8.28907 18.8848 8.45822 18.9471 8.65004C19.0122 8.8418 19.0173 9.04801 18.9619 9.24261C18.9065 9.43721 18.7931 9.61146 18.6359 9.74333L15.2964 12.5498L16.3145 16.7425C16.3623 16.9387 16.3492 17.1443 16.2768 17.3333C16.2044 17.5222 16.0761 17.686 15.908 17.804C15.742 17.9236 15.5427 17.9917 15.3362 17.9993C15.1298 18.0069 14.9257 17.9536 14.7509 17.8464L10.9998 15.6025L7.2545 17.8429C7.0797 17.95 6.87569 18.0033 6.66923 17.9958C6.46277 17.9882 6.26347 17.9201 6.09745 17.8004C5.92936 17.6825 5.80101 17.5187 5.72864 17.3297C5.65628 17.1408 5.64315 16.9352 5.69092 16.739L6.70907 12.5463L3.36374 9.74333C3.20686 9.61157 3.09357 9.43757 3.03818 9.24325C2.98279 9.04894 2.98776 8.84302 3.05248 8.65145C3.11456 8.45938 3.2346 8.28992 3.39698 8.1651C3.55936 8.04029 3.75658 7.9659 3.96299 7.95161L8.34464 7.60557L10.0333 3.6301C10.1121 3.4437 10.246 3.28428 10.4181 3.17209C10.5902 3.0599 10.7927 3 10.9998 3C11.207 3 11.4094 3.0599 11.5815 3.17209C11.7536 3.28428 11.8875 3.4437 11.9663 3.6301L13.655 7.60699L18.0366 7.95161C18.2429 7.9658 18.44 8.03998 18.6023 8.16452Z"
          fill="currentColor" fill-opacity="0.0"/>
    <path d="M18.9471 8.65004C18.8848 8.45822 18.7647 8.28907 18.6023 8.16452C18.44 8.03998 18.2429 7.9658 18.0366 7.95161L13.655 7.60699L11.9663 3.6301C11.8875 3.4437 11.7536 3.28428 11.5815 3.17209C11.4094 3.0599 11.207 3 10.9998 3C10.7927 3 10.5902 3.0599 10.4181 3.17209C10.246 3.28428 10.1121 3.4437 10.0333 3.6301L8.34464 7.60557L3.96299 7.95161C3.75658 7.9659 3.55936 8.04029 3.39698 8.1651C3.2346 8.28992 3.11456 8.45938 3.05248 8.65145C2.98776 8.84302 2.98279 9.04894 3.03818 9.24325C3.09357 9.43757 3.20686 9.61157 3.36374 9.74333L6.70907 12.5463L5.69092 16.739C5.64315 16.9352 5.65628 17.1408 5.72864 17.3297C5.80101 17.5187 5.92936 17.6825 6.09746 17.8004C6.26347 17.9201 6.46277 17.9882 6.66923 17.9958C6.87569 18.0033 7.0797 17.95 7.2545 17.8429L10.9998 15.6025L14.7509 17.8464C14.9257 17.9536 15.1298 18.0069 15.3362 17.9993C15.5427 17.9917 15.742 17.9236 15.908 17.804C16.0761 17.686 16.2044 17.5222 16.2768 17.3333C16.3492 17.1443 16.3623 16.9387 16.3145 16.7425L15.2964 12.5498L18.6359 9.74333C18.7931 9.61146 18.9065 9.43721 18.9619 9.24261C19.0173 9.04801 19.0122 8.8418 18.9471 8.65004ZM18.0643 9.1008L14.5233 12.0728C14.4629 12.1236 14.4179 12.1895 14.3933 12.2633C14.3687 12.3372 14.3654 12.4162 14.3837 12.4918L15.4658 16.935C15.4753 16.9685 15.4737 17.0041 15.4613 17.0367C15.4489 17.0693 15.4264 17.0974 15.3967 17.1168C15.3699 17.137 15.3373 17.1486 15.3034 17.1498C15.2695 17.1511 15.236 17.142 15.2077 17.1239L11.2282 14.7449C11.1595 14.7038 11.0804 14.6821 10.9998 14.6821C10.9192 14.6821 10.8402 14.7038 10.7715 14.7449L6.79197 17.1232C6.76362 17.1413 6.73016 17.1504 6.69627 17.1491C6.66237 17.1479 6.62973 17.1363 6.60289 17.1161C6.57262 17.0971 6.54929 17.0693 6.53623 17.0367C6.52317 17.004 6.52105 16.9682 6.53017 16.9343L7.61231 12.4911C7.63063 12.4155 7.62729 12.3365 7.60268 12.2626C7.57806 12.1887 7.53309 12.1229 7.47268 12.0721L3.93172 9.10009C3.90394 9.07808 3.8839 9.04819 3.87438 9.01458C3.86487 8.98098 3.86635 8.94532 3.87863 8.91257C3.88812 8.88028 3.90772 8.85168 3.9347 8.83075C3.96169 8.80982 3.99471 8.79761 4.02917 8.79581L8.67772 8.43067C8.75782 8.42434 8.83457 8.39661 8.8995 8.35054C8.96444 8.30446 9.01503 8.24183 9.04571 8.16956L10.8369 3.95207C10.8494 3.92086 10.8713 3.89403 10.8997 3.87512C10.9281 3.85621 10.9617 3.84609 10.9962 3.84609C11.0306 3.84609 11.0642 3.85621 11.0927 3.87512C11.1211 3.89403 11.143 3.92086 11.1554 3.95207L12.9466 8.16956C12.9773 8.24183 13.0279 8.30446 13.0929 8.35054C13.1578 8.39661 13.2345 8.42434 13.3146 8.43067L17.9632 8.79581C17.9976 8.79761 18.0307 8.80982 18.0577 8.83075C18.0846 8.85168 18.1042 8.88028 18.1137 8.91257C18.1266 8.94506 18.1287 8.98063 18.1199 9.01436C18.111 9.04809 18.0916 9.0783 18.0643 9.1008Z"
          fill="currentColor"/>
</svg>
