<svg width="24" height="24" viewBox="0 0 24 24" fill="none" xmlns="http://www.w3.org/2000/svg">
    <path d="M19.6023 9.16452C19.7647 9.28907 19.8848 9.45822 19.9471 9.65004C20.0122 9.8418 20.0173 10.048 19.9619 10.2426C19.9065 10.4372 19.7931 10.6115 19.6359 10.7433L16.2964 13.5498L17.3145 17.7425C17.3623 17.9387 17.3492 18.1443 17.2768 18.3333C17.2044 18.5222 17.0761 18.686 16.908 18.804C16.742 18.9236 16.5427 18.9917 16.3362 18.9993C16.1298 19.0069 15.9257 18.9536 15.7509 18.8464L11.9998 16.6025L8.2545 18.8429C8.0797 18.95 7.87569 19.0033 7.66923 18.9958C7.46277 18.9882 7.26347 18.9201 7.09745 18.8004C6.92936 18.6825 6.80101 18.5187 6.72864 18.3297C6.65628 18.1408 6.64315 17.9352 6.69092 17.739L7.70907 13.5463L4.36374 10.7433C4.20686 10.6116 4.09357 10.4376 4.03818 10.2433C3.98279 10.0489 3.98776 9.84302 4.05248 9.65145C4.11456 9.45938 4.2346 9.28992 4.39698 9.1651C4.55936 9.04029 4.75658 8.9659 4.96299 8.95161L9.34464 8.60557L11.0333 4.6301C11.1121 4.4437 11.246 4.28428 11.4181 4.17209C11.5902 4.0599 11.7927 4 11.9998 4C12.207 4 12.4094 4.0599 12.5815 4.17209C12.7536 4.28428 12.8875 4.4437 12.9663 4.6301L14.655 8.60699L19.0366 8.95161C19.2429 8.9658 19.44 9.03998 19.6023 9.16452Z"
          fill="currentColor" fill-opacity="0.0"/>
    <path d="M19.9471 9.65004C19.8848 9.45822 19.7647 9.28907 19.6023 9.16452C19.44 9.03998 19.2429 8.9658 19.0366 8.95161L14.655 8.60699L12.9663 4.6301C12.8875 4.4437 12.7536 4.28428 12.5815 4.17209C12.4094 4.0599 12.207 4 11.9998 4C11.7927 4 11.5902 4.0599 11.4181 4.17209C11.246 4.28428 11.1121 4.4437 11.0333 4.6301L9.34464 8.60557L4.96299 8.95161C4.75658 8.9659 4.55936 9.04029 4.39698 9.1651C4.2346 9.28992 4.11456 9.45938 4.05248 9.65145C3.98776 9.84302 3.98279 10.0489 4.03818 10.2433C4.09357 10.4376 4.20686 10.6116 4.36374 10.7433L7.70907 13.5463L6.69092 17.739C6.64315 17.9352 6.65628 18.1408 6.72864 18.3297C6.80101 18.5187 6.92936 18.6825 7.09745 18.8004C7.26347 18.9201 7.46277 18.9882 7.66923 18.9958C7.87569 19.0033 8.0797 18.95 8.2545 18.8429L11.9998 16.6025L15.7509 18.8464C15.9257 18.9536 16.1298 19.0069 16.3362 18.9993C16.5427 18.9917 16.742 18.9236 16.908 18.804C17.0761 18.686 17.2044 18.5222 17.2768 18.3333C17.3492 18.1443 17.3623 17.9387 17.3145 17.7425L16.2964 13.5498L19.6359 10.7433C19.7931 10.6115 19.9065 10.4372 19.9619 10.2426C20.0173 10.048 20.0122 9.8418 19.9471 9.65004ZM19.0643 10.1008L15.5233 13.0728C15.4629 13.1236 15.4179 13.1895 15.3933 13.2633C15.3687 13.3372 15.3654 13.4162 15.3837 13.4918L16.4658 17.935C16.4753 17.9685 16.4737 18.0041 16.4613 18.0367C16.4489 18.0693 16.4264 18.0974 16.3967 18.1168C16.3699 18.137 16.3373 18.1486 16.3034 18.1498C16.2695 18.1511 16.236 18.142 16.2077 18.1239L12.2282 15.7449C12.1595 15.7038 12.0804 15.6821 11.9998 15.6821C11.9192 15.6821 11.8402 15.7038 11.7715 15.7449L7.79197 18.1232C7.76362 18.1413 7.73016 18.1504 7.69627 18.1491C7.66237 18.1479 7.62973 18.1363 7.60289 18.1161C7.57262 18.0971 7.54929 18.0693 7.53623 18.0367C7.52317 18.004 7.52105 17.9682 7.53017 17.9343L8.61231 13.4911C8.63063 13.4155 8.62729 13.3365 8.60268 13.2626C8.57806 13.1887 8.53309 13.1229 8.47268 13.0721L4.93172 10.1001C4.90394 10.0781 4.8839 10.0482 4.87438 10.0146C4.86487 9.98097 4.86635 9.94532 4.87863 9.91257C4.88812 9.88028 4.90772 9.85168 4.9347 9.83075C4.96169 9.80982 4.99471 9.79761 5.02917 9.79581L9.67772 9.43067C9.75782 9.42434 9.83457 9.39661 9.8995 9.35054C9.96444 9.30446 10.015 9.24183 10.0457 9.16956L11.8369 4.95207C11.8494 4.92086 11.8713 4.89403 11.8997 4.87512C11.9281 4.85621 11.9617 4.84609 11.9962 4.84609C12.0306 4.84609 12.0642 4.85621 12.0927 4.87512C12.1211 4.89403 12.143 4.92086 12.1554 4.95207L13.9466 9.16956C13.9773 9.24183 14.0279 9.30446 14.0929 9.35054C14.1578 9.39661 14.2345 9.42434 14.3146 9.43067L18.9632 9.79581C18.9976 9.79761 19.0307 9.80982 19.0577 9.83075C19.0846 9.85168 19.1042 9.88028 19.1137 9.91257C19.1266 9.94506 19.1287 9.98063 19.1199 10.0144C19.111 10.0481 19.0916 10.0783 19.0643 10.1008Z"
          fill="currentColor"/>
</svg>
